<?xml version="1.0" standalone="no"?>
<!DOCTYPE svg PUBLIC "-//W3C//DTD SVG 1.1//EN" "http://www.w3.org/Graphics/SVG/1.1/DTD/svg11.dtd" >
<svg xmlns="http://www.w3.org/2000/svg" xmlns:xlink="http://www.w3.org/1999/xlink" version="1.1">
<metadata>
Created by FontForge 20170731 at Thu Jul 29 11:47:15 2021
 By Aleksey,,,
(c)2009 Commercial Type.
</metadata>
<defs>
<font id="Graphik-LightItalic" horiz-adv-x="1228" >
  <font-face 
    font-family="Graphik Light"
    font-weight="300"
    font-style="italic"
    font-stretch="normal"
    units-per-em="2048"
    panose-1="2 11 4 3 3 2 2 13 2 3"
    ascent="1675"
    descent="-373"
    x-height="1071"
    cap-height="1464"
    bbox="-512 -434 2146 2234"
    underline-thickness="102"
    underline-position="-307"
    slope="-8"
    unicode-range="U+0020-FB02"
  />
<missing-glyph horiz-adv-x="1024" 
 />
    <glyph glyph-name="f_f" unicode="ff" horiz-adv-x="1236" 
d="M688 0l156 979h-459l-154 -979h-108l153 979h-161l14 92h162l31 191q25 159 114 233t221 74q69 0 127 -21l-12 -88q-52 19 -110 19q-95 0 -154 -51t-78 -168l-31 -189h459l33 205q26 162 115.5 237.5t220.5 75.5q76 0 131 -22l-15 -88q-49 18 -112 18q-196 0 -232 -223
l-32 -203h297l-15 -92h-297l-155 -979h-109z" />
    <glyph glyph-name=".notdef" horiz-adv-x="1024" 
 />
    <glyph glyph-name=".null" horiz-adv-x="0" 
 />
    <glyph glyph-name="nonmarkingreturn" horiz-adv-x="682" 
 />
    <glyph glyph-name="space" unicode=" " horiz-adv-x="505" 
 />
    <glyph glyph-name="exclam" unicode="!" horiz-adv-x="555" 
d="M207 367l158 1097h120l-192 -1097h-86zM207 -10q-37 0 -62.5 25.5t-25.5 60.5q0 37 25.5 62.5t60.5 25.5q37 0 62.5 -25.5t25.5 -62.5q0 -35 -25.5 -60.5t-60.5 -25.5z" />
    <glyph glyph-name="quotedbl" unicode="&#x22;" horiz-adv-x="624" 
d="M215 1036l49 428h119l-86 -428h-82zM483 1036l49 428h117l-84 -428h-82z" />
    <glyph glyph-name="numbersign" unicode="#" horiz-adv-x="1007" 
d="M514 203l94 401h-246l-94 -401h-92l94 401h-188l14 92h195l76 322h-191l14 92h199l84 354h92l-84 -354h246l84 354h92l-84 -354h191l-13 -92h-200l-76 -322h194l-12 -92h-203l-94 -401h-92zM459 1018l-76 -322h246l76 322h-246z" />
    <glyph glyph-name="dollar" unicode="$" horiz-adv-x="1230" 
d="M592 -16h-27l-41 -260h-82l41 268q-194 25 -304.5 139t-115.5 289h109q11 -138 93 -227.5t233 -110.5l102 637q-197 59 -287 142t-90 224q0 176 135 286t344 110h17l31 184h81l-30 -190q162 -22 258.5 -115t105.5 -248h-104q-26 231 -275 268l-92 -581
q216 -63 309 -144.5t93 -232.5q0 -199 -138.5 -318.5t-365.5 -119.5zM985 412q0 112 -67 173t-240 113l-98 -622h14q180 0 285.5 89t105.5 247zM332 1090q0 -96 62.5 -157t221.5 -112l89 568h-13q-167 0 -263.5 -80t-96.5 -219z" />
    <glyph glyph-name="percent" unicode="%" horiz-adv-x="1568" 
d="M270 1112q2 -91 54 -151t147 -60q107 0 173.5 75.5t64.5 194.5q0 91 -52.5 154.5t-148.5 63.5q-109 0 -173.5 -79.5t-64.5 -197.5zM469 815q-130 0 -214.5 85.5t-84.5 215.5q0 147 99 253t243 106q131 0 214 -88t83 -220q0 -150 -98.5 -251t-241.5 -101zM182 0l1159 1464
h109l-1161 -1464h-107zM920 283q2 -90 53.5 -150.5t146.5 -60.5q107 0 172.5 75.5t65.5 196.5q-2 92 -53.5 154.5t-147.5 62.5q-109 0 -173 -79t-64 -199zM1118 -14q-130 0 -214.5 86t-84.5 217q0 145 98.5 251.5t243.5 106.5q131 0 214 -87.5t83 -219.5q0 -150 -98.5 -252
t-241.5 -102z" />
    <glyph glyph-name="ampersand" unicode="&#x26;" horiz-adv-x="1347" 
d="M1194 0h-129l-141 209q-84 -96 -195.5 -158.5t-241.5 -62.5q-82 0 -154 21.5t-131 64.5t-93.5 116t-34.5 168q0 75 23 139t60 111.5t94 90t115.5 72.5t133.5 60q-109 168 -109 297q0 151 97.5 248t246.5 97q128 0 209.5 -77.5t81.5 -201.5q0 -63 -23.5 -117.5t-57.5 -93
t-88.5 -75t-100.5 -59t-109 -48.5l297 -432l246 372h108l-303 -450zM186 360q0 -131 83.5 -206.5t219.5 -75.5q109 0 208.5 57t176.5 148l-331 481q-62 -26 -107 -48.5t-95.5 -58.5t-81.5 -75.5t-52 -97t-21 -124.5zM733 1386q-103 0 -168 -69.5t-65 -179.5q0 -109 104 -267
q47 19 74.5 32t70.5 35.5t69 45.5t52.5 54t39 69.5t12.5 83.5q0 85 -49 140t-140 56z" />
    <glyph glyph-name="quotesingle" unicode="'" horiz-adv-x="356" 
d="M215 1036l49 428h119l-86 -428h-82z" />
    <glyph glyph-name="parenleft" unicode="(" horiz-adv-x="612" 
d="M328 -303q-217 321 -217 727q0 340 134 635t369 524h119q-510 -517 -510 -1159q0 -384 211 -727h-106z" />
    <glyph glyph-name="parenright" unicode=")" horiz-adv-x="612" 
d="M315 1587q215 -318 215 -727q0 -340 -133.5 -635t-367.5 -524h-121q512 515 512 1159q0 384 -211 727h106z" />
    <glyph glyph-name="asterisk" unicode="*" horiz-adv-x="854" 
d="M307 883l-67 59l223 225l-258 99l43 88l248 -121l36 289h99l-53 -293l276 84l16 -90l-284 -64l147 -248l-84 -51l-135 258z" />
    <glyph glyph-name="plus" unicode="+" horiz-adv-x="1044" 
d="M422 225l67 428h-399l16 95h398l69 428h99l-70 -428h399l-14 -95h-399l-68 -428h-98z" />
    <glyph glyph-name="comma" unicode="," horiz-adv-x="468" 
d="M37 -240l-70 39l197 373l98 -49z" />
    <glyph glyph-name="hyphen" unicode="-" horiz-adv-x="684" 
d="M119 516l16 102h428l-14 -102h-430z" />
    <glyph glyph-name="period" unicode="." horiz-adv-x="468" 
d="M160 -10q-37 0 -62.5 25.5t-25.5 60.5q0 37 25.5 62.5t60.5 25.5q37 0 62.5 -25.5t25.5 -62.5q0 -35 -25.5 -60.5t-60.5 -25.5z" />
    <glyph glyph-name="slash" unicode="/" horiz-adv-x="800" 
d="M-106 -303l888 1892h107l-891 -1892h-104z" />
    <glyph glyph-name="zero" unicode="0" horiz-adv-x="1349" 
d="M635 -16q-129 0 -227.5 41.5t-159 115.5t-91 171t-30.5 214q0 100 14 183l19 118q50 307 214.5 480.5t411.5 173.5q127 0 223 -42.5t154 -118t87 -172t30 -212.5q0 -97 -14 -182l-21 -119q-50 -309 -207 -480t-403 -171zM639 80q201 0 325.5 143.5t170.5 423.5l18 119
q12 83 12 170q0 94 -20.5 172t-64 142t-120 100t-180.5 36q-198 0 -331 -148t-177 -419l-18 -117q-14 -100 -14 -176q1 -75 13.5 -139t41.5 -121.5t74 -98t113.5 -64t156.5 -23.5z" />
    <glyph glyph-name="one" unicode="1" horiz-adv-x="753" 
d="M305 0l211 1341l-371 -233l17 111l391 245h96l-231 -1464h-113z" />
    <glyph glyph-name="two" unicode="2" horiz-adv-x="1099" 
d="M-66 0l5 27l700 598q68 57 116.5 107t92 110.5t66 128.5t22.5 141q0 122 -75 198t-208 76q-305 3 -389 -348h-106q19 110 66 195.5t113.5 139t147.5 81t174 27.5q173 0 282.5 -100t109.5 -267q0 -86 -26 -163t-78.5 -147t-108.5 -125.5t-140 -125.5l-544 -459h768
l-15 -94h-973z" />
    <glyph glyph-name="three" unicode="3" horiz-adv-x="1161" 
d="M524 -16q-213 0 -342.5 115.5t-130.5 314.5h109q3 -155 97.5 -245.5t270.5 -90.5q175 0 281 92.5t106 271.5q0 123 -76.5 200t-228.5 77h-90l17 96h112q142 0 233 77.5t91 229.5q0 121 -76.5 191.5t-208.5 70.5q-143 0 -242.5 -79.5t-132.5 -225.5h-102q30 181 165 291.5
t318 110.5q106 0 193 -38.5t142.5 -120.5t55.5 -196q0 -136 -76.5 -232t-211.5 -130q109 -29 172 -114.5t63 -207.5q0 -143 -67.5 -248t-181.5 -157.5t-259 -52.5z" />
    <glyph glyph-name="four" unicode="4" horiz-adv-x="1218" 
d="M737 0l51 330h-753l8 35l877 1099h161l-166 -1040h203l-14 -94h-203l-51 -330h-113zM201 424h604l149 948z" />
    <glyph glyph-name="five" unicode="5" horiz-adv-x="1148" 
d="M504 -16q-194 0 -318 104.5t-133 288.5h109q11 -138 99.5 -218.5t244.5 -80.5q191 0 300 124t109 328q0 145 -85 236.5t-238 91.5q-210 0 -363 -160h-43l123 766h799l-16 -98h-703l-84 -530q54 50 137.5 83t182.5 33q182 0 294.5 -115.5t112.5 -301.5
q0 -157 -63.5 -281.5t-184.5 -197t-280 -72.5z" />
    <glyph glyph-name="six" unicode="6" 
d="M592 -16q-224 0 -346 124.5t-121 356.5q0 81 18 194l17 105q55 341 209 529t413 188q181 0 284 -86.5t112 -247.5h-107q-25 237 -293 237q-402 0 -504 -610l-12 -69q66 111 175 169t239 58q190 0 314 -110t124 -300q0 -152 -64.5 -274t-184.5 -193t-273 -71zM236 426
q0 -157 93.5 -253.5t262.5 -96.5q184 0 294.5 125t110.5 315q0 147 -92.5 235.5t-255.5 88.5q-174 0 -293.5 -116.5t-119.5 -297.5z" />
    <glyph glyph-name="seven" unicode="7" horiz-adv-x="1032" 
d="M201 0l768 1370h-785l15 94h936l-5 -18l-808 -1446h-121z" />
    <glyph glyph-name="eight" unicode="8" horiz-adv-x="1193" 
d="M565 -16q-91 0 -175 25t-151.5 72t-108 124t-40.5 172q0 171 104 280.5t277 143.5q-97 33 -157 112t-60 185q0 113 63.5 201.5t166 135t223.5 46.5q164 0 283.5 -98.5t119.5 -256.5q0 -274 -303 -342q121 -39 193.5 -131.5t72.5 -218.5q0 -109 -41 -196t-112 -141.5
t-161.5 -83.5t-193.5 -29zM205 389q0 -146 104.5 -227.5t261.5 -81.5q171 0 279 91t108 263q0 137 -97.5 222t-252.5 85q-174 0 -288.5 -91.5t-114.5 -260.5zM367 1100q0 -115 85.5 -190.5t225.5 -75.5q136 0 227.5 72t91.5 216q0 116 -84.5 191.5t-214.5 75.5
q-88 0 -161 -30.5t-121 -98t-49 -160.5z" />
    <glyph glyph-name="nine" unicode="9" horiz-adv-x="1226" 
d="M518 -14q-179 0 -294 88t-132 262h111q36 -256 321 -256q196 0 316.5 142t171.5 464l12 72q-63 -108 -174 -167t-240 -59q-121 0 -218.5 46.5t-157.5 142t-60 225.5q0 233 148 384t383 151q216 0 335 -124.5t119 -352.5q0 -91 -16 -197l-19 -119q-31 -190 -85 -326
t-131.5 -218t-173 -120t-216.5 -38zM289 950q0 -150 91 -237.5t243 -87.5q183 0 305.5 112.5t122.5 300.5q0 157 -91 255t-260 98q-185 0 -298 -124t-113 -317z" />
    <glyph glyph-name="colon" unicode=":" horiz-adv-x="485" 
d="M166 -10q-35 0 -60.5 25.5t-25.5 60.5q0 37 24.5 62.5t61.5 25.5q36 0 62 -26t26 -62q0 -35 -25.5 -60.5t-62.5 -25.5zM272 655q-36 0 -61 25t-25 61q0 37 24.5 61.5t61.5 24.5q36 0 62 -25t26 -61q0 -37 -25.5 -61.5t-62.5 -24.5z" />
    <glyph glyph-name="semicolon" unicode=";" horiz-adv-x="485" 
d="M16 -240l-69 39l196 373l99 -49zM283 655q-37 0 -62.5 24.5t-25.5 61.5q0 36 25 61t61 25q37 0 62.5 -24.5t25.5 -61.5q0 -36 -25 -61t-61 -25z" />
    <glyph glyph-name="less" unicode="&#x3c;" horiz-adv-x="1015" 
d="M838 213l-719 444l4 27l854 418l-16 -111l-682 -325l575 -349z" />
    <glyph glyph-name="equal" unicode="=" horiz-adv-x="991" 
d="M63 436l17 94h827l-16 -94h-828zM117 778l16 94h828l-17 -94h-827z" />
    <glyph glyph-name="greater" unicode="&#x3e;" horiz-adv-x="1015" 
d="M213 1102l719 -445l-4 -26l-854 -418l16 111l682 325l-575 350z" />
    <glyph glyph-name="question" unicode="?" horiz-adv-x="976" 
d="M356 367l19 125q6 38 18.5 73t23.5 60t36.5 55.5t38 45.5t49.5 46t48 40t56 44q36 27 50.5 38t43.5 36t41.5 40t31.5 40.5t27 48t14.5 52.5t6.5 63q0 103 -72 159t-186 56q-132 0 -221.5 -79t-116.5 -229h-104q27 188 151 294t301 106q163 0 261 -84t98 -223
q0 -33 -4 -63t-15 -57.5t-20 -48t-29.5 -45t-32 -38.5t-40 -37.5t-40.5 -33.5t-45.5 -35t-44.5 -34q-53 -40 -84.5 -66.5t-64.5 -63.5t-51.5 -78.5t-26.5 -92.5l-18 -114h-99zM365 -10q-36 0 -61 25t-25 61q0 37 24 62.5t59 25.5q37 0 63 -25.5t26 -62.5q0 -35 -25.5 -60.5
t-60.5 -25.5z" />
    <glyph glyph-name="at" unicode="@" horiz-adv-x="1861" 
d="M1350 942l-76 -491q-18 -107 14.5 -166.5t118.5 -59.5q114 0 195 110.5t81 321.5q0 145 -47.5 267t-136.5 210t-223 137.5t-299 49.5q-158 0 -300 -59.5t-246 -162.5t-165 -250t-61 -314q0 -119 29.5 -228.5t91 -204.5t148.5 -165t209.5 -110t266.5 -40q352 0 555 213
h103q-79 -131 -254.5 -216t-403.5 -85q-200 0 -363.5 68.5t-268 184.5t-160.5 265t-56 315q0 183 72 347t191.5 279.5t279.5 183t332 67.5q180 0 331.5 -57.5t254 -157.5t160 -237.5t57.5 -294.5q0 -134 -35 -238t-91.5 -163t-120 -88.5t-128.5 -29.5q-109 0 -166 54.5
t-63 152.5q-41 -92 -124 -156.5t-194 -64.5q-142 0 -229.5 91.5t-87.5 250.5q0 130 52.5 242t147.5 180t211 68q107 0 175.5 -54t86.5 -137l27 172h109zM877 215q124 0 217.5 115.5t93.5 279.5q1 122 -60 192t-165 70q-134 0 -223 -116.5t-89 -286.5q0 -119 62 -186.5
t164 -67.5z" />
    <glyph glyph-name="A" unicode="A" horiz-adv-x="1312" 
d="M1061 0l-92 449h-660l-229 -449h-111l754 1464h151l297 -1464h-110zM782 1372l-426 -831h594z" />
    <glyph glyph-name="B" unicode="B" horiz-adv-x="1236" 
d="M102 0l232 1464h395q193 0 299 -85.5t105 -248.5q0 -288 -306 -368q134 -25 204.5 -107t72.5 -213q0 -206 -136.5 -324t-361.5 -118h-504zM227 92h379q181 0 283 92.5t102 259.5q0 271 -350 271h-313zM342 805h305q171 0 273 79t102 242q0 121 -75 183.5t-222 62.5h-293z
" />
    <glyph glyph-name="C" unicode="C" horiz-adv-x="1484" 
d="M772 -16q-298 0 -471.5 175t-173.5 474q0 173 56 328t155.5 270.5t246 183.5t316.5 68q143 0 259 -51.5t193 -157t91 -250.5h-107q-31 177 -145 272t-295 95q-198 0 -348 -103.5t-226.5 -274t-76.5 -380.5q0 -263 137 -409t389 -146q191 0 327.5 103.5t196.5 289.5h109
q-62 -228 -233.5 -357.5t-399.5 -129.5z" />
    <glyph glyph-name="D" unicode="D" horiz-adv-x="1409" 
d="M102 0l232 1464h354q168 0 296.5 -47t207.5 -132t119 -197t41 -248q0 -248 -99 -437.5t-290 -296t-449 -106.5h-412zM231 94h279q339 0 532 198t193 548q0 115 -32.5 209.5t-97.5 167t-172.5 113t-248.5 40.5h-250z" />
    <glyph glyph-name="E" unicode="E" horiz-adv-x="1165" 
d="M102 0l232 1464h831l-16 -94h-717l-90 -571h590l-14 -94h-590l-97 -611h766l-16 -94h-879z" />
    <glyph glyph-name="F" unicode="F" horiz-adv-x="1118" 
d="M102 0l232 1464h833l-16 -94h-719l-92 -582h565l-14 -94h-565l-109 -694h-115z" />
    <glyph glyph-name="G" unicode="G" horiz-adv-x="1552" 
d="M797 -16q-156 0 -283 50t-210.5 139t-128 209.5t-44.5 262.5q0 170 57 323t156 266.5t242.5 180t308.5 66.5q109 0 204.5 -27t172 -79t126 -136t60.5 -192h-112q-21 167 -144.5 254.5t-308.5 87.5q-144 0 -266 -58.5t-204.5 -159t-128.5 -236.5t-46 -290
q0 -167 62 -293.5t188 -200t301 -73.5q236 0 377.5 140t175.5 400h-461l16 97h568q-30 -373 -206.5 -552t-471.5 -179z" />
    <glyph glyph-name="H" unicode="H" horiz-adv-x="1468" 
d="M102 0l232 1464h115l-109 -682h862l109 682h114l-231 -1464h-115l109 686h-862l-109 -686h-115z" />
    <glyph glyph-name="I" unicode="I" horiz-adv-x="514" 
d="M113 0l231 1464h115l-232 -1464h-114z" />
    <glyph glyph-name="J" unicode="J" horiz-adv-x="821" 
d="M231 -14q-148 0 -235 57l14 94q101 -57 219 -57t188 65t93 207l174 1112h115l-178 -1122q-28 -183 -130.5 -269.5t-259.5 -86.5z" />
    <glyph glyph-name="K" unicode="K" horiz-adv-x="1226" 
d="M1090 0h-129l-623 752l815 712h135l-817 -708zM102 0l232 1464h115l-232 -1464h-115z" />
    <glyph glyph-name="L" unicode="L" horiz-adv-x="1085" 
d="M102 0l232 1464h115l-218 -1370h713l-16 -94h-826z" />
    <glyph glyph-name="M" unicode="M" horiz-adv-x="1742" 
d="M102 0l232 1464h160l317 -1257l717 1257h164l-232 -1464h-112l208 1321l-759 -1321h-37l-342 1321l-209 -1321h-107z" />
    <glyph glyph-name="N" unicode="N" horiz-adv-x="1460" 
d="M102 0l232 1464h151l615 -1306l209 1306h108l-231 -1464h-131l-631 1337l-211 -1337h-111z" />
    <glyph glyph-name="O" unicode="O" horiz-adv-x="1632" 
d="M1563 811q0 -226 -98.5 -415t-275.5 -300.5t-394 -111.5q-201 0 -354 88t-233.5 240.5t-80.5 344.5q0 165 59 316t160.5 263t247.5 178.5t311 66.5q149 0 274 -52.5t208.5 -143.5t129.5 -213t46 -261zM1446 811q0 159 -62.5 288t-187.5 208t-293 79q-145 0 -269 -58.5
t-208 -158.5t-131.5 -232.5t-48.5 -279.5q-2 -168 65 -299t193.5 -204.5t292.5 -73.5q142 0 264 57.5t206 156.5t131.5 233t47.5 284z" />
    <glyph glyph-name="P" unicode="P" horiz-adv-x="1163" 
d="M102 0l232 1464h368q209 0 330 -92t121 -276q0 -123 -41.5 -215t-116 -146.5t-169.5 -81t-210 -26.5h-301l-98 -627h-115zM330 719h293q202 0 309.5 93t107.5 282q0 144 -89.5 210t-260.5 66h-258z" />
    <glyph glyph-name="Q" unicode="Q" horiz-adv-x="1632" 
d="M795 -16q-201 0 -354 88t-233.5 240.5t-80.5 344.5q0 165 59 316t160.5 263t247.5 178.5t311 66.5q149 0 274 -52.5t208.5 -143.5t129.5 -213t46 -261q0 -209 -85.5 -386.5t-236.5 -291.5l164 -190l-78 -66l-172 199q-165 -92 -360 -92zM797 80q163 0 295 72l-197 229
l78 65l203 -237q128 98 199 256.5t71 345.5q0 159 -62.5 288t-187.5 208t-293 79q-145 0 -269 -58.5t-208 -158.5t-131.5 -232.5t-48.5 -279.5q-2 -168 65 -299t193.5 -204.5t292.5 -73.5z" />
    <glyph glyph-name="R" unicode="R" horiz-adv-x="1241" 
d="M102 0l232 1464h381q207 0 328 -92t118 -268q0 -197 -118 -302.5t-316 -125.5l367 -676h-123l-361 668h-288l-105 -668h-115zM336 760h295q418 0 418 344q1 137 -87 201.5t-251 64.5h-279z" />
    <glyph glyph-name="S" unicode="S" 
d="M582 -16q-239 0 -379 118.5t-146 317.5h111q12 -158 118.5 -250t301.5 -92q180 -2 287.5 89t107.5 249q0 119 -76.5 182.5t-275.5 118.5q-219 63 -315.5 143.5t-96.5 224.5q0 177 130 286.5t341 109.5q202 0 323.5 -95.5t131.5 -273.5h-107q-32 274 -356 274
q-168 0 -261 -78t-93 -218q0 -101 74.5 -160t269.5 -115q114 -32 189 -65t130.5 -78.5t80 -105t24.5 -140.5q0 -199 -142 -320.5t-372 -121.5z" />
    <glyph glyph-name="T" unicode="T" horiz-adv-x="1144" 
d="M426 0l215 1370h-453l15 94h1024l-17 -94h-454l-215 -1370h-115z" />
    <glyph glyph-name="U" unicode="U" horiz-adv-x="1396" 
d="M655 -14q-277 0 -403.5 148.5t-83.5 424.5l145 905h113l-143 -905q-37 -241 57 -359t322 -118q196 0 304.5 103.5t143.5 326.5l152 952h114l-153 -966q-81 -512 -568 -512z" />
    <glyph glyph-name="V" unicode="V" horiz-adv-x="1284" 
d="M489 0l-301 1464h111l279 -1349l686 1349h108l-747 -1464h-136z" />
    <glyph glyph-name="W" unicode="W" horiz-adv-x="1841" 
d="M354 0l-159 1464h114l135 -1292l580 1292h74l174 -1296l549 1296h108l-624 -1464h-113l-164 1255l-565 -1255h-109z" />
    <glyph glyph-name="X" unicode="X" horiz-adv-x="1257" 
d="M-20 0l622 764l-350 700h119l315 -624l498 624h123l-576 -714l375 -750h-121l-340 674l-545 -674h-120z" />
    <glyph glyph-name="Y" unicode="Y" horiz-adv-x="1177" 
d="M455 0l102 651l-377 813h121l330 -719l522 719h119l-602 -821l-101 -643h-114z" />
    <glyph glyph-name="Z" unicode="Z" horiz-adv-x="1202" 
d="M-31 0l4 23l1112 1349h-825l14 92h992l-2 -20l-1104 -1350h878l-16 -94h-1053z" />
    <glyph glyph-name="bracketleft" unicode="[" horiz-adv-x="696" 
d="M55 -303l299 1892h422l-14 -88h-311l-273 -1716h314l-15 -88h-422z" />
    <glyph glyph-name="backslash" unicode="\" horiz-adv-x="800" 
d="M539 -303l-299 1892h100l299 -1892h-100z" />
    <glyph glyph-name="bracketright" unicode="]" horiz-adv-x="696" 
d="M-49 -303l14 88h314l270 1716h-313l14 88h420l-299 -1892h-420z" />
    <glyph glyph-name="asciicircum" unicode="^" horiz-adv-x="978" 
d="M143 864l435 600h108l250 -600h-109l-209 502l-360 -502h-115z" />
    <glyph glyph-name="underscore" unicode="_" horiz-adv-x="796" 
d="M-137 -309l16 90h799l-14 -90h-801z" />
    <glyph glyph-name="grave" unicode="`" horiz-adv-x="819" 
d="M487 1239l-149 301h131l102 -301h-84z" />
    <glyph glyph-name="a" unicode="a" horiz-adv-x="1079" 
d="M412 -16q-168 0 -259.5 82t-91.5 215q0 75 26 133t70.5 95t108 61t132.5 34t151 10h276l13 86q24 148 -35 221.5t-213 73.5q-249 0 -309 -227h-109q19 85 63 149t102.5 100t123 53t133.5 17q195 0 288.5 -101t63.5 -294l-61 -385q-30 -183 -23 -307h-104q-3 89 6 176
q-53 -87 -145 -139.5t-207 -52.5zM424 72q138 0 238 75.5t120 206.5l29 176h-260q-90 0 -155.5 -11t-118.5 -38t-80 -77t-27 -123q0 -93 64 -151t190 -58z" />
    <glyph glyph-name="b" unicode="b" horiz-adv-x="1245" 
d="M637 -16q-87 0 -159.5 26.5t-119.5 70t-77 92t-45 101.5l-46 -274h-108l250 1583h108l-116 -749q58 111 167.5 182t243.5 71q186 0 308 -131t122 -346q0 -174 -59.5 -314t-181 -226t-287.5 -86zM633 74q132 0 228 71t143 189.5t47 269.5q0 182 -93 287.5t-239 105.5
q-132 0 -236.5 -71.5t-160.5 -192t-56 -264.5q-1 -182 100.5 -288.5t266.5 -106.5z" />
    <glyph glyph-name="c" unicode="c" horiz-adv-x="1120" 
d="M565 -16q-225 0 -354 134t-129 353q0 135 43.5 251t118 195.5t176 124.5t215.5 45q177 0 292.5 -95.5t125.5 -266.5h-105q-10 133 -94.5 201.5t-222.5 68.5q-195 0 -315.5 -145t-120.5 -379q0 -186 98.5 -290.5t273.5 -104.5q137 0 236 76.5t129 214.5h104
q-37 -183 -165 -283t-306 -100z" />
    <glyph glyph-name="d" unicode="d" horiz-adv-x="1241" 
d="M524 -16q-195 0 -319.5 129t-124.5 344q0 171 65 313.5t191 229.5t289 87q69 0 128 -18t100.5 -46t74 -67t52 -77.5t30.5 -79.5l125 784h108l-196 -1247q-31 -191 -31 -336h-105q0 103 19 240q-60 -115 -166 -185.5t-240 -70.5zM535 76q198 0 320 148.5t124 379.5
q1 180 -96 285.5t-254 105.5q-133 0 -233.5 -71.5t-151.5 -191t-51 -269.5q0 -181 94.5 -284t247.5 -103z" />
    <glyph glyph-name="e" unicode="e" horiz-adv-x="1110" 
d="M190 440q0 -176 87 -270t258 -94q128 0 216.5 56.5t129.5 166.5h108q-50 -154 -171.5 -234.5t-287.5 -80.5q-216 0 -334 124.5t-118 335.5q0 177 68 323.5t194 233t285 86.5q226 0 334.5 -142t70.5 -386l-4 -33h-831q-5 -36 -5 -86zM621 995q-157 0 -267 -101t-147 -280
h723q21 182 -56.5 281.5t-252.5 99.5z" />
    <glyph glyph-name="f" unicode="f" horiz-adv-x="669" 
d="M115 979l14 92h164l33 205q25 161 115 237t221 76q77 0 129 -22l-13 -88q-49 18 -112 18q-196 0 -232 -223l-33 -203h297l-14 -92h-297l-156 -979h-108l156 979h-164z" />
    <glyph glyph-name="g" unicode="g" horiz-adv-x="1249" 
d="M541 127q125 0 227.5 67t160.5 185t58 262q0 160 -95.5 257t-256.5 97q-193 1 -312.5 -143.5t-119.5 -355.5q0 -163 89 -266t249 -103zM1167 1071l-161 -1028q-33 -213 -166 -320.5t-348 -107.5q-208 0 -326.5 89.5t-138.5 234.5h108q19 -109 109 -170.5t243 -61.5
q354 0 410 344l37 225q-63 -107 -164.5 -173t-239.5 -66q-197 0 -318.5 126t-121.5 329q0 162 68 298t192.5 216.5t280.5 80.5q154 0 253.5 -75.5t135.5 -194.5l39 254h108z" />
    <glyph glyph-name="h" unicode="h" horiz-adv-x="1181" 
d="M82 0l250 1583h108l-114 -731q56 100 157.5 167.5t233.5 67.5q180 0 268 -111.5t53 -336.5l-102 -639h-109l105 659q27 165 -36 249.5t-200 84.5q-147 0 -262.5 -96t-142.5 -262l-101 -635h-108z" />
    <glyph glyph-name="i" unicode="i" horiz-adv-x="452" 
d="M354 1300q-32 0 -53.5 22.5t-21.5 53.5q0 32 22.5 55t54.5 23q31 0 53.5 -22t22.5 -54q0 -31 -23 -54.5t-55 -23.5zM86 0l170 1071h109l-170 -1071h-109z" />
    <glyph glyph-name="j" unicode="j" horiz-adv-x="452" 
d="M-131 -383l14 90q88 4 129.5 46t55.5 130l188 1188h109l-189 -1194q-22 -134 -94 -196.5t-213 -63.5zM354 1300q-32 0 -53.5 22.5t-21.5 53.5q0 32 22.5 55t54.5 23q31 0 53.5 -22t22.5 -54q0 -31 -23 -54.5t-55 -23.5z" />
    <glyph glyph-name="k" unicode="k" horiz-adv-x="991" 
d="M82 0l250 1583h108l-157 -999l585 487h140l-598 -493l460 -578h-127l-462 580l-91 -580h-108z" />
    <glyph glyph-name="l" unicode="l" horiz-adv-x="454" 
d="M86 0l250 1583h110l-249 -1583h-111z" />
    <glyph glyph-name="m" unicode="m" horiz-adv-x="1824" 
d="M82 0l123 772q24 150 28 299h103q0 -104 -17 -223q59 108 152 173.5t211 65.5q130 0 209 -66t94 -198q59 125 164.5 194.5t224.5 69.5q83 0 146.5 -25.5t107.5 -80t57 -139.5t-4 -205l-100 -637h-108l102 651q53 342 -221 342q-130 0 -235 -93t-132 -259l-100 -641h-109
l103 657q27 166 -31 251t-191 85q-85 0 -161 -40t-132 -121.5t-73 -190.5l-103 -641h-108z" />
    <glyph glyph-name="n" unicode="n" horiz-adv-x="1181" 
d="M82 0l123 772q24 150 28 299h103q0 -95 -19 -231q60 109 163 178t237 69q180 0 268 -111.5t53 -336.5l-102 -639h-109l105 659q27 165 -36 249.5t-200 84.5q-147 0 -262.5 -96t-142.5 -262l-101 -635h-108z" />
    <glyph glyph-name="o" unicode="o" horiz-adv-x="1185" 
d="M547 -16q-211 0 -340 137t-129 344q0 127 41 240.5t113.5 197.5t178.5 133t228 49q214 0 341.5 -136t127.5 -341q0 -176 -69 -318t-197.5 -224t-294.5 -82zM551 76q135 0 237 70t154.5 189.5t52.5 270.5q0 170 -95.5 279.5t-264.5 109.5q-134 0 -237 -71.5t-156.5 -191.5
t-53.5 -267q0 -171 97 -280t266 -109z" />
    <glyph glyph-name="p" unicode="p" horiz-adv-x="1245" 
d="M735 1087q186 0 308 -131t122 -346q0 -174 -59.5 -314t-181 -226t-287.5 -86q-87 0 -159.5 26t-119.5 70t-77 92t-45 100l-105 -645h-108l176 1108q30 197 34 336h103q0 -95 -23 -252q60 121 172.5 194.5t249.5 73.5zM633 74q132 0 228 71t143 189.5t47 269.5
q0 182 -93 287.5t-239 105.5q-132 0 -236.5 -71.5t-160.5 -192t-56 -264.5q-1 -182 100.5 -288.5t266.5 -106.5z" />
    <glyph glyph-name="q" unicode="q" horiz-adv-x="1247" 
d="M825 -373l95 598q-62 -111 -162 -176t-234 -65q-195 0 -319.5 129t-124.5 344q0 171 65 313.5t191 229.5t289 87q69 0 128 -18t100.5 -46t74 -67t52 -77.5t30.5 -79.5l43 272h108l-227 -1444h-109zM535 76q198 0 320 148.5t124 379.5q1 180 -96 285.5t-254 105.5
q-133 0 -233.5 -71.5t-151.5 -191t-51 -269.5q0 -181 94.5 -284t247.5 -103z" />
    <glyph glyph-name="r" unicode="r" horiz-adv-x="710" 
d="M82 0l123 772q24 150 28 299h103q0 -91 -19 -240q42 77 91.5 129t130 87t184.5 38l-16 -102q-363 -14 -424 -405l-93 -578h-108z" />
    <glyph glyph-name="s" unicode="s" horiz-adv-x="948" 
d="M442 -18q-190 0 -294 90.5t-109 246.5h106q17 -245 299 -245q126 0 199.5 56t73.5 161q0 83 -55 128t-193 83q-175 47 -248.5 111t-73.5 180q0 139 104.5 216.5t256.5 77.5q157 0 255 -70.5t109 -219.5h-104q-8 96 -75 147t-187 51q-117 0 -185.5 -50.5t-68.5 -145.5
q0 -77 54 -119.5t196 -81.5q84 -22 139 -45t98.5 -57.5t63.5 -83.5t20 -117q0 -146 -106 -229.5t-275 -83.5z" />
    <glyph glyph-name="t" unicode="t" horiz-adv-x="679" 
d="M391 -14q-134 0 -193 78.5t-38 214.5l110 700h-157l14 92h158l39 244h108l-39 -244h279l-15 -92h-276l-113 -705q-32 -196 138 -196q64 0 131 24l-15 -92q-52 -24 -131 -24z" />
    <glyph glyph-name="u" unicode="u" horiz-adv-x="1173" 
d="M1085 1071l-120 -772q-28 -189 -25 -299h-104q-3 100 16 229q-60 -109 -161.5 -177t-235.5 -68q-178 0 -265 114t-53 334l103 639h108l-104 -659q-26 -164 35 -249t196 -85q147 0 261 96t141 262l100 635h108z" />
    <glyph glyph-name="v" unicode="v" horiz-adv-x="1032" 
d="M365 0l-236 1071h115l209 -967l501 967h117l-565 -1071h-141z" />
    <glyph glyph-name="w" unicode="w" horiz-adv-x="1554" 
d="M295 0l-158 1071h115l129 -944l434 944h94l135 -944l424 944h115l-493 -1071h-125l-129 899l-418 -899h-123z" />
    <glyph glyph-name="x" unicode="x" horiz-adv-x="1001" 
d="M-43 0l479 563l-286 508h122l240 -430l367 430h122l-438 -520l309 -551h-124l-263 475l-403 -475h-125z" />
    <glyph glyph-name="y" unicode="y" horiz-adv-x="1011" 
d="M123 -373l268 471l-262 973h111l225 -854l467 854h117l-811 -1444h-115z" />
    <glyph glyph-name="z" unicode="z" horiz-adv-x="956" 
d="M-39 0l4 18l828 961h-617l14 92h791l-4 -20l-819 -955h659l-16 -96h-840z" />
    <glyph glyph-name="braceleft" unicode="{" horiz-adv-x="743" 
d="M522 -299q-213 12 -291 122.5t-6 307.5l78 219q42 120 -4.5 193t-200.5 80l13 82q156 -1 222.5 60.5t61.5 190.5l-8 242q-7 215 98.5 303.5t335.5 91.5l-12 -84q-89 -3 -147 -18t-100 -50.5t-59 -96t-14 -152.5l9 -236q3 -135 -59.5 -205.5t-178.5 -93.5
q107 -29 144 -111t-7 -216l-73 -209q-57 -169 -6 -246t219 -88z" />
    <glyph glyph-name="bar" unicode="|" horiz-adv-x="493" 
d="M227 -303v1892h90v-1892h-90z" />
    <glyph glyph-name="braceright" unicode="}" horiz-adv-x="743" 
d="M252 1593q212 -12 289.5 -122.5t7.5 -307.5l-80 -221q-42 -117 5.5 -192t199.5 -86l-10 -82q-156 6 -223 -53.5t-64 -190.5l10 -240q7 -216 -99.5 -305t-336.5 -92l14 84q89 3 147 18t100 50.5t59 96t14 152.5l-9 242q-3 137 59.5 203.5t176.5 85.5q-107 31 -144.5 114.5
t5.5 208.5l78 218q56 169 5 245.5t-218 87.5z" />
    <glyph glyph-name="asciitilde" unicode="~" horiz-adv-x="897" 
d="M90 475q20 105 76 165t133 60q44 0 90 -19t77.5 -42t69 -42t66.5 -19q47 0 80.5 35t44.5 92h90q-20 -106 -76.5 -166t-130.5 -60q-46 0 -93.5 19t-79.5 42.5t-69 42.5t-65 19q-45 0 -78 -35t-45 -92h-90z" />
    <glyph glyph-name="uni00A0" unicode="&#xa0;" horiz-adv-x="1044" 
 />
    <glyph glyph-name="exclamdown" unicode="&#xa1;" horiz-adv-x="557" 
d="M371 858l-158 -1098h-121l193 1098h86zM373 1235q35 0 60.5 -25.5t25.5 -60.5q0 -37 -24.5 -62.5t-61.5 -25.5q-36 0 -62 26t-26 62q0 35 25.5 60.5t62.5 25.5z" />
    <glyph glyph-name="cent" unicode="&#xa2;" horiz-adv-x="1128" 
d="M569 -16h-26l-41 -260h-82l43 270q-179 29 -280 156t-101 319q0 135 43.5 250.5t118 195t176 125.5t215.5 47l33 201h82l-33 -207q147 -19 241 -112t103 -244h-105q-7 114 -76 182t-178 84l-145 -915h14q136 0 235.5 72.5t133.5 218.5h104q-26 -127 -97 -215t-166.5 -128
t-211.5 -40zM195 469q0 -160 73.5 -259.5t208.5 -125.5l144 911q-189 -6 -307.5 -152t-118.5 -374z" />
    <glyph glyph-name="sterling" unicode="&#xa3;" horiz-adv-x="1206" 
d="M121 670l14 84h150q-13 152 -13 219q0 108 31 200t90 161t153 108t212 39q191 0 295.5 -98.5t107.5 -276.5h-110q-6 130 -78 204t-219 74q-183 0 -276 -113t-93 -300q0 -77 12 -217h465l-12 -84h-447q7 -79 7 -144q0 -186 -78 -305q64 -12 214 -75.5t224 -63.5
q87 0 147 53.5t74 159.5h99q-19 -146 -104.5 -228.5t-219.5 -82.5q-63 0 -137 23.5t-130 51t-120 51t-109 23.5q-65 0 -108 -37.5t-56 -95.5h-100q16 79 74 144t143 79q80 116 80 293q0 48 -8 154h-174z" />
    <glyph glyph-name="yen" unicode="&#xa5;" horiz-adv-x="1122" 
d="M160 625l12 80h352l-321 759h119l286 -696l488 696h114l-536 -759h348l-12 -80h-369l-31 -199h367l-12 -80h-367l-53 -346h-113l55 346h-372l12 80h373l30 199h-370z" />
    <glyph glyph-name="brokenbar" unicode="&#xa6;" horiz-adv-x="493" 
d="M227 -303v911h90v-911h-90zM227 752v837h90v-837h-90z" />
    <glyph glyph-name="section" unicode="&#xa7;" horiz-adv-x="1095" 
d="M442 -281q-154 0 -256.5 81t-105.5 233h110q8 -106 74.5 -162.5t186.5 -56.5q112 -2 187 61.5t75 173.5q0 85 -60 141.5t-215 114.5q-167 60 -249.5 135t-82.5 195q0 63 25.5 113.5t70.5 84.5t98 56.5t118 36.5q-109 85 -109 229q0 141 108.5 234.5t266.5 93.5
q145 0 235 -75t93 -224h-111q-1 100 -60 152.5t-167 52.5q-110 2 -183 -58.5t-73 -169.5q0 -82 55 -140t203 -114q167 -63 248.5 -138t81.5 -200q0 -215 -297 -282q52 -38 83 -98t31 -132q0 -152 -108 -245t-273 -93zM631 340q73 11 129.5 35.5t95.5 73t39 114.5
q0 82 -62 139t-188 107l-156 61q-55 -8 -101 -24t-86 -42t-62.5 -67.5t-22.5 -93.5q0 -81 61.5 -136t188.5 -104z" />
    <glyph glyph-name="dieresis" unicode="&#xa8;" horiz-adv-x="819" 
d="M369 1303q-31 0 -52.5 21t-21.5 52t22.5 53.5t53.5 22.5t52 -21.5t21 -52.5t-21.5 -53t-53.5 -22zM711 1303q-31 0 -52.5 21t-21.5 52t22 53.5t54 22.5q31 0 52 -21.5t21 -52.5t-22 -53t-53 -22z" />
    <glyph glyph-name="copyright" unicode="&#xa9;" horiz-adv-x="1728" 
d="M891 309q-184 0 -291.5 114.5t-107.5 305.5v14q0 185 113.5 302.5t283.5 117.5q141 0 236.5 -70.5t113.5 -201.5h-106q-17 91 -79 138.5t-165 47.5q-127 0 -207 -91t-80 -243v-12q0 -155 77.5 -244.5t211.5 -89.5q103 0 171 53t85 150h100q-18 -138 -115 -214.5
t-241 -76.5zM885 47q137 0 261.5 52t216 142t146 219t54.5 275q0 145 -53 272t-143 216.5t-214.5 141.5t-263.5 52t-264 -52t-216 -142.5t-144.5 -218.5t-53.5 -273q0 -146 54.5 -274.5t146.5 -217.5t215 -140.5t258 -51.5zM885 -18q-154 0 -292.5 58t-239 157t-159.5 238.5
t-59 295.5q0 154 59 293.5t159.5 240t240.5 159.5t295 59q157 0 296.5 -58.5t238.5 -159t156.5 -238.5t57.5 -292q0 -126 -37.5 -241.5t-106.5 -208t-161.5 -161t-207.5 -105.5t-240 -37z" />
    <glyph glyph-name="ordfeminine" unicode="&#xaa;" horiz-adv-x="856" 
d="M391 618q-127 0 -196.5 63t-69.5 165q0 268 395 268h193l10 62q16 110 -26 164.5t-156 54.5q-182 0 -226 -166h-104q20 88 74 146.5t119.5 82t140.5 23.5q156 0 230 -80.5t50 -233.5l-45 -293q-23 -141 -16 -241h-100q-3 64 2 121q-44 -64 -115 -100t-160 -36zM412 700
q105 0 179 54.5t91 152.5l20 131h-186q-139 0 -213 -40.5t-74 -145.5q0 -68 46.5 -110t136.5 -42z" />
    <glyph glyph-name="guillemotleft" unicode="&#xab;" horiz-adv-x="917" 
d="M328 170l-219 367l333 362h115l-332 -369l209 -360h-106zM651 170l-219 367l334 362h115l-332 -369l209 -360h-107z" />
    <glyph glyph-name="registered" unicode="&#xae;" horiz-adv-x="1052" 
d="M446 805v467h154q79 0 124.5 -35t45.5 -102v-2q0 -102 -104 -125l133 -203h-84l-125 190h-68v-190h-76zM522 1053h76q98 0 98 77v3q0 79 -98 79h-76v-159zM598 635q167 0 279 112t112 283q0 172 -111 284.5t-280 112.5q-167 0 -279 -114t-112 -285t112.5 -282t278.5 -111
zM598 578q-190 0 -322.5 129.5t-132.5 320.5q0 189 132.5 322t322.5 133q193 0 324 -131.5t131 -321.5q0 -191 -132 -321.5t-323 -130.5z" />
    <glyph glyph-name="macron" unicode="&#xaf;" horiz-adv-x="819" 
d="M285 1325l12 86h498l-15 -86h-495z" />
    <glyph glyph-name="degree" unicode="&#xb0;" horiz-adv-x="833" 
d="M508 954q95 0 157 65.5t62 168.5q0 91 -59 153t-148 62q-94 0 -159.5 -66.5t-65.5 -167.5q0 -90 61 -152.5t152 -62.5zM506 874q-127 0 -216 85.5t-89 207.5q0 131 93.5 223.5t227.5 92.5q127 0 215 -85t88 -208q0 -131 -92.5 -223.5t-226.5 -92.5z" />
    <glyph glyph-name="plusminus" unicode="&#xb1;" horiz-adv-x="1044" 
d="M428 268l66 408h-400l15 92h399l65 408h99l-66 -408h400l-17 -92h-399l-64 -408h-98zM-12 0l14 92h897l-16 -92h-895z" />
    <glyph glyph-name="twosuperior" unicode="&#xb2;" horiz-adv-x="583" 
d="M61 762l2 18l306 260q83 70 125.5 124t42.5 118q-2 54 -36 86.5t-89 32.5q-134 0 -174 -160h-84q20 109 92 170.5t172 61.5q90 0 148 -48.5t61 -138.5q1 -79 -47 -142.5t-152 -150.5l-195 -159h334l-12 -72h-494z" />
    <glyph glyph-name="threesuperior" unicode="&#xb3;" horiz-adv-x="630" 
d="M375 754q-109 0 -181 53.5t-75 161.5h86q5 -67 49 -106.5t121 -39.5q71 0 118.5 38.5t47.5 109.5q0 56 -35.5 89.5t-99.5 33.5h-50l11 67h57q63 0 102 32t39 93q0 55 -34.5 86t-94.5 31q-67 0 -112 -36.5t-60 -98.5h-82q15 92 85.5 148.5t170.5 56.5q92 0 153.5 -45.5
t61.5 -135.5q0 -61 -36 -104.5t-101 -63.5q54 -13 86.5 -53.5t32.5 -103.5q0 -99 -75.5 -156t-184.5 -57z" />
    <glyph glyph-name="acute" unicode="&#xb4;" horiz-adv-x="819" 
d="M465 1239l180 301h139l-229 -301h-90z" />
    <glyph glyph-name="paragraph" unicode="&#xb6;" horiz-adv-x="1144" 
d="M436 -205l148 928h-9q-183 0 -292 87.5t-109 244.5q0 135 64.5 229t169.5 137t241 43h449l-264 -1669h-95l252 1591h-211l-252 -1591h-92z" />
    <glyph glyph-name="periodcentered" unicode="&#xb7;" horiz-adv-x="468" 
d="M252 575q-37 0 -62.5 26t-25.5 63q0 35 25.5 60.5t60.5 25.5q37 0 62.5 -25.5t25.5 -60.5q0 -37 -25.5 -63t-60.5 -26z" />
    <glyph glyph-name="cedilla" unicode="&#xb8;" horiz-adv-x="819" 
d="M293 -434q-82 0 -135 40.5t-60 119.5h90q3 -39 31.5 -62.5t73.5 -23.5q42 0 72 23t30 73q0 36 -24 55t-62 19q-34 0 -67 -19l-41 45l114 164h86l-88 -121q70 14 125.5 -24.5t55.5 -114.5q0 -83 -55 -128.5t-146 -45.5z" />
    <glyph glyph-name="onesuperior" unicode="&#xb9;" horiz-adv-x="448" 
d="M256 762l96 602l-198 -123l12 86l219 137h76l-113 -702h-92z" />
    <glyph glyph-name="ordmasculine" unicode="&#xba;" horiz-adv-x="972" 
d="M528 618q-169 0 -269.5 105t-100.5 268q0 100 32.5 190t90 155.5t141 104t180.5 38.5q169 0 269 -106t100 -267q0 -211 -123.5 -349.5t-319.5 -138.5zM532 705q152 0 241 113t89 286q0 128 -70 208.5t-196 80.5q-151 0 -241.5 -115t-90.5 -287q0 -127 70.5 -206.5
t197.5 -79.5z" />
    <glyph glyph-name="guillemotright" unicode="&#xbb;" horiz-adv-x="917" 
d="M586 899l219 -367l-334 -362h-115l332 369l-209 360h107zM262 899l219 -367l-334 -362h-114l332 369l-209 360h106z" />
    <glyph glyph-name="onequarter" unicode="&#xbc;" horiz-adv-x="1378" 
d="M262 762l96 602l-198 -123l12 86l219 137h76l-113 -702h-92zM51 0l1215 1464h96l-1215 -1464h-96zM1051 0l24 152h-366l4 32l417 518h121l-77 -481h96l-10 -69h-97l-24 -152h-88zM827 221h260l64 408z" />
    <glyph glyph-name="onehalf" unicode="&#xbd;" horiz-adv-x="1392" 
d="M8 0l1215 1464h96l-1215 -1464h-96zM262 762l96 602l-198 -123l12 86l219 137h76l-113 -702h-92zM741 0l4 20l306 261q59 50 89 79t53.5 71.5t23.5 88.5q0 54 -34.5 86.5t-88.5 32.5q-137 0 -174 -160h-84q18 110 90 171t172 61q92 0 151.5 -50t59.5 -139q0 -35 -11 -67
t-24.5 -55.5t-45.5 -56t-53 -51.5t-69 -59l-195 -161h338l-12 -72h-496z" />
    <glyph glyph-name="threequarters" unicode="&#xbe;" horiz-adv-x="1431" 
d="M381 754q-109 0 -181 53.5t-75 161.5h86q5 -67 49 -106.5t121 -39.5q71 0 118.5 38.5t47.5 109.5q0 56 -35.5 89.5t-99.5 33.5h-50l11 67h57q63 0 102 32t39 93q0 55 -34.5 86t-94.5 31q-67 0 -112 -36.5t-60 -98.5h-82q15 92 85.5 148.5t170.5 56.5q92 0 153.5 -45.5
t61.5 -135.5q0 -61 -36 -104.5t-101 -63.5q54 -13 86.5 -53.5t32.5 -103.5q0 -99 -75.5 -156t-184.5 -57zM147 0l1215 1464h96l-1214 -1464h-97zM1106 0l24 152h-366l4 32l418 518h121l-78 -481h96l-10 -69h-96l-25 -152h-88zM883 221h260l63 408z" />
    <glyph glyph-name="questiondown" unicode="&#xbf;" horiz-adv-x="976" 
d="M637 858l-19 -125q-6 -38 -18.5 -73t-23.5 -60t-36.5 -55.5t-38 -45.5t-49.5 -46t-48 -40t-56 -44q-36 -27 -50.5 -38t-43.5 -36t-41.5 -40t-31.5 -40.5t-27 -48t-14.5 -52.5t-6.5 -63q0 -103 72 -159t186 -56q132 0 221.5 79t116.5 228h105q-27 -188 -151.5 -293.5
t-301.5 -105.5q-163 0 -260.5 83.5t-97.5 223.5q0 30 4.5 58t10 51t18 46.5t22.5 40t29 37.5t31 33.5t36.5 32.5t37.5 30t41 31t40 31q53 40 84.5 66.5t64.5 63.5t51.5 78.5t26.5 92.5l19 115h98zM629 1235q36 0 61 -25t25 -61q0 -37 -24.5 -62.5t-59.5 -25.5
q-37 0 -62.5 25.5t-25.5 62.5q0 35 25.5 60.5t60.5 25.5z" />
    <glyph glyph-name="Agrave" unicode="&#xc0;" horiz-adv-x="1312" 
d="M1061 0l-92 449h-660l-229 -449h-111l754 1464h151l297 -1464h-110zM782 1372l-426 -831h594zM778 1579l-149 250h133l100 -250h-84z" />
    <glyph glyph-name="Aacute" unicode="&#xc1;" horiz-adv-x="1312" 
d="M1061 0l-92 449h-660l-229 -449h-111l754 1464h151l297 -1464h-110zM782 1372l-426 -831h594zM754 1579l151 250h139l-198 -250h-92z" />
    <glyph glyph-name="Acircumflex" unicode="&#xc2;" horiz-adv-x="1312" 
d="M1061 0l-92 449h-660l-229 -449h-111l754 1464h151l297 -1464h-110zM782 1372l-426 -831h594zM522 1579l256 250h103l190 -250h-82l-168 160l-211 -160h-88z" />
    <glyph glyph-name="Atilde" unicode="&#xc3;" horiz-adv-x="1312" 
d="M1061 0l-92 449h-660l-229 -449h-111l754 1464h151l297 -1464h-110zM782 1372l-426 -831h594zM942 1585q-42 0 -89 27.5t-89.5 54.5t-71.5 27q-35 0 -64.5 -29.5t-41.5 -81.5h-82q18 98 69 150.5t121 52.5q41 0 87.5 -27t89.5 -53.5t73 -26.5q34 0 64 28.5t41 80.5h81
q-20 -97 -70 -150t-118 -53z" />
    <glyph glyph-name="Adieresis" unicode="&#xc4;" horiz-adv-x="1312" 
d="M1061 0l-92 449h-660l-229 -449h-111l754 1464h151l297 -1464h-110zM782 1372l-426 -831h594zM629 1614q-32 0 -54 21.5t-22 52.5t22.5 53t53.5 22q32 0 52.5 -21t20.5 -52t-21.5 -53.5t-51.5 -22.5zM997 1614q-31 0 -52 21.5t-21 52.5t21.5 53t53.5 22q31 0 52.5 -21
t21.5 -52t-22.5 -53.5t-53.5 -22.5z" />
    <glyph glyph-name="Aring" unicode="&#xc5;" horiz-adv-x="1312" 
d="M1061 0l-92 449h-660l-229 -449h-111l754 1464h151l297 -1464h-110zM782 1372l-426 -831h594zM813 1544q-84 0 -141.5 57t-57.5 136q0 83 60.5 140.5t144.5 57.5t140.5 -55t56.5 -135q0 -85 -59 -143t-144 -58zM813 1610q56 0 91.5 37.5t35.5 97.5q0 56 -33 91.5
t-88 35.5q-54 0 -91.5 -38.5t-37.5 -96.5q0 -55 34 -91t89 -36z" />
    <glyph glyph-name="AE" unicode="&#xc6;" horiz-adv-x="1937" 
d="M-27 0l955 1464h1016l-17 -94h-717l-90 -571h590l-14 -94h-590l-96 -611h764l-15 -94h-878l69 451h-565l-291 -451h-121zM983 1370l-539 -829h521l131 829h-113z" />
    <glyph glyph-name="Ccedilla" unicode="&#xc7;" horiz-adv-x="1484" 
d="M610 -434q-81 0 -134 40.5t-60 119.5h90q3 -39 31 -62.5t73 -23.5q42 0 72.5 23t30.5 73q0 36 -24 55t-62 19q-35 0 -68 -19l-41 45l111 160q-235 38 -368.5 206.5t-133.5 430.5q0 173 56 328t155.5 270.5t246 183.5t316.5 68q143 0 259 -51.5t193 -157t91 -250.5h-107
q-31 177 -145 272t-295 95q-198 0 -348 -103.5t-226.5 -274t-76.5 -380.5q0 -263 137 -409t389 -146q191 0 327.5 103.5t196.5 289.5h109q-62 -228 -233.5 -357.5t-399.5 -129.5q-32 0 -63 2l-78 -107q70 14 125 -24.5t55 -114.5q0 -83 -55 -128.5t-146 -45.5z" />
    <glyph glyph-name="Egrave" unicode="&#xc8;" horiz-adv-x="1165" 
d="M745 1579l-149 250h133l100 -250h-84zM102 0l232 1464h831l-16 -94h-717l-90 -571h590l-14 -94h-590l-97 -611h766l-16 -94h-879z" />
    <glyph glyph-name="Eacute" unicode="&#xc9;" horiz-adv-x="1165" 
d="M694 1579l152 250h139l-199 -250h-92zM102 0l232 1464h831l-16 -94h-717l-90 -571h590l-14 -94h-590l-97 -611h766l-16 -94h-879z" />
    <glyph glyph-name="Ecircumflex" unicode="&#xca;" horiz-adv-x="1165" 
d="M473 1579l256 250h102l191 -250h-82l-168 160l-211 -160h-88zM102 0l232 1464h831l-16 -94h-717l-90 -571h590l-14 -94h-590l-97 -611h766l-16 -94h-879z" />
    <glyph glyph-name="Edieresis" unicode="&#xcb;" horiz-adv-x="1165" 
d="M102 0l232 1464h831l-16 -94h-717l-90 -571h590l-14 -94h-590l-97 -611h766l-16 -94h-879zM582 1614q-32 0 -54 21.5t-22 52.5t22.5 53t53.5 22q32 0 52.5 -21t20.5 -52t-21.5 -53.5t-51.5 -22.5zM950 1614q-31 0 -52 21.5t-21 52.5t21.5 53t53.5 22q31 0 52.5 -21
t21.5 -52t-22.5 -53.5t-53.5 -22.5z" />
    <glyph glyph-name="Igrave" unicode="&#xcc;" horiz-adv-x="514" 
d="M113 0l231 1464h115l-232 -1464h-114zM389 1579l-149 250h133l100 -250h-84z" />
    <glyph glyph-name="Iacute" unicode="&#xcd;" horiz-adv-x="514" 
d="M113 0l231 1464h115l-232 -1464h-114zM362 1579l152 250h139l-198 -250h-93z" />
    <glyph glyph-name="Icircumflex" unicode="&#xce;" horiz-adv-x="514" 
d="M113 0l231 1464h115l-232 -1464h-114zM139 1579l256 250h103l190 -250h-82l-168 160l-211 -160h-88z" />
    <glyph glyph-name="Idieresis" unicode="&#xcf;" horiz-adv-x="514" 
d="M113 0l231 1464h115l-232 -1464h-114zM252 1614q-32 0 -54 21.5t-22 52.5t22.5 53t53.5 22q32 0 53 -21t21 -52t-21.5 -53.5t-52.5 -22.5zM621 1614q-31 0 -52.5 21.5t-21.5 52.5t22 53t54 22q31 0 52 -21t21 -52t-22 -53.5t-53 -22.5z" />
    <glyph glyph-name="Eth" unicode="&#xd0;" horiz-adv-x="1431" 
d="M80 690l14 90h154l108 684h355q168 0 296.5 -47t207.5 -132t118.5 -197t40.5 -248q0 -185 -57.5 -340t-163.5 -266t-264.5 -172.5t-353.5 -61.5h-410l108 690h-153zM254 94h278q339 0 532 198t193 548q0 116 -32 210.5t-96.5 167t-172 112.5t-249.5 40h-250l-95 -590h426
l-14 -90h-426z" />
    <glyph glyph-name="Ntilde" unicode="&#xd1;" horiz-adv-x="1460" 
d="M1044 1585q-42 0 -89 27.5t-89 54.5t-71 27q-35 0 -65 -29.5t-42 -81.5h-82q18 98 69 150.5t122 52.5q41 0 87.5 -27t89.5 -53.5t73 -26.5q34 0 63.5 28.5t40.5 80.5h82q-20 -97 -70.5 -150t-118.5 -53zM102 0l232 1464h151l615 -1306l209 1306h108l-231 -1464h-131
l-631 1337l-211 -1337h-111z" />
    <glyph glyph-name="Ograve" unicode="&#xd2;" horiz-adv-x="1632" 
d="M907 1579l-149 250h133l100 -250h-84zM1563 811q0 -226 -98.5 -415t-275.5 -300.5t-394 -111.5q-201 0 -354 88t-233.5 240.5t-80.5 344.5q0 165 59 316t160.5 263t247.5 178.5t311 66.5q149 0 274 -52.5t208.5 -143.5t129.5 -213t46 -261zM1446 811q0 159 -62.5 288
t-187.5 208t-293 79q-145 0 -269 -58.5t-208 -158.5t-131.5 -232.5t-48.5 -279.5q-2 -168 65 -299t193.5 -204.5t292.5 -73.5q142 0 264 57.5t206 156.5t131.5 233t47.5 284z" />
    <glyph glyph-name="Oacute" unicode="&#xd3;" horiz-adv-x="1632" 
d="M885 1579l151 250h140l-199 -250h-92zM1563 811q0 -226 -98.5 -415t-275.5 -300.5t-394 -111.5q-201 0 -354 88t-233.5 240.5t-80.5 344.5q0 165 59 316t160.5 263t247.5 178.5t311 66.5q149 0 274 -52.5t208.5 -143.5t129.5 -213t46 -261zM1446 811q0 159 -62.5 288
t-187.5 208t-293 79q-145 0 -269 -58.5t-208 -158.5t-131.5 -232.5t-48.5 -279.5q-2 -168 65 -299t193.5 -204.5t292.5 -73.5q142 0 264 57.5t206 156.5t131.5 233t47.5 284z" />
    <glyph glyph-name="Ocircumflex" unicode="&#xd4;" horiz-adv-x="1632" 
d="M666 1579l256 250h102l190 -250h-81l-168 160l-211 -160h-88zM1563 811q0 -226 -98.5 -415t-275.5 -300.5t-394 -111.5q-201 0 -354 88t-233.5 240.5t-80.5 344.5q0 165 59 316t160.5 263t247.5 178.5t311 66.5q149 0 274 -52.5t208.5 -143.5t129.5 -213t46 -261z
M1446 811q0 159 -62.5 288t-187.5 208t-293 79q-145 0 -269 -58.5t-208 -158.5t-131.5 -232.5t-48.5 -279.5q-2 -168 65 -299t193.5 -204.5t292.5 -73.5q142 0 264 57.5t206 156.5t131.5 233t47.5 284z" />
    <glyph glyph-name="Otilde" unicode="&#xd5;" horiz-adv-x="1632" 
d="M1073 1585q-42 0 -89 27.5t-89.5 54.5t-71.5 27q-35 0 -64.5 -29.5t-41.5 -81.5h-82q18 98 69 150.5t121 52.5q41 0 87.5 -27t89.5 -53.5t73 -26.5q34 0 64 28.5t41 80.5h82q-20 -97 -70.5 -150t-118.5 -53zM1563 811q0 -226 -98.5 -415t-275.5 -300.5t-394 -111.5
q-201 0 -354 88t-233.5 240.5t-80.5 344.5q0 165 59 316t160.5 263t247.5 178.5t311 66.5q149 0 274 -52.5t208.5 -143.5t129.5 -213t46 -261zM1446 811q0 159 -62.5 288t-187.5 208t-293 79q-145 0 -269 -58.5t-208 -158.5t-131.5 -232.5t-48.5 -279.5q-2 -168 65 -299
t193.5 -204.5t292.5 -73.5q142 0 264 57.5t206 156.5t131.5 233t47.5 284z" />
    <glyph glyph-name="Odieresis" unicode="&#xd6;" horiz-adv-x="1632" 
d="M762 1614q-32 0 -54 21.5t-22 52.5t22.5 53t53.5 22q32 0 53 -21t21 -52t-21.5 -53.5t-52.5 -22.5zM1130 1614q-31 0 -52 21.5t-21 52.5t22 53t54 22q31 0 52 -21t21 -52t-22.5 -53.5t-53.5 -22.5zM1563 811q0 -226 -98.5 -415t-275.5 -300.5t-394 -111.5q-201 0 -354 88
t-233.5 240.5t-80.5 344.5q0 165 59 316t160.5 263t247.5 178.5t311 66.5q149 0 274 -52.5t208.5 -143.5t129.5 -213t46 -261zM1446 811q0 159 -62.5 288t-187.5 208t-293 79q-145 0 -269 -58.5t-208 -158.5t-131.5 -232.5t-48.5 -279.5q-2 -168 65 -299t193.5 -204.5
t292.5 -73.5q142 0 264 57.5t206 156.5t131.5 233t47.5 284z" />
    <glyph glyph-name="multiply" unicode="&#xd7;" horiz-adv-x="989" 
d="M131 293l-57 65l368 330l-284 328l67 63l287 -329l369 329l59 -67l-371 -330l287 -328l-70 -61l-286 328z" />
    <glyph glyph-name="Oslash" unicode="&#xd8;" horiz-adv-x="1632" 
d="M127 -49l-59 59l202 209q-143 179 -143 438q0 165 59 316t160.5 263t247.5 178.5t311 66.5q258 0 436 -154l181 186l57 -61l-178 -184q162 -188 162 -457q0 -226 -98.5 -415t-275.5 -300.5t-394 -111.5q-288 0 -469 172zM1446 811q0 227 -117 381l-930 -961
q148 -151 398 -151q142 0 264 57.5t206 156.5t131.5 233t47.5 284zM246 657q-3 -215 98 -362l928 960q-147 131 -369 131q-145 0 -269 -58.5t-208 -158.5t-131.5 -232.5t-48.5 -279.5z" />
    <glyph glyph-name="Ugrave" unicode="&#xd9;" horiz-adv-x="1396" 
d="M819 1579l-149 250h133l100 -250h-84zM655 -14q-277 0 -403.5 148.5t-83.5 424.5l145 905h113l-143 -905q-37 -241 57 -359t322 -118q196 0 304.5 103.5t143.5 326.5l152 952h114l-153 -966q-81 -512 -568 -512z" />
    <glyph glyph-name="Uacute" unicode="&#xda;" horiz-adv-x="1396" 
d="M788 1579l152 250h139l-198 -250h-93zM655 -14q-277 0 -403.5 148.5t-83.5 424.5l145 905h113l-143 -905q-37 -241 57 -359t322 -118q196 0 304.5 103.5t143.5 326.5l152 952h114l-153 -966q-81 -512 -568 -512z" />
    <glyph glyph-name="Ucircumflex" unicode="&#xdb;" horiz-adv-x="1396" 
d="M571 1579l256 250h103l190 -250h-82l-168 160l-211 -160h-88zM655 -14q-277 0 -403.5 148.5t-83.5 424.5l145 905h113l-143 -905q-37 -241 57 -359t322 -118q196 0 304.5 103.5t143.5 326.5l152 952h114l-153 -966q-81 -512 -568 -512z" />
    <glyph glyph-name="Udieresis" unicode="&#xdc;" horiz-adv-x="1396" 
d="M655 -14q-277 0 -403.5 148.5t-83.5 424.5l145 905h113l-143 -905q-37 -241 57 -359t322 -118q196 0 304.5 103.5t143.5 326.5l152 952h114l-153 -966q-81 -512 -568 -512zM680 1614q-32 0 -54 21.5t-22 52.5t22.5 53t53.5 22q32 0 53 -21t21 -52t-21.5 -53.5
t-52.5 -22.5zM1049 1614q-31 0 -52.5 21.5t-21.5 52.5t22 53t54 22q31 0 52 -21t21 -52t-22 -53.5t-53 -22.5z" />
    <glyph glyph-name="Yacute" unicode="&#xdd;" horiz-adv-x="1177" 
d="M455 0l102 651l-377 813h121l330 -719l522 719h119l-602 -821l-101 -643h-114zM676 1579l151 250h140l-199 -250h-92z" />
    <glyph glyph-name="Thorn" unicode="&#xde;" horiz-adv-x="1163" 
d="M449 1464l-48 -295h261q208 0 330 -93t122 -271q0 -97 -27.5 -174t-75.5 -128.5t-116 -86t-145.5 -49.5t-167.5 -15h-310l-55 -352h-115l232 1464h115zM651 1075h-264l-100 -631h301q411 0 411 361q3 270 -348 270z" />
    <glyph glyph-name="germandbls" unicode="&#xdf;" horiz-adv-x="1165" 
d="M604 -14q-132 0 -225 49l14 90q93 -49 207 -49q162 0 257 107.5t95 285.5q0 167 -105.5 273.5t-277.5 109.5l17 92q106 2 188.5 35t134.5 104.5t52 173.5q0 115 -71 177.5t-188 64.5q-133 0 -217 -83t-106 -228l-189 -1188h-108l188 1194q27 182 146.5 287.5t288.5 105.5
q151 0 255.5 -88t104.5 -242q0 -138 -89 -233t-231 -127q140 -40 230 -155t90 -277q0 -220 -125.5 -349.5t-335.5 -129.5z" />
    <glyph glyph-name="agrave" unicode="&#xe0;" horiz-adv-x="1079" 
d="M412 -16q-168 0 -259.5 82t-91.5 215q0 75 26 133t70.5 95t108 61t132.5 34t151 10h276l13 86q24 148 -35 221.5t-213 73.5q-249 0 -309 -227h-109q19 85 63 149t102.5 100t123 53t133.5 17q195 0 288.5 -101t63.5 -294l-61 -385q-30 -183 -23 -307h-104q-3 89 6 176
q-53 -87 -145 -139.5t-207 -52.5zM424 72q138 0 238 75.5t120 206.5l29 176h-260q-90 0 -155.5 -11t-118.5 -38t-80 -77t-27 -123q0 -93 64 -151t190 -58zM584 1239l-150 301h131l103 -301h-84z" />
    <glyph glyph-name="aacute" unicode="&#xe1;" horiz-adv-x="1079" 
d="M412 -16q-168 0 -259.5 82t-91.5 215q0 75 26 133t70.5 95t108 61t132.5 34t151 10h276l13 86q24 148 -35 221.5t-213 73.5q-249 0 -309 -227h-109q19 85 63 149t102.5 100t123 53t133.5 17q195 0 288.5 -101t63.5 -294l-61 -385q-30 -183 -23 -307h-104q-3 89 6 176
q-53 -87 -145 -139.5t-207 -52.5zM424 72q138 0 238 75.5t120 206.5l29 176h-260q-90 0 -155.5 -11t-118.5 -38t-80 -77t-27 -123q0 -93 64 -151t190 -58zM563 1239l180 301h140l-230 -301h-90z" />
    <glyph glyph-name="acircumflex" unicode="&#xe2;" horiz-adv-x="1079" 
d="M412 -16q-168 0 -259.5 82t-91.5 215q0 75 26 133t70.5 95t108 61t132.5 34t151 10h276l13 86q24 148 -35 221.5t-213 73.5q-249 0 -309 -227h-109q19 85 63 149t102.5 100t123 53t133.5 17q195 0 288.5 -101t63.5 -294l-61 -385q-30 -183 -23 -307h-104q-3 89 6 176
q-53 -87 -145 -139.5t-207 -52.5zM424 72q138 0 238 75.5t120 206.5l29 176h-260q-90 0 -155.5 -11t-118.5 -38t-80 -77t-27 -123q0 -93 64 -151t190 -58zM340 1239l262 277h100l187 -277h-82l-166 186l-213 -186h-88z" />
    <glyph glyph-name="atilde" unicode="&#xe3;" horiz-adv-x="1079" 
d="M412 -16q-168 0 -259.5 82t-91.5 215q0 75 26 133t70.5 95t108 61t132.5 34t151 10h276l13 86q24 148 -35 221.5t-213 73.5q-249 0 -309 -227h-109q19 85 63 149t102.5 100t123 53t133.5 17q195 0 288.5 -101t63.5 -294l-61 -385q-30 -183 -23 -307h-104q-3 89 6 176
q-53 -87 -145 -139.5t-207 -52.5zM424 72q138 0 238 75.5t120 206.5l29 176h-260q-90 0 -155.5 -11t-118.5 -38t-80 -77t-27 -123q0 -93 64 -151t190 -58zM764 1262q-42 0 -89 27t-89.5 54t-71.5 27q-36 0 -65 -28t-41 -80h-82q18 97 69 149.5t121 52.5q41 0 87.5 -27
t89.5 -54t73 -27q34 0 63.5 28t40.5 80h82q-20 -97 -70 -149.5t-118 -52.5z" />
    <glyph glyph-name="adieresis" unicode="&#xe4;" horiz-adv-x="1079" 
d="M412 -16q-168 0 -259.5 82t-91.5 215q0 75 26 133t70.5 95t108 61t132.5 34t151 10h276l13 86q24 148 -35 221.5t-213 73.5q-249 0 -309 -227h-109q19 85 63 149t102.5 100t123 53t133.5 17q195 0 288.5 -101t63.5 -294l-61 -385q-30 -183 -23 -307h-104q-3 89 6 176
q-53 -87 -145 -139.5t-207 -52.5zM424 72q138 0 238 75.5t120 206.5l29 176h-260q-90 0 -155.5 -11t-118.5 -38t-80 -77t-27 -123q0 -93 64 -151t190 -58zM465 1303q-31 0 -52.5 21t-21.5 52t22.5 53.5t53.5 22.5t52.5 -21.5t21.5 -52.5t-22 -53t-54 -22zM807 1303
q-31 0 -52.5 21t-21.5 52t22 53.5t54 22.5q31 0 52.5 -21.5t21.5 -52.5t-22.5 -53t-53.5 -22z" />
    <glyph glyph-name="aring" unicode="&#xe5;" horiz-adv-x="1079" 
d="M412 -16q-168 0 -259.5 82t-91.5 215q0 75 26 133t70.5 95t108 61t132.5 34t151 10h276l13 86q24 148 -35 221.5t-213 73.5q-249 0 -309 -227h-109q19 85 63 149t102.5 100t123 53t133.5 17q195 0 288.5 -101t63.5 -294l-61 -385q-30 -183 -23 -307h-104q-3 89 6 176
q-53 -87 -145 -139.5t-207 -52.5zM424 72q138 0 238 75.5t120 206.5l29 176h-260q-90 0 -155.5 -11t-118.5 -38t-80 -77t-27 -123q0 -93 64 -151t190 -58zM651 1296q55 0 91 37.5t36 96.5q0 56 -33 91t-88 35q-54 0 -91.5 -38.5t-37.5 -96.5q0 -55 34 -90t89 -35zM651 1231
q-84 0 -141 55.5t-57 134.5q0 83 60 142t144 59t140.5 -56t56.5 -136q0 -83 -59 -141t-144 -58z" />
    <glyph glyph-name="ae" unicode="&#xe6;" horiz-adv-x="1818" 
d="M920 440q0 -364 333 -364q257 0 340 223h107q-52 -156 -168.5 -235.5t-282.5 -79.5q-165 0 -269.5 74.5t-143.5 211.5q-34 -95 -100 -161t-147 -95.5t-175 -29.5q-171 0 -262 78t-91 210q0 93 39.5 161t110 106t155 55.5t187.5 17.5h272l15 88q24 148 -36 221.5
t-214 73.5q-249 0 -309 -227h-109q19 85 63 149t102.5 100t123 53t133.5 17q292 0 342 -221q71 104 176 162.5t234 58.5q224 0 328.5 -141.5t66.5 -386.5l-6 -31h-811q-4 -29 -4 -88zM422 72q144 0 244.5 80t124.5 233l22 143h-262q-89 0 -154.5 -11.5t-118.5 -39.5
t-80.5 -78t-27.5 -123q0 -92 63.5 -148t188.5 -56zM1339 995q-155 0 -261.5 -101.5t-141.5 -281.5h702q21 184 -52 283.5t-247 99.5z" />
    <glyph glyph-name="ccedilla" unicode="&#xe7;" horiz-adv-x="1120" 
d="M426 -434q-82 0 -135 40.5t-60 119.5h91q3 -39 31 -62.5t73 -23.5q42 0 72 23t30 73q0 36 -24 55t-62 19q-34 0 -67 -19l-41 45l110 160q-172 33 -267 160t-95 315q0 135 43.5 251t118 195.5t176 124.5t215.5 45q177 0 292.5 -95.5t125.5 -266.5h-105
q-10 133 -94.5 201.5t-222.5 68.5q-195 0 -315.5 -145t-120.5 -379q0 -186 98.5 -290.5t273.5 -104.5q137 0 236 76.5t129 214.5h104q-37 -183 -165 -283t-306 -100h-45l-74 -105q70 14 125.5 -24.5t55.5 -114.5q0 -83 -55 -128.5t-146 -45.5z" />
    <glyph glyph-name="egrave" unicode="&#xe8;" horiz-adv-x="1110" 
d="M190 440q0 -176 87 -270t258 -94q128 0 216.5 56.5t129.5 166.5h108q-50 -154 -171.5 -234.5t-287.5 -80.5q-216 0 -334 124.5t-118 335.5q0 177 68 323.5t194 233t285 86.5q226 0 334.5 -142t70.5 -386l-4 -33h-831q-5 -36 -5 -86zM621 995q-157 0 -267 -101t-147 -280
h723q21 182 -56.5 281.5t-252.5 99.5zM604 1239l-149 301h131l102 -301h-84z" />
    <glyph glyph-name="eacute" unicode="&#xe9;" horiz-adv-x="1110" 
d="M190 440q0 -176 87 -270t258 -94q128 0 216.5 56.5t129.5 166.5h108q-50 -154 -171.5 -234.5t-287.5 -80.5q-216 0 -334 124.5t-118 335.5q0 177 68 323.5t194 233t285 86.5q226 0 334.5 -142t70.5 -386l-4 -33h-831q-5 -36 -5 -86zM621 995q-157 0 -267 -101t-147 -280
h723q21 182 -56.5 281.5t-252.5 99.5zM584 1239l180 301h139l-229 -301h-90z" />
    <glyph glyph-name="ecircumflex" unicode="&#xea;" horiz-adv-x="1110" 
d="M190 440q0 -176 87 -270t258 -94q128 0 216.5 56.5t129.5 166.5h108q-50 -154 -171.5 -234.5t-287.5 -80.5q-216 0 -334 124.5t-118 335.5q0 177 68 323.5t194 233t285 86.5q226 0 334.5 -142t70.5 -386l-4 -33h-831q-5 -36 -5 -86zM621 995q-157 0 -267 -101t-147 -280
h723q21 182 -56.5 281.5t-252.5 99.5zM360 1239l263 277h100l186 -277h-82l-165 186l-213 -186h-89z" />
    <glyph glyph-name="edieresis" unicode="&#xeb;" horiz-adv-x="1110" 
d="M190 440q0 -176 87 -270t258 -94q128 0 216.5 56.5t129.5 166.5h108q-50 -154 -171.5 -234.5t-287.5 -80.5q-216 0 -334 124.5t-118 335.5q0 177 68 323.5t194 233t285 86.5q226 0 334.5 -142t70.5 -386l-4 -33h-831q-5 -36 -5 -86zM621 995q-157 0 -267 -101t-147 -280
h723q21 182 -56.5 281.5t-252.5 99.5zM834 1303q-31 0 -52.5 21t-21.5 52t22 53.5t54 22.5q31 0 52 -21.5t21 -52.5t-22 -53t-53 -22zM492 1303q-31 0 -52.5 21t-21.5 52t22.5 53.5t53.5 22.5t52 -21.5t21 -52.5t-21.5 -53t-53.5 -22z" />
    <glyph glyph-name="igrave" unicode="&#xec;" horiz-adv-x="452" 
d="M86 0l170 1071h109l-170 -1071h-109zM295 1239l-150 301h131l103 -301h-84z" />
    <glyph glyph-name="iacute" unicode="&#xed;" horiz-adv-x="452" 
d="M279 1239l180 301h139l-229 -301h-90zM86 0l170 1071h109l-170 -1071h-109z" />
    <glyph glyph-name="icircumflex" unicode="&#xee;" horiz-adv-x="452" 
d="M51 1239l262 277h101l186 -277h-82l-166 186l-213 -186h-88zM86 0l170 1071h109l-170 -1071h-109z" />
    <glyph glyph-name="idieresis" unicode="&#xef;" horiz-adv-x="452" 
d="M207 1303q-31 0 -53.5 21.5t-22.5 51.5q0 31 22.5 53.5t53.5 22.5q32 0 53 -21.5t21 -52.5t-21.5 -53t-52.5 -22zM510 1303q-32 0 -54 21t-22 52t22.5 53.5t53.5 22.5t52.5 -21.5t21.5 -52.5t-21.5 -53t-52.5 -22zM86 0l170 1071h109l-170 -1071h-109z" />
    <glyph glyph-name="eth" unicode="&#xf0;" horiz-adv-x="1191" 
d="M401 1198l-34 62l272 145q-102 89 -236 178h144q91 -54 180 -131l225 119l35 -64l-205 -106q147 -145 236.5 -336.5t89.5 -419.5q0 -187 -66.5 -336t-196 -237t-302.5 -88q-206 0 -335.5 135.5t-129.5 347.5q0 119 39 230.5t108.5 198t174 139t225.5 52.5q235 0 352 -202
q-83 265 -285 467zM188 463q0 -78 23 -147t66 -123t112 -85.5t156 -31.5q137 0 240.5 72t156.5 191.5t53 266.5q0 170 -95.5 279.5t-264.5 109.5q-103 0 -188.5 -43t-141.5 -116.5t-86.5 -169.5t-30.5 -203z" />
    <glyph glyph-name="ntilde" unicode="&#xf1;" horiz-adv-x="1181" 
d="M82 0l123 772q24 150 28 299h103q0 -95 -19 -231q60 109 163 178t237 69q180 0 268 -111.5t53 -336.5l-102 -639h-109l105 659q27 165 -36 249.5t-200 84.5q-147 0 -262.5 -96t-142.5 -262l-101 -635h-108zM817 1262q-42 0 -89 27t-89.5 54t-71.5 27q-36 0 -65 -28
t-41 -80h-82q18 97 69 149.5t121 52.5q41 0 87.5 -27t89.5 -54t73 -27q34 0 64 28t41 80h82q-20 -97 -70 -149.5t-119 -52.5z" />
    <glyph glyph-name="ograve" unicode="&#xf2;" horiz-adv-x="1185" 
d="M547 -16q-211 0 -340 137t-129 344q0 127 41 240.5t113.5 197.5t178.5 133t228 49q214 0 341.5 -136t127.5 -341q0 -176 -69 -318t-197.5 -224t-294.5 -82zM551 76q135 0 237 70t154.5 189.5t52.5 270.5q0 170 -95.5 279.5t-264.5 109.5q-134 0 -237 -71.5t-156.5 -191.5
t-53.5 -267q0 -171 97 -280t266 -109zM635 1239l-150 301h131l103 -301h-84z" />
    <glyph glyph-name="oacute" unicode="&#xf3;" horiz-adv-x="1185" 
d="M616 1239l181 301h139l-229 -301h-91zM547 -16q-211 0 -340 137t-129 344q0 127 41 240.5t113.5 197.5t178.5 133t228 49q214 0 341.5 -136t127.5 -341q0 -176 -69 -318t-197.5 -224t-294.5 -82zM551 76q135 0 237 70t154.5 189.5t52.5 270.5q0 170 -95.5 279.5
t-264.5 109.5q-134 0 -237 -71.5t-156.5 -191.5t-53.5 -267q0 -171 97 -280t266 -109z" />
    <glyph glyph-name="ocircumflex" unicode="&#xf4;" horiz-adv-x="1185" 
d="M389 1239l262 277h101l186 -277h-82l-166 186l-213 -186h-88zM547 -16q-211 0 -340 137t-129 344q0 127 41 240.5t113.5 197.5t178.5 133t228 49q214 0 341.5 -136t127.5 -341q0 -176 -69 -318t-197.5 -224t-294.5 -82zM551 76q135 0 237 70t154.5 189.5t52.5 270.5
q0 170 -95.5 279.5t-264.5 109.5q-134 0 -237 -71.5t-156.5 -191.5t-53.5 -267q0 -171 97 -280t266 -109z" />
    <glyph glyph-name="otilde" unicode="&#xf5;" horiz-adv-x="1185" 
d="M547 -16q-211 0 -340 137t-129 344q0 127 41 240.5t113.5 197.5t178.5 133t228 49q214 0 341.5 -136t127.5 -341q0 -176 -69 -318t-197.5 -224t-294.5 -82zM551 76q135 0 237 70t154.5 189.5t52.5 270.5q0 170 -95.5 279.5t-264.5 109.5q-134 0 -237 -71.5t-156.5 -191.5
t-53.5 -267q0 -171 97 -280t266 -109zM805 1262q-42 0 -89 27t-89.5 54t-71.5 27q-36 0 -65 -28t-41 -80h-82q18 97 69 149.5t121 52.5q41 0 87.5 -27t89.5 -54t73 -27q34 0 63.5 28t40.5 80h82q-20 -97 -70 -149.5t-118 -52.5z" />
    <glyph glyph-name="odieresis" unicode="&#xf6;" horiz-adv-x="1185" 
d="M510 1303q-31 0 -52.5 21t-21.5 52t22.5 53.5t53.5 22.5t52.5 -21.5t21.5 -52.5t-22 -53t-54 -22zM852 1303q-31 0 -52.5 21t-21.5 52t22 53.5t54 22.5q31 0 52.5 -21.5t21.5 -52.5t-22.5 -53t-53.5 -22zM547 -16q-211 0 -340 137t-129 344q0 127 41 240.5t113.5 197.5
t178.5 133t228 49q214 0 341.5 -136t127.5 -341q0 -176 -69 -318t-197.5 -224t-294.5 -82zM551 76q135 0 237 70t154.5 189.5t52.5 270.5q0 170 -95.5 279.5t-264.5 109.5q-134 0 -237 -71.5t-156.5 -191.5t-53.5 -267q0 -171 97 -280t266 -109z" />
    <glyph glyph-name="divide" unicode="&#xf7;" horiz-adv-x="1044" 
d="M90 653l16 95h895l-14 -95h-897zM498 250q-35 0 -60.5 25.5t-25.5 62.5q0 35 25.5 60.5t60.5 25.5q37 0 62.5 -25.5t25.5 -60.5q0 -37 -25.5 -62.5t-62.5 -25.5zM594 977q-35 0 -60.5 25.5t-25.5 62.5q0 35 25.5 60.5t60.5 25.5q37 0 62.5 -25.5t25.5 -60.5
q0 -37 -25.5 -62.5t-62.5 -25.5z" />
    <glyph glyph-name="oslash" unicode="&#xf8;" horiz-adv-x="1185" 
d="M88 -51l-57 53l147 154q-100 133 -100 309q0 127 41 240.5t113.5 197.5t178.5 133t228 49q187 0 315 -112l136 143l59 -53l-141 -148q100 -127 100 -307q0 -176 -69 -318t-197.5 -224t-294.5 -82q-189 0 -316 114zM551 76q135 0 237 70t154.5 189.5t52.5 270.5
q0 134 -59 234l-639 -672q95 -92 254 -92zM188 465q0 -139 60 -236l639 672q-94 94 -252 94q-134 0 -237 -71.5t-156.5 -191.5t-53.5 -267z" />
    <glyph glyph-name="ugrave" unicode="&#xf9;" horiz-adv-x="1173" 
d="M1085 1071l-120 -772q-28 -189 -25 -299h-104q-3 100 16 229q-60 -109 -161.5 -177t-235.5 -68q-178 0 -265 114t-53 334l103 639h108l-104 -659q-26 -164 35 -249t196 -85q147 0 261 96t141 262l100 635h108zM645 1239l-149 301h131l102 -301h-84z" />
    <glyph glyph-name="uacute" unicode="&#xfa;" horiz-adv-x="1173" 
d="M614 1239l181 301h139l-229 -301h-91zM1085 1071l-120 -772q-28 -189 -25 -299h-104q-3 100 16 229q-60 -109 -161.5 -177t-235.5 -68q-178 0 -265 114t-53 334l103 639h108l-104 -659q-26 -164 35 -249t196 -85q147 0 261 96t141 262l100 635h108z" />
    <glyph glyph-name="ucircumflex" unicode="&#xfb;" horiz-adv-x="1173" 
d="M395 1239l262 277h101l186 -277h-82l-166 186l-213 -186h-88zM1085 1071l-120 -772q-28 -189 -25 -299h-104q-3 100 16 229q-60 -109 -161.5 -177t-235.5 -68q-178 0 -265 114t-53 334l103 639h108l-104 -659q-26 -164 35 -249t196 -85q147 0 261 96t141 262l100 635h108
z" />
    <glyph glyph-name="udieresis" unicode="&#xfc;" horiz-adv-x="1173" 
d="M522 1303q-31 0 -52 21t-21 52t22 53.5t53 22.5t52.5 -21.5t21.5 -52.5t-22 -53t-54 -22zM864 1303q-31 0 -52 21t-21 52t21.5 53.5t53.5 22.5q31 0 52.5 -21.5t21.5 -52.5t-22.5 -53t-53.5 -22zM1085 1071l-120 -772q-28 -189 -25 -299h-104q-3 100 16 229
q-60 -109 -161.5 -177t-235.5 -68q-178 0 -265 114t-53 334l103 639h108l-104 -659q-26 -164 35 -249t196 -85q147 0 261 96t141 262l100 635h108z" />
    <glyph glyph-name="yacute" unicode="&#xfd;" horiz-adv-x="1011" 
d="M123 -373l268 471l-262 973h111l225 -854l467 854h117l-811 -1444h-115zM549 1239l180 301h139l-229 -301h-90z" />
    <glyph glyph-name="thorn" unicode="&#xfe;" horiz-adv-x="1249" 
d="M23 -373l309 1956h108l-116 -749q58 111 167.5 182t243.5 71q186 0 308 -131t122 -346q0 -174 -59.5 -314t-181 -226t-287.5 -86q-87 0 -159.5 26.5t-119.5 70t-77 92t-45 101.5l-105 -647h-108zM633 74q132 0 228 71t143 189.5t47 269.5q0 182 -93 287.5t-239 105.5
q-132 0 -236.5 -71.5t-160.5 -192t-56 -264.5q-1 -182 100.5 -288.5t266.5 -106.5z" />
    <glyph glyph-name="ydieresis" unicode="&#xff;" horiz-adv-x="1011" 
d="M123 -373l268 471l-262 973h111l225 -854l467 854h117l-811 -1444h-115zM461 1303q-31 0 -52.5 21t-21.5 52t22.5 53.5t53.5 22.5t52.5 -21.5t21.5 -52.5t-22 -53t-54 -22zM803 1303q-31 0 -52.5 21t-21.5 52t22 53.5t54 22.5q31 0 52.5 -21.5t21.5 -52.5t-22.5 -53
t-53.5 -22z" />
    <glyph glyph-name="Amacron" unicode="&#x100;" horiz-adv-x="1312" 
d="M1061 0l-92 449h-660l-229 -449h-111l754 1464h151l297 -1464h-110zM782 1372l-426 -831h594zM561 1620l14 86h508l-14 -86h-508z" />
    <glyph glyph-name="amacron" unicode="&#x101;" horiz-adv-x="1079" 
d="M412 -16q-168 0 -259.5 82t-91.5 215q0 75 26 133t70.5 95t108 61t132.5 34t151 10h276l13 86q24 148 -35 221.5t-213 73.5q-249 0 -309 -227h-109q19 85 63 149t102.5 100t123 53t133.5 17q195 0 288.5 -101t63.5 -294l-61 -385q-30 -183 -23 -307h-104q-3 89 6 176
q-53 -87 -145 -139.5t-207 -52.5zM424 72q138 0 238 75.5t120 206.5l29 176h-260q-90 0 -155.5 -11t-118.5 -38t-80 -77t-27 -123q0 -93 64 -151t190 -58zM393 1325l13 86h497l-14 -86h-496z" />
    <glyph glyph-name="Abreve" unicode="&#x102;" horiz-adv-x="1312" 
d="M1061 0l-92 449h-660l-229 -449h-111l754 1464h151l297 -1464h-110zM782 1372l-426 -831h594zM813 1579q-109 0 -178.5 70t-69.5 180h90q5 -75 46 -117.5t112 -42.5q73 0 122.5 43t63.5 117h88q-12 -108 -91.5 -179t-182.5 -71z" />
    <glyph glyph-name="abreve" unicode="&#x103;" horiz-adv-x="1079" 
d="M412 -16q-168 0 -259.5 82t-91.5 215q0 75 26 133t70.5 95t108 61t132.5 34t151 10h276l13 86q24 148 -35 221.5t-213 73.5q-249 0 -309 -227h-109q19 85 63 149t102.5 100t123 53t133.5 17q195 0 288.5 -101t63.5 -294l-61 -385q-30 -183 -23 -307h-104q-3 89 6 176
q-53 -87 -145 -139.5t-207 -52.5zM424 72q138 0 238 75.5t120 206.5l29 176h-260q-90 0 -155.5 -11t-118.5 -38t-80 -77t-27 -123q0 -93 64 -151t190 -58zM633 1262q-107 0 -173.5 68.5t-66.5 178.5h90q3 -74 41.5 -115.5t108.5 -41.5q72 0 118.5 41t61.5 116h86
q-12 -110 -88 -178.5t-178 -68.5z" />
    <glyph glyph-name="Aogonek" unicode="&#x104;" horiz-adv-x="1312" 
d="M872 -219q0 119 189 221l-90 447h-662l-229 -449h-111l754 1464h151l297 -1464q-39 -22 -62.5 -37t-58.5 -43.5t-53 -61t-18 -67.5q0 -82 96 -82q43 0 96 17l-12 -80q-64 -19 -104 -19q-85 0 -134 40t-49 114zM782 1372l-426 -831h596z" />
    <glyph glyph-name="aogonek" unicode="&#x105;" horiz-adv-x="1079" 
d="M750 -373q-85 0 -134 40t-49 114q0 117 191 223q-3 89 6 172q-53 -87 -145 -139.5t-207 -52.5q-168 0 -259.5 82t-91.5 215q0 75 26 133t70.5 95t108 61t132.5 34t151 10h276l13 86q24 148 -35 221.5t-213 73.5q-249 0 -309 -227h-109q19 85 63 149t102.5 100t123 53
t133.5 17q195 0 288.5 -101t63.5 -294l-61 -385q-30 -183 -23 -307q-35 -21 -47.5 -29t-46.5 -33t-49.5 -43t-30 -46.5t-14.5 -57.5q0 -82 98 -82q41 0 94 17l-12 -80q-64 -19 -104 -19zM424 72q138 0 238 75.5t120 206.5l29 176h-260q-90 0 -155.5 -11t-118.5 -38t-80 -77
t-27 -123q0 -93 64 -151t190 -58z" />
    <glyph glyph-name="Cacute" unicode="&#x106;" horiz-adv-x="1484" 
d="M772 -16q-298 0 -471.5 175t-173.5 474q0 173 56 328t155.5 270.5t246 183.5t316.5 68q143 0 259 -51.5t193 -157t91 -250.5h-107q-31 177 -145 272t-295 95q-198 0 -348 -103.5t-226.5 -274t-76.5 -380.5q0 -263 137 -409t389 -146q191 0 327.5 103.5t196.5 289.5h109
q-62 -228 -233.5 -357.5t-399.5 -129.5zM860 1579l152 250h139l-199 -250h-92z" />
    <glyph glyph-name="cacute" unicode="&#x107;" horiz-adv-x="1120" 
d="M596 1239l180 301h139l-229 -301h-90zM565 -16q-225 0 -354 134t-129 353q0 135 43.5 251t118 195.5t176 124.5t215.5 45q177 0 292.5 -95.5t125.5 -266.5h-105q-10 133 -94.5 201.5t-222.5 68.5q-195 0 -315.5 -145t-120.5 -379q0 -186 98.5 -290.5t273.5 -104.5
q137 0 236 76.5t129 214.5h104q-37 -183 -165 -283t-306 -100z" />
    <glyph glyph-name="Ccircumflex" unicode="&#x108;" horiz-adv-x="1484" 
d="M637 1579l256 250h102l191 -250h-82l-168 160l-211 -160h-88zM772 -16q-298 0 -471.5 175t-173.5 474q0 173 56 328t155.5 270.5t246 183.5t316.5 68q143 0 259 -51.5t193 -157t91 -250.5h-107q-31 177 -145 272t-295 95q-198 0 -348 -103.5t-226.5 -274t-76.5 -380.5
q0 -263 137 -409t389 -146q191 0 327.5 103.5t196.5 289.5h109q-62 -228 -233.5 -357.5t-399.5 -129.5z" />
    <glyph glyph-name="ccircumflex" unicode="&#x109;" horiz-adv-x="1120" 
d="M367 1239l262 277h100l186 -277h-81l-166 186l-213 -186h-88zM565 -16q-225 0 -354 134t-129 353q0 135 43.5 251t118 195.5t176 124.5t215.5 45q177 0 292.5 -95.5t125.5 -266.5h-105q-10 133 -94.5 201.5t-222.5 68.5q-195 0 -315.5 -145t-120.5 -379
q0 -186 98.5 -290.5t273.5 -104.5q137 0 236 76.5t129 214.5h104q-37 -183 -165 -283t-306 -100z" />
    <glyph glyph-name="Cdotaccent" unicode="&#x10a;" horiz-adv-x="1484" 
d="M772 -16q-298 0 -471.5 175t-173.5 474q0 173 56 328t155.5 270.5t246 183.5t316.5 68q143 0 259 -51.5t193 -157t91 -250.5h-107q-31 177 -145 272t-295 95q-198 0 -348 -103.5t-226.5 -274t-76.5 -380.5q0 -263 137 -409t389 -146q191 0 327.5 103.5t196.5 289.5h109
q-62 -228 -233.5 -357.5t-399.5 -129.5zM913 1612q-32 0 -54.5 22.5t-22.5 53.5t22.5 54t54.5 23t54 -22t22 -53t-22 -54.5t-54 -23.5z" />
    <glyph glyph-name="cdotaccent" unicode="&#x10b;" horiz-adv-x="1120" 
d="M565 -16q-225 0 -354 134t-129 353q0 135 43.5 251t118 195.5t176 124.5t215.5 45q177 0 292.5 -95.5t125.5 -266.5h-105q-10 133 -94.5 201.5t-222.5 68.5q-195 0 -315.5 -145t-120.5 -379q0 -186 98.5 -290.5t273.5 -104.5q137 0 236 76.5t129 214.5h104
q-37 -183 -165 -283t-306 -100zM674 1300q-32 0 -55 22.5t-23 53.5q0 32 23 55t55 23t54 -22t22 -54q0 -31 -22 -54.5t-54 -23.5z" />
    <glyph glyph-name="Ccaron" unicode="&#x10c;" horiz-adv-x="1484" 
d="M1217 1829l-259 -250h-100l-192 250h82l167 -160l213 160h89zM772 -16q-298 0 -471.5 175t-173.5 474q0 173 56 328t155.5 270.5t246 183.5t316.5 68q143 0 259 -51.5t193 -157t91 -250.5h-107q-31 177 -145 272t-295 95q-198 0 -348 -103.5t-226.5 -274t-76.5 -380.5
q0 -263 137 -409t389 -146q191 0 327.5 103.5t196.5 289.5h109q-62 -228 -233.5 -357.5t-399.5 -129.5z" />
    <glyph glyph-name="ccaron" unicode="&#x10d;" horiz-adv-x="1120" 
d="M961 1532l-263 -277h-102l-184 277h82l163 -186l215 186h89zM565 -16q-225 0 -354 134t-129 353q0 135 43.5 251t118 195.5t176 124.5t215.5 45q177 0 292.5 -95.5t125.5 -266.5h-105q-10 133 -94.5 201.5t-222.5 68.5q-195 0 -315.5 -145t-120.5 -379
q0 -186 98.5 -290.5t273.5 -104.5q137 0 236 76.5t129 214.5h104q-37 -183 -165 -283t-306 -100z" />
    <glyph glyph-name="Dcaron" unicode="&#x10e;" horiz-adv-x="1409" 
d="M1081 1829l-258 -250h-100l-193 250h82l168 -160l213 160h88zM102 0l232 1464h354q168 0 296.5 -47t207.5 -132t119 -197t41 -248q0 -248 -99 -437.5t-290 -296t-449 -106.5h-412zM231 94h279q339 0 532 198t193 548q0 115 -32.5 209.5t-97.5 167t-172.5 113t-248.5 40.5
h-250z" />
    <glyph glyph-name="dcaron" unicode="&#x10f;" horiz-adv-x="1241" 
d="M1303 1251l77 332h119l-115 -332h-81zM524 -16q-195 0 -319.5 129t-124.5 344q0 171 65 313.5t191 229.5t289 87q69 0 128 -18t100.5 -46t74 -67t52 -77.5t30.5 -79.5l125 784h108l-196 -1247q-31 -191 -31 -336h-105q0 103 19 240q-60 -115 -166 -185.5t-240 -70.5z
M535 76q198 0 320 148.5t124 379.5q1 180 -96 285.5t-254 105.5q-133 0 -233.5 -71.5t-151.5 -191t-51 -269.5q0 -181 94.5 -284t247.5 -103z" />
    <glyph glyph-name="Dcroat" unicode="&#x110;" horiz-adv-x="1431" 
d="M80 690l14 90h154l108 684h355q168 0 296.5 -47t207.5 -132t118.5 -197t40.5 -248q0 -185 -57.5 -340t-163.5 -266t-264.5 -172.5t-353.5 -61.5h-410l108 690h-153zM254 94h278q339 0 532 198t193 548q0 116 -32 210.5t-96.5 167t-172 112.5t-249.5 40h-250l-95 -590h426
l-14 -90h-426z" />
    <glyph glyph-name="dcroat" unicode="&#x111;" horiz-adv-x="1241" 
d="M702 1276l15 84h381l37 223h108l-35 -223h160l-14 -84h-160l-147 -940q-31 -191 -31 -336h-105q0 103 19 240q-60 -115 -166 -185.5t-240 -70.5q-195 0 -319.5 129t-124.5 344q0 171 65 313.5t191 229.5t289 87q69 0 128 -18t100.5 -46t74 -67t52 -77.5t30.5 -79.5
l75 477h-383zM629 995q-133 0 -233.5 -71.5t-151.5 -191t-51 -269.5q0 -184 93 -285.5t249 -101.5q199 0 320.5 149.5t123.5 382.5q1 181 -94.5 284t-255.5 103z" />
    <glyph glyph-name="Emacron" unicode="&#x112;" horiz-adv-x="1165" 
d="M102 0l232 1464h831l-16 -94h-717l-90 -571h590l-14 -94h-590l-97 -611h766l-16 -94h-879zM508 1620l14 86h508l-14 -86h-508z" />
    <glyph glyph-name="emacron" unicode="&#x113;" horiz-adv-x="1110" 
d="M190 440q0 -176 87 -270t258 -94q128 0 216.5 56.5t129.5 166.5h108q-50 -154 -171.5 -234.5t-287.5 -80.5q-216 0 -334 124.5t-118 335.5q0 177 68 323.5t194 233t285 86.5q226 0 334.5 -142t70.5 -386l-4 -33h-831q-5 -36 -5 -86zM621 995q-157 0 -267 -101t-147 -280
h723q21 182 -56.5 281.5t-252.5 99.5zM412 1325l12 86h498l-15 -86h-495z" />
    <glyph glyph-name="Ebreve" unicode="&#x114;" horiz-adv-x="1165" 
d="M102 0l232 1464h831l-16 -94h-717l-90 -571h590l-14 -94h-590l-97 -611h766l-16 -94h-879zM762 1579q-109 0 -178.5 70t-69.5 180h90q5 -75 46 -117.5t112 -42.5q73 0 122.5 43t63.5 117h88q-12 -108 -91.5 -179t-182.5 -71z" />
    <glyph glyph-name="ebreve" unicode="&#x115;" horiz-adv-x="1110" 
d="M190 440q0 -176 87 -270t258 -94q128 0 216.5 56.5t129.5 166.5h108q-50 -154 -171.5 -234.5t-287.5 -80.5q-216 0 -334 124.5t-118 335.5q0 177 68 323.5t194 233t285 86.5q226 0 334.5 -142t70.5 -386l-4 -33h-831q-5 -36 -5 -86zM621 995q-157 0 -267 -101t-147 -280
h723q21 182 -56.5 281.5t-252.5 99.5zM653 1262q-107 0 -173 68.5t-66 178.5h90q3 -75 41 -116t108 -41q72 0 119 41t62 116h86q-12 -110 -88.5 -178.5t-178.5 -68.5z" />
    <glyph glyph-name="Edotaccent" unicode="&#x116;" horiz-adv-x="1165" 
d="M764 1612q-32 0 -55 22.5t-23 53.5t23 54t55 23t54 -22t22 -53t-22 -54.5t-54 -23.5zM102 0l232 1464h831l-16 -94h-717l-90 -571h590l-14 -94h-590l-97 -611h766l-16 -94h-879z" />
    <glyph glyph-name="edotaccent" unicode="&#x117;" horiz-adv-x="1110" 
d="M190 440q0 -176 87 -270t258 -94q128 0 216.5 56.5t129.5 166.5h108q-50 -154 -171.5 -234.5t-287.5 -80.5q-216 0 -334 124.5t-118 335.5q0 177 68 323.5t194 233t285 86.5q226 0 334.5 -142t70.5 -386l-4 -33h-831q-5 -36 -5 -86zM621 995q-157 0 -267 -101t-147 -280
h723q21 182 -56.5 281.5t-252.5 99.5zM666 1300q-32 0 -55 22.5t-23 53.5q0 32 23 55t55 23t53.5 -22t21.5 -54q0 -31 -21.5 -54.5t-53.5 -23.5z" />
    <glyph glyph-name="Eogonek" unicode="&#x118;" horiz-adv-x="1165" 
d="M102 0l232 1464h831l-16 -94h-717l-90 -571h590l-14 -94h-590l-97 -611h764l-14 -94h-92q-31 -17 -50 -28.5t-50 -34t-49 -42.5t-32 -48.5t-14 -57.5q0 -80 99 -80q41 0 94 17l-13 -80q-64 -19 -104 -19q-84 0 -133 39t-49 109q0 123 180 225h-666z" />
    <glyph glyph-name="eogonek" unicode="&#x119;" horiz-adv-x="1110" 
d="M625 -373q-84 0 -133 40.5t-48 113.5q0 35 15.5 67t44.5 59t54 45t58 38q-46 -6 -86 -6q-216 0 -334 124.5t-118 335.5q0 177 68 323.5t194 233t285 86.5q226 0 334.5 -142t70.5 -386l-4 -33h-831q-5 -36 -5 -86q0 -176 87 -270t258 -94q128 0 216.5 56.5t129.5 166.5
h108q-44 -131 -135 -207q-31 -26 -78 -59.5t-82.5 -58.5t-70 -54.5t-53.5 -62t-19 -66.5q0 -82 96 -82q40 0 96 17l-12 -80q-64 -19 -106 -19zM621 995q-156 0 -266.5 -102t-147.5 -279h723q21 182 -56.5 281.5t-252.5 99.5z" />
    <glyph glyph-name="Ecaron" unicode="&#x11a;" horiz-adv-x="1165" 
d="M1055 1829l-258 -250h-101l-192 250h82l168 -160l213 160h88zM102 0l232 1464h831l-16 -94h-717l-90 -571h590l-14 -94h-590l-97 -611h766l-16 -94h-879z" />
    <glyph glyph-name="ecaron" unicode="&#x11b;" horiz-adv-x="1110" 
d="M190 440q0 -176 87 -270t258 -94q128 0 216.5 56.5t129.5 166.5h108q-50 -154 -171.5 -234.5t-287.5 -80.5q-216 0 -334 124.5t-118 335.5q0 177 68 323.5t194 233t285 86.5q226 0 334.5 -142t70.5 -386l-4 -33h-831q-5 -36 -5 -86zM621 995q-157 0 -267 -101t-147 -280
h723q21 182 -56.5 281.5t-252.5 99.5zM954 1532l-262 -277h-102l-184 277h81l164 -186l215 186h88z" />
    <glyph glyph-name="Gcircumflex" unicode="&#x11c;" horiz-adv-x="1552" 
d="M633 1579l256 250h102l191 -250h-82l-168 160l-211 -160h-88zM797 -16q-156 0 -283 50t-210.5 139t-128 209.5t-44.5 262.5q0 170 57 323t156 266.5t242.5 180t308.5 66.5q109 0 204.5 -27t172 -79t126 -136t60.5 -192h-112q-21 167 -144.5 254.5t-308.5 87.5
q-144 0 -266 -58.5t-204.5 -159t-128.5 -236.5t-46 -290q0 -167 62 -293.5t188 -200t301 -73.5q236 0 377.5 140t175.5 400h-461l16 97h568q-30 -373 -206.5 -552t-471.5 -179z" />
    <glyph glyph-name="gcircumflex" unicode="&#x11d;" horiz-adv-x="1249" 
d="M406 1239l262 277h100l186 -277h-82l-165 186l-213 -186h-88zM541 127q125 0 227.5 67t160.5 185t58 262q0 160 -95.5 257t-256.5 97q-193 1 -312.5 -143.5t-119.5 -355.5q0 -163 89 -266t249 -103zM1167 1071l-161 -1028q-33 -213 -166 -320.5t-348 -107.5
q-208 0 -326.5 89.5t-138.5 234.5h108q19 -109 109 -170.5t243 -61.5q354 0 410 344l37 225q-63 -107 -164.5 -173t-239.5 -66q-197 0 -318.5 126t-121.5 329q0 162 68 298t192.5 216.5t280.5 80.5q154 0 253.5 -75.5t135.5 -194.5l39 254h108z" />
    <glyph glyph-name="Gbreve" unicode="&#x11e;" horiz-adv-x="1552" 
d="M911 1579q-109 0 -178 70t-69 180h90q5 -75 45.5 -117.5t111.5 -42.5q73 0 123 43t64 117h88q-12 -108 -92 -179t-183 -71zM797 -16q-156 0 -283 50t-210.5 139t-128 209.5t-44.5 262.5q0 170 57 323t156 266.5t242.5 180t308.5 66.5q109 0 204.5 -27t172 -79t126 -136
t60.5 -192h-112q-21 167 -144.5 254.5t-308.5 87.5q-144 0 -266 -58.5t-204.5 -159t-128.5 -236.5t-46 -290q0 -167 62 -293.5t188 -200t301 -73.5q236 0 377.5 140t175.5 400h-461l16 97h568q-30 -373 -206.5 -552t-471.5 -179z" />
    <glyph glyph-name="gbreve" unicode="&#x11f;" horiz-adv-x="1249" 
d="M541 127q125 0 227.5 67t160.5 185t58 262q0 160 -95.5 257t-256.5 97q-193 1 -312.5 -143.5t-119.5 -355.5q0 -163 89 -266t249 -103zM1167 1071l-161 -1028q-33 -213 -166 -320.5t-348 -107.5q-208 0 -326.5 89.5t-138.5 234.5h108q19 -109 109 -170.5t243 -61.5
q354 0 410 344l37 225q-63 -107 -164.5 -173t-239.5 -66q-197 0 -318.5 126t-121.5 329q0 162 68 298t192.5 216.5t280.5 80.5q154 0 253.5 -75.5t135.5 -194.5l39 254h108zM696 1262q-107 0 -173 68.5t-66 178.5h90q3 -75 41 -116t108 -41q72 0 119 41t62 116h86
q-12 -110 -88.5 -178.5t-178.5 -68.5z" />
    <glyph glyph-name="Gdotaccent" unicode="&#x120;" horiz-adv-x="1552" 
d="M922 1612q-32 0 -55 22.5t-23 53.5t23 54t55 23t53.5 -22t21.5 -53t-21.5 -54.5t-53.5 -23.5zM797 -16q-156 0 -283 50t-210.5 139t-128 209.5t-44.5 262.5q0 170 57 323t156 266.5t242.5 180t308.5 66.5q109 0 204.5 -27t172 -79t126 -136t60.5 -192h-112
q-21 167 -144.5 254.5t-308.5 87.5q-144 0 -266 -58.5t-204.5 -159t-128.5 -236.5t-46 -290q0 -167 62 -293.5t188 -200t301 -73.5q236 0 377.5 140t175.5 400h-461l16 97h568q-30 -373 -206.5 -552t-471.5 -179z" />
    <glyph glyph-name="gdotaccent" unicode="&#x121;" horiz-adv-x="1249" 
d="M541 127q125 0 227.5 67t160.5 185t58 262q0 160 -95.5 257t-256.5 97q-193 1 -312.5 -143.5t-119.5 -355.5q0 -163 89 -266t249 -103zM1167 1071l-161 -1028q-33 -213 -166 -320.5t-348 -107.5q-208 0 -326.5 89.5t-138.5 234.5h108q19 -109 109 -170.5t243 -61.5
q354 0 410 344l37 225q-63 -107 -164.5 -173t-239.5 -66q-197 0 -318.5 126t-121.5 329q0 162 68 298t192.5 216.5t280.5 80.5q154 0 253.5 -75.5t135.5 -194.5l39 254h108zM715 1300q-32 0 -55 22.5t-23 53.5q0 32 23 55t55 23t54 -22t22 -54q0 -31 -22 -54.5t-54 -23.5z
" />
    <glyph glyph-name="Gcommaaccent" unicode="&#x122;" horiz-adv-x="1552" 
d="M563 -418l-67 35l141 299l104 -31zM797 -16q-156 0 -283 50t-210.5 139t-128 209.5t-44.5 262.5q0 170 57 323t156 266.5t242.5 180t308.5 66.5q109 0 204.5 -27t172 -79t126 -136t60.5 -192h-112q-21 167 -144.5 254.5t-308.5 87.5q-144 0 -266 -58.5t-204.5 -159
t-128.5 -236.5t-46 -290q0 -167 62 -293.5t188 -200t301 -73.5q236 0 377.5 140t175.5 400h-461l16 97h568q-30 -373 -206.5 -552t-471.5 -179z" />
    <glyph glyph-name="gcommaaccent" unicode="&#x123;" horiz-adv-x="1249" 
d="M782 1577l68 -35l-143 -299l-105 31zM541 127q125 0 227.5 67t160.5 185t58 262q0 160 -95.5 257t-256.5 97q-193 1 -312.5 -143.5t-119.5 -355.5q0 -163 89 -266t249 -103zM1167 1071l-161 -1028q-33 -213 -166 -320.5t-348 -107.5q-208 0 -326.5 89.5t-138.5 234.5h108
q19 -109 109 -170.5t243 -61.5q354 0 410 344l37 225q-63 -107 -164.5 -173t-239.5 -66q-197 0 -318.5 126t-121.5 329q0 162 68 298t192.5 216.5t280.5 80.5q154 0 253.5 -75.5t135.5 -194.5l39 254h108z" />
    <glyph glyph-name="Hcircumflex" unicode="&#x124;" horiz-adv-x="1468" 
d="M102 0l232 1464h115l-109 -682h862l109 682h114l-231 -1464h-115l109 686h-862l-109 -686h-115zM610 1579l256 250h103l190 -250h-82l-168 160l-211 -160h-88z" />
    <glyph glyph-name="hcircumflex" unicode="&#x125;" horiz-adv-x="1181" 
d="M82 0l250 1583h108l-114 -731q56 100 157.5 167.5t233.5 67.5q180 0 268 -111.5t53 -336.5l-102 -639h-109l105 659q27 165 -36 249.5t-200 84.5q-147 0 -262.5 -96t-142.5 -262l-101 -635h-108zM473 1671l256 250h102l191 -250h-82l-168 160l-211 -160h-88z" />
    <glyph glyph-name="Hbar" unicode="&#x126;" horiz-adv-x="1468" 
d="M104 1044l15 91h162l53 329h115l-54 -329h862l54 329h114l-53 -329h164l-14 -91h-164l-164 -1044h-115l109 686h-862l-109 -686h-115l164 1044h-162zM340 782h862l41 262h-862z" />
    <glyph glyph-name="hbar" unicode="&#x127;" horiz-adv-x="1181" 
d="M123 1276l14 84h160l35 223h108l-34 -223h380l-14 -84h-381l-65 -424q56 100 157.5 167.5t233.5 67.5q180 0 268 -111.5t53 -336.5l-102 -639h-109l105 659q27 170 -35 252t-201 82q-147 0 -262.5 -96t-142.5 -262l-101 -635h-108l201 1276h-160z" />
    <glyph glyph-name="Itilde" unicode="&#x128;" horiz-adv-x="514" 
d="M113 0l231 1464h115l-232 -1464h-114zM557 1585q-42 0 -89 27.5t-89.5 54.5t-71.5 27q-35 0 -64.5 -29.5t-41.5 -81.5h-82q18 98 69 150.5t121 52.5q41 0 87.5 -27t89.5 -53.5t73 -26.5q34 0 64 28.5t41 80.5h81q-20 -97 -70 -150t-118 -53z" />
    <glyph glyph-name="itilde" unicode="&#x129;" horiz-adv-x="452" 
d="M86 0l170 1071h109l-170 -1071h-109zM473 1262q-42 0 -89 27t-89.5 54t-71.5 27q-36 0 -65 -28t-41 -80h-82q18 97 69 149.5t121 52.5q41 0 87.5 -27t89.5 -54t73 -27q34 0 64 28t41 80h82q-20 -97 -70 -149.5t-119 -52.5z" />
    <glyph glyph-name="Imacron" unicode="&#x12a;" horiz-adv-x="514" 
d="M113 0l231 1464h115l-232 -1464h-114zM174 1620l14 86h508l-14 -86h-508z" />
    <glyph glyph-name="imacron" unicode="&#x12b;" horiz-adv-x="452" 
d="M172 1325l14 86h357l-15 -86h-356zM86 0l170 1071h109l-170 -1071h-109z" />
    <glyph glyph-name="Ibreve" unicode="&#x12c;" horiz-adv-x="514" 
d="M113 0l231 1464h115l-232 -1464h-114zM422 1579q-109 0 -178.5 70t-69.5 180h90q5 -75 46 -117.5t112 -42.5q73 0 122.5 43t63.5 117h88q-12 -108 -91.5 -179t-182.5 -71z" />
    <glyph glyph-name="ibreve" unicode="&#x12d;" horiz-adv-x="452" 
d="M86 0l170 1071h109l-170 -1071h-109zM342 1262q-107 0 -173.5 68.5t-66.5 178.5h91q3 -75 41 -116t108 -41q72 0 118.5 41t61.5 116h86q-12 -110 -88 -178.5t-178 -68.5z" />
    <glyph glyph-name="Iogonek" unicode="&#x12e;" horiz-adv-x="514" 
d="M125 -373q-84 0 -132.5 40t-47.5 114q0 119 168 219l231 1464h115l-230 -1458q-37 -25 -60 -43t-54.5 -47t-47.5 -60.5t-16 -64.5q0 -82 96 -82q41 0 97 17l-15 -80q-59 -19 -104 -19z" />
    <glyph glyph-name="iogonek" unicode="&#x12f;" horiz-adv-x="452" 
d="M88 4l168 1067h109l-168 -1065q-33 -23 -46 -32.5t-43 -35t-44 -44.5t-26.5 -47t-12.5 -56q0 -82 94 -82q40 0 96 17l-12 -80q-64 -19 -107 -19q-80 0 -129 40.5t-49 113.5q0 119 170 223zM354 1300q-32 0 -53.5 22.5t-21.5 53.5q0 32 22.5 55t54.5 23q31 0 53.5 -22
t22.5 -54q0 -31 -23 -54.5t-55 -23.5z" />
    <glyph glyph-name="Idotaccent" unicode="&#x130;" horiz-adv-x="514" 
d="M113 0l231 1464h115l-232 -1464h-114zM432 1612q-32 0 -55 22.5t-23 53.5t23 54t55 23t54 -22t22 -53t-22 -54.5t-54 -23.5z" />
    <glyph glyph-name="dotlessi" unicode="&#x131;" horiz-adv-x="452" 
d="M86 0l170 1071h109l-170 -1071h-109z" />
    <glyph glyph-name="IJ" unicode="&#x132;" horiz-adv-x="1261" 
d="M68 0l231 1464h115l-232 -1464h-114zM625 -14q-149 0 -236 57l14 94q101 -57 220 -57q118 0 187.5 65t92.5 207l174 1112h115l-178 -1122q-28 -183 -130 -269.5t-259 -86.5z" />
    <glyph glyph-name="ij" unicode="&#x133;" horiz-adv-x="907" 
d="M354 1300q-32 0 -53.5 22.5t-21.5 53.5q0 32 22.5 55t54.5 23q31 0 53.5 -22t22.5 -54q0 -31 -23 -54.5t-55 -23.5zM86 0l170 1071h109l-170 -1071h-109zM322 -383l14 90q88 4 129 46t55 130l189 1188h108l-188 -1194q-22 -134 -94 -196.5t-213 -63.5zM807 1300
q-32 0 -54 22.5t-22 53.5q0 32 23 55t55 23q31 0 53.5 -22t22.5 -54q0 -31 -23 -54.5t-55 -23.5z" />
    <glyph glyph-name="Jcircumflex" unicode="&#x134;" horiz-adv-x="821" 
d="M473 1579l256 250h102l191 -250h-82l-168 160l-211 -160h-88zM231 -14q-148 0 -235 57l14 94q101 -57 219 -57t188 65t93 207l174 1112h115l-178 -1122q-28 -183 -130.5 -269.5t-259.5 -86.5z" />
    <glyph glyph-name="jcircumflex" unicode="&#x135;" horiz-adv-x="452" 
d="M-131 -383l14 90q88 4 129.5 46t55.5 130l188 1188h109l-189 -1194q-22 -134 -94 -196.5t-213 -63.5zM49 1239l262 277h101l186 -277h-82l-166 186l-213 -186h-88z" />
    <glyph glyph-name="Kcommaaccent" unicode="&#x136;" horiz-adv-x="1226" 
d="M440 -418l-67 35l141 299l104 -31zM1090 0h-129l-623 752l815 712h135l-817 -708zM102 0l232 1464h115l-232 -1464h-115z" />
    <glyph glyph-name="kcommaaccent" unicode="&#x137;" horiz-adv-x="991" 
d="M82 0l250 1583h108l-157 -999l585 487h140l-598 -493l460 -578h-127l-462 580l-91 -580h-108zM319 -418l-67 35l141 299l105 -31z" />
    <glyph glyph-name="Lacute" unicode="&#x139;" horiz-adv-x="1085" 
d="M356 1579l152 250h139l-198 -250h-93zM102 0l232 1464h115l-218 -1370h713l-16 -94h-826z" />
    <glyph glyph-name="lacute" unicode="&#x13a;" horiz-adv-x="454" 
d="M358 1671l152 250h139l-198 -250h-93zM86 0l250 1583h110l-249 -1583h-111z" />
    <glyph glyph-name="Lcommaaccent" unicode="&#x13b;" horiz-adv-x="1085" 
d="M377 -418l-68 35l142 299l104 -31zM102 0l232 1464h115l-218 -1370h713l-16 -94h-826z" />
    <glyph glyph-name="lcommaaccent" unicode="&#x13c;" horiz-adv-x="454" 
d="M10 -418l-67 35l141 299l104 -31zM86 0l250 1583h110l-249 -1583h-111z" />
    <glyph glyph-name="Lcaron" unicode="&#x13d;" horiz-adv-x="1085" 
d="M770 1143l92 321h123l-133 -321h-82zM102 0l232 1464h115l-218 -1370h713l-16 -94h-826z" />
    <glyph glyph-name="lcaron" unicode="&#x13e;" horiz-adv-x="454" 
d="M506 1251l78 332h118l-114 -332h-82zM86 0l250 1583h110l-249 -1583h-111z" />
    <glyph glyph-name="Ldot" unicode="&#x13f;" horiz-adv-x="1085" 
d="M102 0l232 1464h115l-218 -1370h713l-16 -94h-826zM907 682q-37 0 -62.5 25.5t-25.5 62.5q0 35 25.5 60.5t60.5 25.5q37 0 62.5 -25.5t25.5 -60.5q0 -37 -25.5 -62.5t-60.5 -25.5z" />
    <glyph glyph-name="ldot" unicode="&#x140;" horiz-adv-x="571" 
d="M86 0l250 1583h110l-249 -1583h-111zM545 676q-37 0 -62.5 25.5t-25.5 62.5q0 35 25.5 60.5t60.5 25.5q37 0 62.5 -25.5t25.5 -60.5q0 -37 -25.5 -62.5t-60.5 -25.5z" />
    <glyph glyph-name="Lslash" unicode="&#x141;" horiz-adv-x="1116" 
d="M68 526l14 97l158 55l125 786h114l-119 -745l484 170l-15 -96l-483 -170l-84 -529h711l-15 -94h-825l92 582z" />
    <glyph glyph-name="lslash" unicode="&#x142;" horiz-adv-x="499" 
d="M57 678l17 100l172 96l112 709h111l-100 -639l180 103l-17 -101l-180 -102l-133 -844h-110l122 776z" />
    <glyph glyph-name="Nacute" unicode="&#x143;" horiz-adv-x="1460" 
d="M858 1579l152 250h139l-199 -250h-92zM102 0l232 1464h151l615 -1306l209 1306h108l-231 -1464h-131l-631 1337l-211 -1337h-111z" />
    <glyph glyph-name="nacute" unicode="&#x144;" horiz-adv-x="1181" 
d="M629 1239l180 301h139l-229 -301h-90zM82 0l123 772q24 150 28 299h103q0 -95 -19 -231q60 109 163 178t237 69q180 0 268 -111.5t53 -336.5l-102 -639h-109l105 659q27 165 -36 249.5t-200 84.5q-147 0 -262.5 -96t-142.5 -262l-101 -635h-108z" />
    <glyph glyph-name="Ncommaaccent" unicode="&#x145;" horiz-adv-x="1460" 
d="M522 -418l-67 35l141 299l104 -31zM102 0l232 1464h151l615 -1306l209 1306h108l-231 -1464h-131l-631 1337l-211 -1337h-111z" />
    <glyph glyph-name="ncommaaccent" unicode="&#x146;" horiz-adv-x="1181" 
d="M377 -418l-68 35l142 299l104 -31zM82 0l123 772q24 150 28 299h103q0 -95 -19 -231q60 109 163 178t237 69q180 0 268 -111.5t53 -336.5l-102 -639h-109l105 659q27 165 -36 249.5t-200 84.5q-147 0 -262.5 -96t-142.5 -262l-101 -635h-108z" />
    <glyph glyph-name="Ncaron" unicode="&#x147;" horiz-adv-x="1460" 
d="M1214 1829l-258 -250h-100l-192 250h81l168 -160l213 160h88zM102 0l232 1464h151l615 -1306l209 1306h108l-231 -1464h-131l-631 1337l-211 -1337h-111z" />
    <glyph glyph-name="ncaron" unicode="&#x148;" horiz-adv-x="1181" 
d="M993 1532l-262 -277h-102l-185 277h82l164 -186l215 186h88zM82 0l123 772q24 150 28 299h103q0 -95 -19 -231q60 109 163 178t237 69q180 0 268 -111.5t53 -336.5l-102 -639h-109l105 659q27 165 -36 249.5t-200 84.5q-147 0 -262.5 -96t-142.5 -262l-101 -635h-108z
" />
    <glyph glyph-name="napostrophe" unicode="&#x149;" horiz-adv-x="1202" 
d="M90 1081l-65 35l176 363l102 -47zM102 0l123 772q25 157 29 299h102q0 -102 -18 -231q60 109 163 178t236 69q180 0 268.5 -112t53.5 -336l-103 -639h-108l104 659q27 165 -35.5 249.5t-199.5 84.5q-147 0 -263 -96t-143 -262l-100 -635h-109z" />
    <glyph glyph-name="Eng" unicode="&#x14a;" horiz-adv-x="1460" 
d="M766 -295q125 0 200.5 65t102.5 212l-645 1355l-211 -1337h-111l232 1464h153l617 -1286l205 1286h108l-231 -1460q-61 -393 -410 -393q-126 0 -219 45l16 94q85 -45 193 -45z" />
    <glyph glyph-name="eng" unicode="&#x14b;" horiz-adv-x="1181" 
d="M82 0l123 772q24 150 28 299h103q0 -95 -19 -231q60 109 163 178t237 69q180 0 268 -111.5t53 -336.5l-116 -731q-24 -150 -96 -218t-230 -75l14 92q98 8 142 52.5t63 156.5l117 743q27 165 -36 249.5t-200 84.5q-147 0 -262.5 -96t-142.5 -262l-101 -635h-108z" />
    <glyph glyph-name="Omacron" unicode="&#x14c;" horiz-adv-x="1632" 
d="M705 1620l14 86h508l-15 -86h-507zM1563 811q0 -226 -98.5 -415t-275.5 -300.5t-394 -111.5q-201 0 -354 88t-233.5 240.5t-80.5 344.5q0 165 59 316t160.5 263t247.5 178.5t311 66.5q149 0 274 -52.5t208.5 -143.5t129.5 -213t46 -261zM1446 811q0 159 -62.5 288
t-187.5 208t-293 79q-145 0 -269 -58.5t-208 -158.5t-131.5 -232.5t-48.5 -279.5q-2 -168 65 -299t193.5 -204.5t292.5 -73.5q142 0 264 57.5t206 156.5t131.5 233t47.5 284z" />
    <glyph glyph-name="omacron" unicode="&#x14d;" horiz-adv-x="1185" 
d="M440 1325l13 86h497l-14 -86h-496zM547 -16q-211 0 -340 137t-129 344q0 127 41 240.5t113.5 197.5t178.5 133t228 49q214 0 341.5 -136t127.5 -341q0 -176 -69 -318t-197.5 -224t-294.5 -82zM551 76q135 0 237 70t154.5 189.5t52.5 270.5q0 170 -95.5 279.5
t-264.5 109.5q-134 0 -237 -71.5t-156.5 -191.5t-53.5 -267q0 -171 97 -280t266 -109z" />
    <glyph glyph-name="Obreve" unicode="&#x14e;" horiz-adv-x="1632" 
d="M950 1579q-109 0 -178.5 70t-69.5 180h91q5 -75 45.5 -117.5t111.5 -42.5q73 0 123 43t64 117h88q-12 -108 -92 -179t-183 -71zM1563 811q0 -226 -98.5 -415t-275.5 -300.5t-394 -111.5q-201 0 -354 88t-233.5 240.5t-80.5 344.5q0 165 59 316t160.5 263t247.5 178.5
t311 66.5q149 0 274 -52.5t208.5 -143.5t129.5 -213t46 -261zM1446 811q0 159 -62.5 288t-187.5 208t-293 79q-145 0 -269 -58.5t-208 -158.5t-131.5 -232.5t-48.5 -279.5q-2 -168 65 -299t193.5 -204.5t292.5 -73.5q142 0 264 57.5t206 156.5t131.5 233t47.5 284z" />
    <glyph glyph-name="obreve" unicode="&#x14f;" horiz-adv-x="1185" 
d="M547 -16q-211 0 -340 137t-129 344q0 127 41 240.5t113.5 197.5t178.5 133t228 49q214 0 341.5 -136t127.5 -341q0 -176 -69 -318t-197.5 -224t-294.5 -82zM551 76q135 0 237 70t154.5 189.5t52.5 270.5q0 170 -95.5 279.5t-264.5 109.5q-134 0 -237 -71.5t-156.5 -191.5
t-53.5 -267q0 -171 97 -280t266 -109zM682 1262q-107 0 -173.5 68.5t-66.5 178.5h90q3 -74 41.5 -115.5t108.5 -41.5q72 0 118.5 41t61.5 116h86q-12 -110 -88 -178.5t-178 -68.5z" />
    <glyph glyph-name="Ohungarumlaut" unicode="&#x150;" horiz-adv-x="1632" 
d="M756 1579l110 250h125l-153 -250h-82zM1026 1579l111 250h125l-154 -250h-82zM1563 811q0 -226 -98.5 -415t-275.5 -300.5t-394 -111.5q-201 0 -354 88t-233.5 240.5t-80.5 344.5q0 165 59 316t160.5 263t247.5 178.5t311 66.5q149 0 274 -52.5t208.5 -143.5t129.5 -213
t46 -261zM1446 811q0 159 -62.5 288t-187.5 208t-293 79q-145 0 -269 -58.5t-208 -158.5t-131.5 -232.5t-48.5 -279.5q-2 -168 65 -299t193.5 -204.5t292.5 -73.5q142 0 264 57.5t206 156.5t131.5 233t47.5 284z" />
    <glyph glyph-name="ohungarumlaut" unicode="&#x151;" horiz-adv-x="1185" 
d="M502 1239l135 301h125l-176 -301h-84zM770 1239l137 301h125l-176 -301h-86zM547 -16q-211 0 -340 137t-129 344q0 127 41 240.5t113.5 197.5t178.5 133t228 49q214 0 341.5 -136t127.5 -341q0 -176 -69 -318t-197.5 -224t-294.5 -82zM551 76q135 0 237 70t154.5 189.5
t52.5 270.5q0 170 -95.5 279.5t-264.5 109.5q-134 0 -237 -71.5t-156.5 -191.5t-53.5 -267q0 -171 97 -280t266 -109z" />
    <glyph glyph-name="OE" unicode="&#x152;" horiz-adv-x="1961" 
d="M1784 0h-987q-169 0 -298.5 47t-209.5 132.5t-120.5 197.5t-41.5 248q0 249 99.5 438t291 295t451.5 106h999l-16 -94h-686l-90 -571h559l-15 -94h-557l-98 -611h733zM1153 1370h-182q-339 0 -533 -197t-194 -546q0 -116 33 -211.5t99 -168t174.5 -113t250.5 -40.5h149z
" />
    <glyph glyph-name="oe" unicode="&#x153;" horiz-adv-x="2019" 
d="M1098 440q0 -176 86.5 -270t257.5 -94q128 0 217.5 56.5t130.5 166.5h108q-50 -155 -171.5 -235t-288.5 -80q-168 0 -274 78t-144 219q-68 -138 -190 -217.5t-283 -79.5q-211 0 -340 137t-129 344q0 127 41 240.5t113.5 197.5t178.5 133t228 49q163 0 275 -85.5
t155 -227.5q67 146 187 230.5t278 84.5q226 0 334.5 -142t70.5 -386l-6 -33h-831q-4 -29 -4 -86zM551 76q135 0 237 70t154.5 189.5t52.5 270.5q0 170 -95.5 279.5t-264.5 109.5q-134 0 -237 -71.5t-156.5 -191.5t-53.5 -267q0 -171 97 -280t266 -109zM1528 995
q-156 0 -266.5 -101t-147.5 -280h725q19 182 -58.5 281.5t-252.5 99.5z" />
    <glyph glyph-name="Racute" unicode="&#x154;" horiz-adv-x="1241" 
d="M672 1579l151 250h140l-199 -250h-92zM102 0l232 1464h381q207 0 328 -92t118 -268q0 -197 -118 -302.5t-316 -125.5l367 -676h-123l-361 668h-288l-105 -668h-115zM336 760h295q418 0 418 344q1 137 -87 201.5t-251 64.5h-279z" />
    <glyph glyph-name="racute" unicode="&#x155;" horiz-adv-x="710" 
d="M442 1239l181 301h139l-230 -301h-90zM82 0l123 772q24 150 28 299h103q0 -91 -19 -240q42 77 91.5 129t130 87t184.5 38l-16 -102q-363 -14 -424 -405l-93 -578h-108z" />
    <glyph glyph-name="Rcommaaccent" unicode="&#x156;" horiz-adv-x="1241" 
d="M442 -418l-67 35l141 299l105 -31zM102 0l232 1464h381q207 0 328 -92t118 -268q0 -197 -118 -302.5t-316 -125.5l367 -676h-123l-361 668h-288l-105 -668h-115zM336 760h295q418 0 418 344q1 137 -87 201.5t-251 64.5h-279z" />
    <glyph glyph-name="rcommaaccent" unicode="&#x157;" horiz-adv-x="710" 
d="M0 -418l-68 35l142 299l104 -31zM82 0l123 772q24 150 28 299h103q0 -91 -19 -240q42 77 91.5 129t130 87t184.5 38l-16 -102q-363 -14 -424 -405l-93 -578h-108z" />
    <glyph glyph-name="Rcaron" unicode="&#x158;" horiz-adv-x="1241" 
d="M1022 1829l-258 -250h-100l-193 250h82l168 -160l213 160h88zM102 0l232 1464h381q207 0 328 -92t118 -268q0 -197 -118 -302.5t-316 -125.5l367 -676h-123l-361 668h-288l-105 -668h-115zM336 760h295q418 0 418 344q1 137 -87 201.5t-251 64.5h-279z" />
    <glyph glyph-name="rcaron" unicode="&#x159;" horiz-adv-x="710" 
d="M805 1532l-262 -277h-103l-184 277h82l164 -186l215 186h88zM82 0l123 772q24 150 28 299h103q0 -91 -19 -240q42 77 91.5 129t130 87t184.5 38l-16 -102q-363 -14 -424 -405l-93 -578h-108z" />
    <glyph glyph-name="Sacute" unicode="&#x15a;" 
d="M582 -16q-239 0 -379 118.5t-146 317.5h111q12 -158 118.5 -250t301.5 -92q180 -2 287.5 89t107.5 249q0 119 -76.5 182.5t-275.5 118.5q-219 63 -315.5 143.5t-96.5 224.5q0 177 130 286.5t341 109.5q202 0 323.5 -95.5t131.5 -273.5h-107q-32 274 -356 274
q-168 0 -261 -78t-93 -218q0 -101 74.5 -160t269.5 -115q114 -32 189 -65t130.5 -78.5t80 -105t24.5 -140.5q0 -199 -142 -320.5t-372 -121.5zM676 1579l151 250h140l-199 -250h-92z" />
    <glyph glyph-name="sacute" unicode="&#x15b;" horiz-adv-x="948" 
d="M492 1239l180 301h139l-229 -301h-90zM442 -18q-190 0 -294 90.5t-109 246.5h106q17 -245 299 -245q126 0 199.5 56t73.5 161q0 83 -55 128t-193 83q-175 47 -248.5 111t-73.5 180q0 139 104.5 216.5t256.5 77.5q157 0 255 -70.5t109 -219.5h-104q-8 96 -75 147t-187 51
q-117 0 -185.5 -50.5t-68.5 -145.5q0 -77 54 -119.5t196 -81.5q84 -22 139 -45t98.5 -57.5t63.5 -83.5t20 -117q0 -146 -106 -229.5t-275 -83.5z" />
    <glyph glyph-name="Scircumflex" unicode="&#x15c;" 
d="M453 1579l256 250h102l190 -250h-81l-168 160l-211 -160h-88zM582 -16q-239 0 -379 118.5t-146 317.5h111q12 -158 118.5 -250t301.5 -92q180 -2 287.5 89t107.5 249q0 119 -76.5 182.5t-275.5 118.5q-219 63 -315.5 143.5t-96.5 224.5q0 177 130 286.5t341 109.5
q202 0 323.5 -95.5t131.5 -273.5h-107q-32 274 -356 274q-168 0 -261 -78t-93 -218q0 -101 74.5 -160t269.5 -115q114 -32 189 -65t130.5 -78.5t80 -105t24.5 -140.5q0 -199 -142 -320.5t-372 -121.5z" />
    <glyph glyph-name="scircumflex" unicode="&#x15d;" horiz-adv-x="948" 
d="M262 1239l262 277h101l186 -277h-82l-166 186l-213 -186h-88zM442 -18q-190 0 -294 90.5t-109 246.5h106q17 -245 299 -245q126 0 199.5 56t73.5 161q0 83 -55 128t-193 83q-175 47 -248.5 111t-73.5 180q0 139 104.5 216.5t256.5 77.5q157 0 255 -70.5t109 -219.5h-104
q-8 96 -75 147t-187 51q-117 0 -185.5 -50.5t-68.5 -145.5q0 -77 54 -119.5t196 -81.5q84 -22 139 -45t98.5 -57.5t63.5 -83.5t20 -117q0 -146 -106 -229.5t-275 -83.5z" />
    <glyph glyph-name="Scedilla" unicode="&#x15e;" 
d="M451 -434q-82 0 -135 40.5t-60 119.5h90q3 -39 31.5 -62.5t73.5 -23.5q42 0 72 23t30 73q0 36 -24 55t-62 19q-35 0 -68 -19l-41 45l109 156q-189 28 -297 141.5t-113 286.5h111q12 -158 118.5 -250t301.5 -92q180 -2 287.5 89t107.5 249q0 119 -76.5 182.5t-275.5 118.5
q-219 63 -315.5 143.5t-96.5 224.5q0 177 130 286.5t341 109.5q202 0 323.5 -95.5t131.5 -273.5h-107q-32 274 -356 274q-168 0 -261 -78t-93 -218q0 -101 74.5 -160t269.5 -115q114 -32 189 -65t130.5 -78.5t80 -105t24.5 -140.5q0 -199 -142 -320.5t-372 -121.5h-35
l-76 -105q70 14 125 -24.5t55 -114.5q0 -83 -54.5 -128.5t-145.5 -45.5z" />
    <glyph glyph-name="scedilla" unicode="&#x15f;" horiz-adv-x="948" 
d="M330 -434q-82 0 -135 40.5t-60 119.5h90q3 -39 31.5 -62.5t73.5 -23.5q42 0 72 23t30 73q0 36 -24 55t-62 19q-34 0 -67 -19l-41 45l106 154q-145 21 -223.5 108t-81.5 221h106q17 -245 299 -245q126 0 199.5 56t73.5 161q0 83 -55 128t-193 83q-175 47 -248.5 111
t-73.5 180q0 139 104.5 216.5t256.5 77.5q157 0 255 -70.5t109 -219.5h-104q-8 96 -75 147t-187 51q-117 0 -185.5 -50.5t-68.5 -145.5q0 -77 54 -119.5t196 -81.5q84 -22 139 -45t98.5 -57.5t63.5 -83.5t20 -117q0 -146 -106 -229.5t-275 -83.5h-18l-74 -103
q70 14 125 -24.5t55 -114.5q0 -83 -54.5 -128.5t-145.5 -45.5z" />
    <glyph glyph-name="Scaron" unicode="&#x160;" 
d="M1022 1829l-258 -250h-100l-193 250h82l168 -160l213 160h88zM582 -16q-239 0 -379 118.5t-146 317.5h111q12 -158 118.5 -250t301.5 -92q180 -2 287.5 89t107.5 249q0 119 -76.5 182.5t-275.5 118.5q-219 63 -315.5 143.5t-96.5 224.5q0 177 130 286.5t341 109.5
q202 0 323.5 -95.5t131.5 -273.5h-107q-32 274 -356 274q-168 0 -261 -78t-93 -218q0 -101 74.5 -160t269.5 -115q114 -32 189 -65t130.5 -78.5t80 -105t24.5 -140.5q0 -199 -142 -320.5t-372 -121.5z" />
    <glyph glyph-name="scaron" unicode="&#x161;" horiz-adv-x="948" 
d="M860 1532l-262 -277h-102l-185 277h82l164 -186l215 186h88zM442 -18q-190 0 -294 90.5t-109 246.5h106q17 -245 299 -245q126 0 199.5 56t73.5 161q0 83 -55 128t-193 83q-175 47 -248.5 111t-73.5 180q0 139 104.5 216.5t256.5 77.5q157 0 255 -70.5t109 -219.5h-104
q-8 96 -75 147t-187 51q-117 0 -185.5 -50.5t-68.5 -145.5q0 -77 54 -119.5t196 -81.5q84 -22 139 -45t98.5 -57.5t63.5 -83.5t20 -117q0 -146 -106 -229.5t-275 -83.5z" />
    <glyph glyph-name="Tcommaaccent" unicode="&#x162;" horiz-adv-x="1144" 
d="M352 -418l-67 35l141 299l104 -31zM426 0l215 1370h-453l15 94h1024l-17 -94h-454l-215 -1370h-115z" />
    <glyph glyph-name="tcommaaccent" unicode="&#x163;" horiz-adv-x="679" 
d="M172 -418l-68 35l142 299l104 -31zM391 -14q-134 0 -193 78.5t-38 214.5l110 700h-157l14 92h158l39 244h108l-39 -244h279l-15 -92h-276l-113 -705q-32 -196 138 -196q64 0 131 24l-15 -92q-52 -24 -131 -24z" />
    <glyph glyph-name="Tcaron" unicode="&#x164;" horiz-adv-x="1144" 
d="M1030 1829l-258 -250h-100l-193 250h82l168 -160l213 160h88zM426 0l215 1370h-453l15 94h1024l-17 -94h-454l-215 -1370h-115z" />
    <glyph glyph-name="tcaron" unicode="&#x165;" horiz-adv-x="679" 
d="M610 1251l78 332h119l-115 -332h-82zM391 -14q-134 0 -193 78.5t-38 214.5l110 700h-157l14 92h158l39 244h108l-39 -244h279l-15 -92h-276l-113 -705q-32 -196 138 -196q64 0 131 24l-15 -92q-52 -24 -131 -24z" />
    <glyph glyph-name="Tbar" unicode="&#x166;" horiz-adv-x="1144" 
d="M238 748l12 88h307l84 534h-453l15 94h1024l-17 -94h-454l-84 -534h313l-14 -88h-314l-116 -748h-115l117 748h-305z" />
    <glyph glyph-name="tbar" unicode="&#x167;" horiz-adv-x="679" 
d="M57 618l13 80h155l45 281h-157l14 92h158l39 244h108l-39 -244h279l-15 -92h-276l-45 -281h276l-12 -80h-276l-56 -344q-32 -196 138 -196q64 0 131 24l-15 -92q-52 -24 -131 -24q-134 0 -193 78.5t-38 214.5l53 339h-156z" />
    <glyph glyph-name="Utilde" unicode="&#x168;" horiz-adv-x="1396" 
d="M655 -14q-277 0 -403.5 148.5t-83.5 424.5l145 905h113l-143 -905q-37 -241 57 -359t322 -118q196 0 304.5 103.5t143.5 326.5l152 952h114l-153 -966q-81 -512 -568 -512zM989 1585q-42 0 -89 27.5t-89.5 54.5t-71.5 27q-35 0 -64.5 -29.5t-41.5 -81.5h-82
q18 98 69 150.5t121 52.5q41 0 87.5 -27t89.5 -53.5t73 -26.5q34 0 64 28.5t41 80.5h82q-20 -97 -70.5 -150t-118.5 -53z" />
    <glyph glyph-name="utilde" unicode="&#x169;" horiz-adv-x="1173" 
d="M1085 1071l-120 -772q-28 -189 -25 -299h-104q-3 100 16 229q-60 -109 -161.5 -177t-235.5 -68q-178 0 -265 114t-53 334l103 639h108l-104 -659q-26 -164 35 -249t196 -85q147 0 261 96t141 262l100 635h108zM809 1262q-42 0 -89 27t-89.5 54t-71.5 27q-36 0 -65 -28
t-41 -80h-82q18 97 69 149.5t121 52.5q41 0 87.5 -27t89.5 -54t73 -27q34 0 63.5 28t40.5 80h82q-20 -97 -70 -149.5t-118 -52.5z" />
    <glyph glyph-name="Umacron" unicode="&#x16a;" horiz-adv-x="1396" 
d="M655 -14q-277 0 -403.5 148.5t-83.5 424.5l145 905h113l-143 -905q-37 -241 57 -359t322 -118q196 0 304.5 103.5t143.5 326.5l152 952h114l-153 -966q-81 -512 -568 -512zM606 1620l15 86h507l-14 -86h-508z" />
    <glyph glyph-name="umacron" unicode="&#x16b;" horiz-adv-x="1173" 
d="M1085 1071l-120 -772q-28 -189 -25 -299h-104q-3 100 16 229q-60 -109 -161.5 -177t-235.5 -68q-178 0 -265 114t-53 334l103 639h108l-104 -659q-26 -164 35 -249t196 -85q147 0 261 96t141 262l100 635h108zM438 1325l13 86h497l-14 -86h-496z" />
    <glyph glyph-name="Ubreve" unicode="&#x16c;" horiz-adv-x="1396" 
d="M655 -14q-277 0 -403.5 148.5t-83.5 424.5l145 905h113l-143 -905q-37 -241 57 -359t322 -118q196 0 304.5 103.5t143.5 326.5l152 952h114l-153 -966q-81 -512 -568 -512zM854 1579q-109 0 -178.5 70t-69.5 180h90q5 -75 46 -117.5t112 -42.5q73 0 122.5 43t63.5 117h88
q-12 -108 -91.5 -179t-182.5 -71z" />
    <glyph glyph-name="ubreve" unicode="&#x16d;" horiz-adv-x="1173" 
d="M1085 1071l-120 -772q-28 -189 -25 -299h-104q-3 100 16 229q-60 -109 -161.5 -177t-235.5 -68q-178 0 -265 114t-53 334l103 639h108l-104 -659q-26 -164 35 -249t196 -85q147 0 261 96t141 262l100 635h108zM684 1262q-107 0 -173.5 68.5t-66.5 178.5h91q3 -75 41 -116
t108 -41q72 0 118.5 41t61.5 116h86q-12 -110 -88 -178.5t-178 -68.5z" />
    <glyph glyph-name="Uring" unicode="&#x16e;" horiz-adv-x="1396" 
d="M655 -14q-277 0 -403.5 148.5t-83.5 424.5l145 905h113l-143 -905q-37 -241 57 -359t322 -118q196 0 304.5 103.5t143.5 326.5l152 952h114l-153 -966q-81 -512 -568 -512zM864 1561q56 0 91.5 37.5t35.5 97.5q0 56 -33 91.5t-88 35.5q-54 0 -91.5 -38.5t-37.5 -96.5
q0 -55 34 -91t89 -36zM864 1495q-84 0 -141 57t-57 136q0 83 60 140.5t144 57.5t140.5 -55t56.5 -135q0 -85 -59 -143t-144 -58z" />
    <glyph glyph-name="uring" unicode="&#x16f;" horiz-adv-x="1173" 
d="M698 1296q55 0 91 37.5t36 96.5q0 56 -32.5 91t-87.5 35t-92.5 -38.5t-37.5 -96.5q0 -55 34 -90t89 -35zM698 1231q-84 0 -141 55.5t-57 134.5q0 83 60.5 142t144.5 59t140 -56t56 -136q0 -83 -59 -141t-144 -58zM1085 1071l-120 -772q-28 -189 -25 -299h-104
q-3 100 16 229q-60 -109 -161.5 -177t-235.5 -68q-178 0 -265 114t-53 334l103 639h108l-104 -659q-26 -164 35 -249t196 -85q147 0 261 96t141 262l100 635h108z" />
    <glyph glyph-name="Uhungarumlaut" unicode="&#x170;" horiz-adv-x="1396" 
d="M664 1579l110 250h125l-154 -250h-81zM934 1579l110 250h125l-153 -250h-82zM655 -14q-277 0 -403.5 148.5t-83.5 424.5l145 905h113l-143 -905q-37 -241 57 -359t322 -118q196 0 304.5 103.5t143.5 326.5l152 952h114l-153 -966q-81 -512 -568 -512z" />
    <glyph glyph-name="uhungarumlaut" unicode="&#x171;" horiz-adv-x="1173" 
d="M1085 1071l-120 -772q-28 -189 -25 -299h-104q-3 100 16 229q-60 -109 -161.5 -177t-235.5 -68q-178 0 -265 114t-53 334l103 639h108l-104 -659q-26 -164 35 -249t196 -85q147 0 261 96t141 262l100 635h108zM506 1239l135 301h125l-176 -301h-84zM774 1239l137 301h125
l-176 -301h-86z" />
    <glyph glyph-name="Uogonek" unicode="&#x172;" horiz-adv-x="1396" 
d="M678 -373q-85 0 -133.5 40t-48.5 114q0 68 48.5 119.5t121.5 85.5h-21q-272 3 -396 151.5t-81 421.5l145 905h113l-143 -905q-37 -242 56 -359.5t320 -117.5q196 0 305.5 103t145.5 329l152 950h114l-153 -966q-27 -173 -100.5 -288t-204.5 -173q-17 -8 -59 -24.5
t-71 -28.5t-67 -33t-61.5 -42.5t-40.5 -52t-17 -65.5q0 -82 96 -82q44 0 97 17l-13 -80q-64 -19 -104 -19z" />
    <glyph glyph-name="uogonek" unicode="&#x173;" horiz-adv-x="1173" 
d="M1085 1071l-120 -772q-28 -189 -25 -299q-29 -17 -47.5 -28.5t-48 -34t-47 -42.5t-31.5 -48t-14 -56q0 -82 96 -82q40 0 96 17l-14 -80q-59 -19 -105 -19q-84 0 -132.5 40t-47.5 114q0 120 191 223q-3 100 16 225q-60 -109 -161.5 -177t-235.5 -68q-178 0 -265 114
t-53 334l103 639h108l-104 -659q-26 -164 35 -249t196 -85q147 0 261 96t141 262l100 635h108z" />
    <glyph glyph-name="Wcircumflex" unicode="&#x174;" horiz-adv-x="1841" 
d="M793 1579l256 250h102l190 -250h-81l-168 160l-211 -160h-88zM354 0l-159 1464h114l135 -1292l580 1292h74l174 -1296l549 1296h108l-624 -1464h-113l-164 1255l-565 -1255h-109z" />
    <glyph glyph-name="wcircumflex" unicode="&#x175;" horiz-adv-x="1554" 
d="M600 1239l262 277h101l186 -277h-82l-166 186l-213 -186h-88zM295 0l-158 1071h115l129 -944l434 944h94l135 -944l424 944h115l-493 -1071h-125l-129 899l-418 -899h-123z" />
    <glyph glyph-name="Ycircumflex" unicode="&#x176;" horiz-adv-x="1177" 
d="M455 0l102 651l-377 813h121l330 -719l522 719h119l-602 -821l-101 -643h-114zM465 1579l256 250h102l191 -250h-82l-168 160l-211 -160h-88z" />
    <glyph glyph-name="ycircumflex" unicode="&#x177;" horiz-adv-x="1011" 
d="M123 -373l268 471l-262 973h111l225 -854l467 854h117l-811 -1444h-115zM319 1239l263 277h100l186 -277h-82l-165 186l-213 -186h-89z" />
    <glyph glyph-name="Ydieresis" unicode="&#x178;" horiz-adv-x="1177" 
d="M455 0l102 651l-377 813h121l330 -719l522 719h119l-602 -821l-101 -643h-114zM575 1614q-32 0 -53.5 21.5t-21.5 52.5t22 53t53 22q32 0 53 -21t21 -52t-21.5 -53.5t-52.5 -22.5zM944 1614q-31 0 -52.5 21.5t-21.5 52.5t22 53t54 22q31 0 52.5 -21t21.5 -52t-22.5 -53.5
t-53.5 -22.5z" />
    <glyph glyph-name="Zacute" unicode="&#x179;" horiz-adv-x="1202" 
d="M711 1579l151 250h139l-198 -250h-92zM-31 0l4 23l1112 1349h-825l14 92h992l-2 -20l-1104 -1350h878l-16 -94h-1053z" />
    <glyph glyph-name="zacute" unicode="&#x17a;" horiz-adv-x="956" 
d="M535 1239l180 301h139l-229 -301h-90zM-39 0l4 18l828 961h-617l14 92h791l-4 -20l-819 -955h659l-16 -96h-840z" />
    <glyph glyph-name="Zdotaccent" unicode="&#x17b;" horiz-adv-x="1202" 
d="M-31 0l4 23l1112 1349h-825l14 92h992l-2 -20l-1104 -1350h878l-16 -94h-1053zM780 1612q-32 0 -55 22.5t-23 53.5t23 54t55 23t54 -22t22 -53t-22 -54.5t-54 -23.5z" />
    <glyph glyph-name="zdotaccent" unicode="&#x17c;" horiz-adv-x="956" 
d="M-39 0l4 18l828 961h-617l14 92h791l-4 -20l-819 -955h659l-16 -96h-840zM610 1300q-32 0 -55 22.5t-23 53.5q0 32 23 55t55 23t54 -22t22 -54q0 -31 -22 -54.5t-54 -23.5z" />
    <glyph glyph-name="Zcaron" unicode="&#x17d;" horiz-adv-x="1202" 
d="M1069 1829l-258 -250h-100l-193 250h82l168 -160l213 160h88zM-31 0l4 23l1112 1349h-825l14 92h992l-2 -20l-1104 -1350h878l-16 -94h-1053z" />
    <glyph glyph-name="zcaron" unicode="&#x17e;" horiz-adv-x="956" 
d="M903 1532l-262 -277h-102l-185 277h82l164 -186l215 186h88zM-39 0l4 18l828 961h-617l14 92h791l-4 -20l-819 -955h659l-16 -96h-840z" />
    <glyph glyph-name="florin" unicode="&#x192;" horiz-adv-x="786" 
d="M96 735l15 90h200l64 334q32 163 117.5 243.5t214.5 80.5q85 0 149 -31l-14 -86q-63 25 -133 25q-181 0 -226 -236l-63 -330h289l-17 -90h-289l-208 -1108h-109l209 1108h-199z" />
    <glyph glyph-name="Aringacute" unicode="&#x1fa;" horiz-adv-x="1312" 
d="M1061 0l-92 449h-660l-229 -449h-111l754 1464h151l297 -1464h-110zM782 1372l-426 -831h594zM819 1534q-84 0 -141 56.5t-57 135.5q0 83 60 141t144 58t140.5 -55t56.5 -135q0 -85 -59 -143t-144 -58zM819 1599q56 0 91.5 38t35.5 98q0 56 -33 91.5t-88 35.5
q-54 0 -91.5 -39t-37.5 -97q0 -55 34 -91t89 -36zM803 1985l151 249h140l-199 -249h-92z" />
    <glyph glyph-name="aringacute" unicode="&#x1fb;" horiz-adv-x="1079" 
d="M412 -16q-168 0 -259.5 82t-91.5 215q0 75 26 133t70.5 95t108 61t132.5 34t151 10h276l13 86q24 148 -35 221.5t-213 73.5q-249 0 -309 -227h-109q19 85 63 149t102.5 100t123 53t133.5 17q195 0 288.5 -101t63.5 -294l-61 -385q-30 -183 -23 -307h-104q-3 89 6 176
q-53 -87 -145 -139.5t-207 -52.5zM424 72q138 0 238 75.5t120 206.5l29 176h-260q-90 0 -155.5 -11t-118.5 -38t-80 -77t-27 -123q0 -93 64 -151t190 -58zM653 1276q56 0 91.5 37.5t35.5 95.5q0 56 -33 91.5t-88 35.5q-54 0 -91.5 -38.5t-37.5 -96.5q0 -55 34 -90t89 -35z
M653 1210q-84 0 -141 56t-57 135q0 83 60 142t144 59t140.5 -56.5t56.5 -136.5q0 -83 -59 -141t-144 -58zM653 1698l152 250h139l-199 -250h-92z" />
    <glyph glyph-name="AEacute" unicode="&#x1fc;" horiz-adv-x="1937" 
d="M-27 0l955 1464h1016l-17 -94h-717l-90 -571h590l-14 -94h-590l-96 -611h764l-15 -94h-878l69 451h-565l-291 -451h-121zM983 1370l-539 -829h521l131 829h-113zM1370 1579l152 250h139l-199 -250h-92z" />
    <glyph glyph-name="aeacute" unicode="&#x1fd;" horiz-adv-x="1818" 
d="M920 440q0 -364 333 -364q257 0 340 223h107q-52 -156 -168.5 -235.5t-282.5 -79.5q-165 0 -269.5 74.5t-143.5 211.5q-34 -95 -100 -161t-147 -95.5t-175 -29.5q-171 0 -262 78t-91 210q0 93 39.5 161t110 106t155 55.5t187.5 17.5h272l15 88q24 148 -36 221.5
t-214 73.5q-249 0 -309 -227h-109q19 85 63 149t102.5 100t123 53t133.5 17q292 0 342 -221q71 104 176 162.5t234 58.5q224 0 328.5 -141.5t66.5 -386.5l-6 -31h-811q-4 -29 -4 -88zM422 72q144 0 244.5 80t124.5 233l22 143h-262q-89 0 -154.5 -11.5t-118.5 -39.5
t-80.5 -78t-27.5 -123q0 -92 63.5 -148t188.5 -56zM1339 995q-155 0 -261.5 -101.5t-141.5 -281.5h702q21 184 -52 283.5t-247 99.5zM961 1239l180 301h139l-229 -301h-90z" />
    <glyph glyph-name="Oslashacute" unicode="&#x1fe;" horiz-adv-x="1632" 
d="M127 -49l-59 59l202 209q-143 179 -143 438q0 165 59 316t160.5 263t247.5 178.5t311 66.5q258 0 436 -154l181 186l57 -61l-178 -184q162 -188 162 -457q0 -226 -98.5 -415t-275.5 -300.5t-394 -111.5q-288 0 -469 172zM1446 811q0 227 -117 381l-930 -961
q148 -151 398 -151q142 0 264 57.5t206 156.5t131.5 233t47.5 284zM246 657q-3 -215 98 -362l928 960q-147 131 -369 131q-145 0 -269 -58.5t-208 -158.5t-131.5 -232.5t-48.5 -279.5zM893 1579l151 250h140l-199 -250h-92z" />
    <glyph glyph-name="oslashacute" unicode="&#x1ff;" horiz-adv-x="1185" 
d="M88 -51l-57 53l147 154q-100 133 -100 309q0 127 41 240.5t113.5 197.5t178.5 133t228 49q187 0 315 -112l136 143l59 -53l-141 -148q100 -127 100 -307q0 -176 -69 -318t-197.5 -224t-294.5 -82q-189 0 -316 114zM551 76q135 0 237 70t154.5 189.5t52.5 270.5
q0 134 -59 234l-639 -672q95 -92 254 -92zM188 465q0 -139 60 -236l639 672q-94 94 -252 94q-134 0 -237 -71.5t-156.5 -191.5t-53.5 -267zM616 1239l181 301h139l-229 -301h-91z" />
    <glyph glyph-name="Scommaaccent" unicode="&#x218;" 
d="M379 -418l-68 35l142 299l104 -31zM582 -16q-239 0 -379 118.5t-146 317.5h111q12 -158 118.5 -250t301.5 -92q180 -2 287.5 89t107.5 249q0 119 -76.5 182.5t-275.5 118.5q-219 63 -315.5 143.5t-96.5 224.5q0 177 130 286.5t341 109.5q202 0 323.5 -95.5t131.5 -273.5
h-107q-32 274 -356 274q-168 0 -261 -78t-93 -218q0 -101 74.5 -160t269.5 -115q114 -32 189 -65t130.5 -78.5t80 -105t24.5 -140.5q0 -199 -142 -320.5t-372 -121.5z" />
    <glyph glyph-name="scommaaccent" unicode="&#x219;" horiz-adv-x="948" 
d="M238 -418l-68 35l141 299l105 -31zM442 -18q-190 0 -294 90.5t-109 246.5h106q17 -245 299 -245q126 0 199.5 56t73.5 161q0 83 -55 128t-193 83q-175 47 -248.5 111t-73.5 180q0 139 104.5 216.5t256.5 77.5q157 0 255 -70.5t109 -219.5h-104q-8 96 -75 147t-187 51
q-117 0 -185.5 -50.5t-68.5 -145.5q0 -77 54 -119.5t196 -81.5q84 -22 139 -45t98.5 -57.5t63.5 -83.5t20 -117q0 -146 -106 -229.5t-275 -83.5z" />
    <glyph glyph-name="uni0237" unicode="&#x237;" horiz-adv-x="452" 
d="M-131 -383l14 90q88 4 129.5 46t55.5 130l188 1188h109l-189 -1194q-22 -134 -94 -196.5t-213 -63.5z" />
    <glyph glyph-name="circumflex" unicode="&#x2c6;" horiz-adv-x="819" 
d="M246 1239l262 277h100l187 -277h-82l-166 186l-213 -186h-88z" />
    <glyph glyph-name="caron" unicode="&#x2c7;" horiz-adv-x="819" 
d="M836 1532l-263 -277h-102l-184 277h82l163 -186l216 186h88z" />
    <glyph glyph-name="breve" unicode="&#x2d8;" horiz-adv-x="819" 
d="M545 1262q-107 0 -173.5 68.5t-66.5 178.5h90q3 -74 41.5 -115.5t108.5 -41.5q72 0 118.5 41t61.5 116h86q-12 -110 -88 -178.5t-178 -68.5z" />
    <glyph glyph-name="dotaccent" unicode="&#x2d9;" horiz-adv-x="819" 
d="M541 1300q-32 0 -55 22.5t-23 53.5q0 32 23 55t55 23t53.5 -22t21.5 -54q0 -31 -21.5 -54.5t-53.5 -23.5z" />
    <glyph glyph-name="ring" unicode="&#x2da;" horiz-adv-x="819" 
d="M547 1296q55 0 91 37.5t36 96.5q0 56 -33 91t-88 35q-54 0 -91.5 -38.5t-37.5 -96.5q0 -55 34 -90t89 -35zM547 1231q-84 0 -141.5 55.5t-57.5 134.5q0 83 60.5 142t144.5 59t140.5 -56t56.5 -136q0 -83 -59 -141t-144 -58z" />
    <glyph glyph-name="ogonek" unicode="&#x2db;" horiz-adv-x="819" 
d="M315 -373q-85 0 -133.5 40t-48.5 114q0 118 191 219h110q-39 -21 -63.5 -37t-59.5 -44t-53 -60.5t-18 -67.5q0 -82 96 -82q43 0 96 17l-12 -80q-64 -19 -105 -19z" />
    <glyph glyph-name="tilde" unicode="&#x2dc;" horiz-adv-x="819" 
d="M666 1262q-42 0 -89 27t-89.5 54t-71.5 27q-36 0 -66 -28t-41 -80h-82q18 97 69.5 149.5t121.5 52.5q41 0 87.5 -27t89.5 -54t73 -27q34 0 63.5 28t40.5 80h82q-20 -97 -70 -149.5t-118 -52.5z" />
    <glyph glyph-name="hungarumlaut" unicode="&#x2dd;" horiz-adv-x="819" 
d="M334 1239l135 301h125l-176 -301h-84zM602 1239l137 301h125l-176 -301h-86z" />
    <glyph glyph-name="Wgrave" unicode="&#x1e80;" horiz-adv-x="1841" 
d="M1034 1579l-149 250h133l100 -250h-84zM354 0l-159 1464h114l135 -1292l580 1292h74l174 -1296l549 1296h108l-624 -1464h-113l-164 1255l-565 -1255h-109z" />
    <glyph glyph-name="wgrave" unicode="&#x1e81;" horiz-adv-x="1554" 
d="M295 0l-158 1071h115l129 -944l434 944h94l135 -944l424 944h115l-493 -1071h-125l-129 899l-418 -899h-123zM836 1239l-150 301h131l103 -301h-84z" />
    <glyph glyph-name="Wacute" unicode="&#x1e82;" horiz-adv-x="1841" 
d="M1020 1579l151 250h140l-199 -250h-92zM354 0l-159 1464h114l135 -1292l580 1292h74l174 -1296l549 1296h108l-624 -1464h-113l-164 1255l-565 -1255h-109z" />
    <glyph glyph-name="wacute" unicode="&#x1e83;" horiz-adv-x="1554" 
d="M842 1239l180 301h139l-229 -301h-90zM295 0l-158 1071h115l129 -944l434 944h94l135 -944l424 944h115l-493 -1071h-125l-129 899l-418 -899h-123z" />
    <glyph glyph-name="Wdieresis" unicode="&#x1e84;" horiz-adv-x="1841" 
d="M901 1614q-32 0 -54 21.5t-22 52.5t22.5 53t53.5 22q32 0 53 -21t21 -52t-21.5 -53.5t-52.5 -22.5zM1270 1614q-31 0 -52.5 21.5t-21.5 52.5t22 53t54 22q31 0 52.5 -21t21.5 -52t-22.5 -53.5t-53.5 -22.5zM354 0l-159 1464h114l135 -1292l580 1292h74l174 -1296
l549 1296h108l-624 -1464h-113l-164 1255l-565 -1255h-109z" />
    <glyph glyph-name="wdieresis" unicode="&#x1e85;" horiz-adv-x="1554" 
d="M731 1303q-31 0 -52.5 21t-21.5 52t22.5 53.5t53.5 22.5t52.5 -21.5t21.5 -52.5t-22 -53t-54 -22zM1073 1303q-31 0 -52.5 21t-21.5 52t22 53.5t54 22.5q31 0 52.5 -21.5t21.5 -52.5t-22.5 -53t-53.5 -22zM295 0l-158 1071h115l129 -944l434 944h94l135 -944l424 944h115
l-493 -1071h-125l-129 899l-418 -899h-123z" />
    <glyph glyph-name="Ygrave" unicode="&#x1ef2;" horiz-adv-x="1177" 
d="M455 0l102 651l-377 813h121l330 -719l522 719h119l-602 -821l-101 -643h-114zM713 1579l-150 250h133l101 -250h-84z" />
    <glyph glyph-name="ygrave" unicode="&#x1ef3;" horiz-adv-x="1011" 
d="M123 -373l268 471l-262 973h111l225 -854l467 854h117l-811 -1444h-115zM567 1239l-149 301h131l102 -301h-84z" />
    <glyph glyph-name="uni2009" unicode="&#x2009;" horiz-adv-x="215" 
 />
    <glyph glyph-name="endash" unicode="&#x2013;" horiz-adv-x="1030" 
d="M88 522l16 92h840l-14 -92h-842z" />
    <glyph glyph-name="emdash" unicode="&#x2014;" horiz-adv-x="1779" 
d="M88 522l16 92h1590l-17 -92h-1589z" />
    <glyph glyph-name="quoteleft" unicode="&#x2018;" horiz-adv-x="423" 
d="M285 1081l-103 47l213 351l68 -35z" />
    <glyph glyph-name="quoteright" unicode="&#x2019;" horiz-adv-x="423" 
d="M256 1081l-66 35l177 363l102 -47z" />
    <glyph glyph-name="quotesinglbase" unicode="&#x201a;" horiz-adv-x="423" 
d="M39 -178l-64 35l177 362l100 -47z" />
    <glyph glyph-name="quotedblleft" unicode="&#x201c;" horiz-adv-x="708" 
d="M285 1081l-103 47l213 351l68 -35zM569 1081l-100 47l211 351l68 -35z" />
    <glyph glyph-name="quotedblright" unicode="&#x201d;" horiz-adv-x="708" 
d="M256 1081l-66 35l177 363l102 -47zM543 1081l-68 35l178 363l103 -47z" />
    <glyph glyph-name="quotedblbase" unicode="&#x201e;" horiz-adv-x="708" 
d="M39 -178l-64 35l177 362l100 -47zM326 -178l-66 35l178 362l101 -47z" />
    <glyph glyph-name="dagger" unicode="&#x2020;" horiz-adv-x="714" 
d="M293 453l102 645h-243l14 90h244l43 276h100l-45 -276h244l-15 -90h-241l-103 -645h-100z" />
    <glyph glyph-name="daggerdbl" unicode="&#x2021;" horiz-adv-x="714" 
d="M350 819l45 279h-243l14 90h244l43 276h100l-45 -276h244l-15 -90h-241l-45 -279h241l-14 -90h-240l-45 -276h-100l45 276h-244l12 90h244z" />
    <glyph glyph-name="bullet" unicode="&#x2022;" horiz-adv-x="647" 
d="M328 408q-90 0 -149.5 60.5t-59.5 147.5q0 95 64 160.5t161 65.5q90 0 150.5 -60.5t60.5 -146.5q0 -96 -63.5 -161.5t-163.5 -65.5z" />
    <glyph glyph-name="ellipsis" unicode="&#x2026;" horiz-adv-x="1427" 
d="M160 -10q-37 0 -62.5 25.5t-25.5 60.5q0 37 25.5 62.5t60.5 25.5q37 0 62.5 -25.5t25.5 -62.5q0 -35 -25.5 -60.5t-60.5 -25.5zM639 -10q-37 0 -62.5 25.5t-25.5 60.5q0 37 25.5 62.5t60.5 25.5q37 0 62.5 -25.5t25.5 -62.5q0 -35 -25.5 -60.5t-60.5 -25.5zM1118 -10
q-37 0 -62.5 25.5t-25.5 60.5q0 37 24.5 62.5t61.5 25.5q36 0 62 -26t26 -62q0 -35 -25.5 -60.5t-60.5 -25.5z" />
    <glyph glyph-name="perthousand" unicode="&#x2030;" horiz-adv-x="2263" 
d="M272 1118q0 -88 52.5 -146.5t146.5 -58.5q104 0 169 74.5t65 190.5q-2 89 -53 150t-146 61q-106 0 -170 -77.5t-64 -193.5zM469 827q-129 0 -213 84.5t-84 210.5q0 143 97.5 248t240.5 105q128 0 211.5 -86.5t83.5 -214.5q0 -147 -98 -247t-238 -100zM166 0l1159 1464
h109l-1162 -1464h-106zM883 279q0 -89 52 -148t146 -59q104 0 169 74t65 190q-2 89 -54 151t-145 62q-106 0 -169.5 -77t-63.5 -193zM1079 -14q-129 0 -213 84.5t-84 212.5q0 143 97.5 247.5t240.5 104.5q128 0 211.5 -86.5t83.5 -214.5q0 -147 -98 -247.5t-238 -100.5z
M1616 279q0 -89 52.5 -148t146.5 -59q104 0 168.5 74t64.5 190q-2 89 -54 151t-145 62q-106 0 -169.5 -77t-63.5 -193zM1812 -14q-129 0 -212.5 84.5t-83.5 212.5q0 143 97 247.5t240 104.5q128 0 210.5 -86t82.5 -215q0 -147 -97 -247.5t-237 -100.5z" />
    <glyph glyph-name="uni2032" unicode="&#x2032;" horiz-adv-x="356" 
d="M162 1036l123 428h123l-164 -428h-82z" />
    <glyph glyph-name="uni2033" unicode="&#x2033;" horiz-adv-x="624" 
d="M162 1036l123 428h123l-164 -428h-82zM428 1036l125 428h123l-164 -428h-84z" />
    <glyph glyph-name="guilsinglleft" unicode="&#x2039;" horiz-adv-x="593" 
d="M328 170l-219 367l333 362h115l-332 -369l209 -360h-106z" />
    <glyph glyph-name="guilsinglright" unicode="&#x203a;" horiz-adv-x="593" 
d="M262 899l219 -367l-334 -362h-114l332 369l-209 360h106z" />
    <glyph glyph-name="fraction" unicode="&#x2044;" horiz-adv-x="231" 
d="M-512 0l1214 1464h97l-1215 -1464h-96z" />
    <glyph glyph-name="Euro" unicode="&#x20ac;" horiz-adv-x="1337" 
d="M109 831l14 78h141q53 266 202 419t386 153q204 0 320.5 -109.5t125.5 -314.5h-108q-8 153 -94.5 242.5t-247.5 89.5q-191 0 -308.5 -124.5t-164.5 -355.5h510l-25 -78h-498l-32 -200h465l-25 -78h-451q-6 -74 0.5 -140t32 -128t68 -106.5t114 -71.5t164.5 -27
q161 0 271 90t155 270h105q-44 -222 -188 -339t-347 -117q-133 0 -233 44.5t-157 123t-81 180t-14 221.5h-143l14 78h137l33 200h-141z" />
    <glyph glyph-name="trademark" unicode="&#x2122;" horiz-adv-x="1382" 
d="M694 819l103 645h108l125 -508l287 508h115l-103 -645h-80l86 547l-313 -547h-27l-143 547l-86 -547h-72zM295 819l92 582h-201l11 63h479l-10 -63h-201l-92 -582h-78z" />
    <glyph glyph-name="onethird" unicode="&#x2153;" horiz-adv-x="1458" 
d="M1075 -8q-110 0 -182 53.5t-76 161.5h86q5 -66 50 -106t120 -40q71 0 119.5 38.5t48.5 109.5q0 55 -36 89t-101 34h-49l10 67h57q63 0 102.5 32t39.5 93q0 55 -34.5 86t-94.5 31q-67 0 -110.5 -36.5t-59.5 -98.5h-82q15 92 84.5 148.5t169.5 56.5q93 0 155 -45.5
t62 -135.5q0 -60 -37 -103t-103 -62q53 -14 86 -55t33 -103q0 -100 -75 -157.5t-183 -57.5zM262 762l96 602l-198 -123l12 86l219 137h76l-113 -702h-92zM20 0l1215 1464h96l-1214 -1464h-97z" />
    <glyph glyph-name="twothirds" unicode="&#x2154;" horiz-adv-x="1548" 
d="M1165 -8q-110 0 -182 53.5t-76 161.5h86q5 -66 50 -106t120 -40q71 0 119.5 38.5t48.5 109.5q0 55 -36 89t-101 34h-49l10 67h57q63 0 102.5 32t39.5 93q0 55 -34.5 86t-94.5 31q-67 0 -110.5 -36.5t-59.5 -98.5h-82q15 92 84.5 148.5t169.5 56.5q93 0 155 -45.5
t62 -135.5q0 -61 -36.5 -103.5t-102.5 -61.5q53 -14 85.5 -55t32.5 -103q0 -100 -75 -157.5t-183 -57.5zM68 762l2 18l305 260q61 51 90.5 80t53.5 72t24 90q0 54 -34.5 86.5t-90.5 32.5q-134 0 -174 -160h-84q20 109 92 170.5t172 61.5q90 0 149.5 -51t59.5 -140
q0 -43 -12.5 -79t-45 -74t-59.5 -63t-84 -73l-194 -159h335l-12 -72h-493zM137 0l1215 1464h96l-1215 -1464h-96z" />
    <glyph glyph-name="oneeighth" unicode="&#x215b;" horiz-adv-x="1447" 
d="M1059 -8q-104 0 -177 50t-73 144q0 77 47.5 126t128.5 69q-45 18 -72.5 54t-27.5 85q0 86 69.5 138.5t167.5 52.5q88 0 153.5 -45.5t65.5 -130.5q0 -123 -139 -164q121 -44 121 -164q0 -103 -75 -159t-189 -56zM901 193q0 -59 43 -95.5t119 -36.5q72 0 121 36.5t49 109.5
q0 63 -43.5 99t-114.5 36q-72 0 -123 -38t-51 -111zM973 518q0 -52 39.5 -82t97.5 -30q61 0 103 32t42 92q0 50 -39 81.5t-98 31.5q-61 0 -103 -32.5t-42 -92.5zM262 762l96 602l-198 -123l12 86l219 137h76l-113 -702h-92zM20 0l1215 1464h96l-1214 -1464h-97z" />
    <glyph glyph-name="threeeighths" unicode="&#x215c;" horiz-adv-x="1536" 
d="M1149 -8q-104 0 -177 50t-73 144q0 77 47.5 126t128.5 69q-45 18 -72.5 54t-27.5 85q0 86 69.5 138.5t167.5 52.5q88 0 154 -45.5t66 -130.5q0 -122 -140 -164q121 -44 121 -164q0 -103 -75 -159t-189 -56zM991 193q0 -59 43 -95.5t119 -36.5q72 0 121 36.5t49 109.5
q0 63 -43.5 99t-114.5 36q-72 0 -123 -38t-51 -111zM1063 518q0 -52 39.5 -82t97.5 -30q61 0 103.5 32t42.5 92q0 50 -39.5 81.5t-98.5 31.5q-61 0 -103 -32.5t-42 -92.5zM139 0l1215 1464h96l-1214 -1464h-97zM381 754q-109 0 -181 53.5t-75 161.5h86q5 -67 49 -106.5
t121 -39.5q71 0 118.5 38.5t47.5 109.5q0 56 -35.5 89.5t-99.5 33.5h-50l11 67h57q63 0 102 32t39 93q0 55 -34.5 86t-94.5 31q-67 0 -112 -36.5t-60 -98.5h-82q15 92 85.5 148.5t170.5 56.5q92 0 153.5 -45.5t61.5 -135.5q0 -61 -36 -104.5t-101 -63.5q54 -13 86.5 -53.5
t32.5 -103.5q0 -99 -75.5 -156t-184.5 -57z" />
    <glyph glyph-name="fiveeighths" unicode="&#x215d;" horiz-adv-x="1519" 
d="M1130 -8q-104 0 -176.5 50t-72.5 144q0 77 47.5 126t128.5 69q-45 18 -73 54t-28 85q0 86 70 138.5t168 52.5q88 0 153.5 -45.5t65.5 -130.5q0 -123 -139 -164q121 -44 121 -164q0 -103 -75 -159t-190 -56zM973 193q0 -59 43 -95.5t119 -36.5q72 0 121 36.5t49 109.5
q0 63 -43.5 99t-114.5 36q-72 0 -123 -38t-51 -111zM1044 518q0 -52 40 -82t98 -30q61 0 103 32t42 92q0 50 -39 81.5t-98 31.5q-61 0 -103.5 -32.5t-42.5 -92.5zM354 754q-99 0 -164 48.5t-71 149.5h86q6 -60 44.5 -93.5t104.5 -33.5q77 0 123.5 50t46.5 137
q0 65 -38.5 104t-106.5 39q-92 0 -158 -70h-47l66 379h407l-10 -71h-336l-37 -224q60 56 150 56q88 0 146 -56t58 -151q-2 -120 -74 -192t-190 -72zM119 0l1214 1464h97l-1215 -1464h-96z" />
    <glyph glyph-name="seveneighths" unicode="&#x215e;" horiz-adv-x="1429" 
d="M1042 -8q-104 0 -176.5 50t-72.5 144q0 77 47.5 126t128.5 69q-45 18 -73 54t-28 85q0 86 70 138.5t168 52.5q88 0 153.5 -45.5t65.5 -130.5q0 -123 -139 -164q121 -44 121 -164q0 -103 -75 -159t-190 -56zM885 193q0 -59 43 -95.5t119 -36.5q72 0 121 36.5t49 109.5
q0 63 -43.5 99t-114.5 36q-72 0 -123 -38t-51 -111zM956 518q0 -52 40 -82t98 -30q61 0 103 32t42 92q0 50 -39 81.5t-98 31.5q-61 0 -103.5 -32.5t-42.5 -92.5zM184 762l355 627h-373l12 75h494l-4 -12l-385 -690h-99zM0 0l1214 1464h97l-1215 -1464h-96z" />
    <glyph glyph-name="minus" unicode="&#x2212;" horiz-adv-x="1044" 
d="M90 653l16 95h895l-14 -95h-897z" />
    <glyph glyph-name="approxequal" unicode="&#x2248;" horiz-adv-x="1013" 
d="M117 711q17 98 76.5 153.5t146.5 55.5q65 0 144 -28t153.5 -55.5t128.5 -27.5q50 0 86 32.5t45 82.5h86q-19 -99 -77.5 -154t-143.5 -55q-66 0 -145.5 27t-154 54t-126.5 27q-51 0 -86 -30.5t-47 -81.5h-86zM61 369q17 98 77 153.5t147 55.5q52 0 113 -17t108.5 -37.5
t103.5 -37.5t99 -17q52 0 88 31.5t45 81.5h86q-19 -99 -77.5 -154t-143.5 -55q-66 0 -146 27t-154.5 54t-127.5 27q-51 0 -85.5 -30.5t-46.5 -81.5h-86z" />
    <glyph glyph-name="notequal" unicode="&#x2260;" horiz-adv-x="991" 
d="M117 778l16 94h449l131 240h102l-131 -240h277l-17 -94h-311l-135 -248h409l-16 -94h-445l-129 -239h-102l129 239h-281l17 94h315l135 248h-413z" />
    <glyph glyph-name="lessequal" unicode="&#x2264;" horiz-adv-x="1015" 
d="M842 240l-721 430l4 26l852 406l-16 -111l-674 -313l571 -336zM18 0l15 92h786l-16 -92h-785z" />
    <glyph glyph-name="greaterequal" unicode="&#x2265;" horiz-adv-x="1015" 
d="M41 0l14 92h787l-17 -92h-784zM213 1102l721 -430l-6 -27l-852 -405l18 110l674 314l-571 335z" />
    <glyph glyph-name="uni24C5" unicode="&#x24c5;" horiz-adv-x="1728" 
d="M657 319v832h244q142 0 220.5 -60t78.5 -184v-6q0 -124 -79 -184t-216 -60h-141v-338h-107zM764 737h137q195 0 195 164v6q0 160 -195 160h-137v-330zM885 47q137 0 261.5 52t216 142t146 219t54.5 275q0 145 -53 272t-143 216.5t-214.5 141.5t-263.5 52t-264 -52
t-216 -142.5t-144.5 -218.5t-53.5 -273q0 -146 54.5 -274.5t146.5 -217.5t215 -140.5t258 -51.5zM885 -18q-154 0 -292.5 58t-239 157t-159.5 238.5t-59 295.5q0 154 59 293.5t159.5 240t240.5 159.5t295 59q157 0 296.5 -58.5t238.5 -159t156.5 -238.5t57.5 -292
q0 -126 -37.5 -241.5t-106.5 -208t-161.5 -161t-207.5 -105.5t-240 -37z" />
    <glyph glyph-name="f_i" unicode="&#xfb01;" horiz-adv-x="1116" 
d="M115 979l14 92h162l33 199q26 168 113 243.5t216 75.5q63 0 125 -20l-14 -88q-43 16 -109 16q-90 0 -146 -52.5t-77 -178.5l-31 -195h297l-14 -92h-297l-156 -979h-108l153 979h-161zM748 0l170 1071h108l-170 -1071h-108zM1016 1300q-32 0 -54 22.5t-22 53.5q0 32 23 55
t55 23q31 0 53.5 -22t22.5 -54q0 -31 -23 -54.5t-55 -23.5z" />
    <glyph glyph-name="f_l" unicode="&#xfb02;" horiz-adv-x="1116" 
d="M115 979l14 92h162l33 199q26 168 113 243.5t216 75.5q63 0 125 -20l-14 -88q-43 16 -109 16q-90 0 -146 -52.5t-77 -178.5l-31 -195h297l-14 -92h-297l-156 -979h-108l153 979h-161zM748 0l249 1583h111l-250 -1583h-110z" />
    <glyph glyph-name="space_uni0326" horiz-adv-x="819" 
d="M219 -418l-67 35l141 299l104 -31z" />
    <glyph glyph-name="caron.alt" horiz-adv-x="684" 
d="M406 1251l77 332h119l-115 -332h-81z" />
    <glyph glyph-name="space_uni0326.alt" horiz-adv-x="819" 
d="M639 1577l68 -35l-144 -299l-104 31z" />
    <glyph glyph-name="grave.uc" horiz-adv-x="819" 
d="M543 1579l-150 250h133l101 -250h-84z" />
    <glyph glyph-name="dieresis.uc" horiz-adv-x="819" 
d="M406 1614q-32 0 -54 21.5t-22 52.5t22.5 53t53.5 22q32 0 52.5 -21t20.5 -52t-21.5 -53.5t-51.5 -22.5zM774 1614q-31 0 -52.5 21.5t-21.5 52.5t22 53t54 22q31 0 52.5 -21t21.5 -52t-22.5 -53.5t-53.5 -22.5z" />
    <glyph glyph-name="macron.uc" horiz-adv-x="819" 
d="M326 1620l14 86h508l-14 -86h-508z" />
    <glyph glyph-name="acute.uc" horiz-adv-x="819" 
d="M518 1579l152 250h139l-199 -250h-92z" />
    <glyph glyph-name="circumflex.uc" horiz-adv-x="819" 
d="M299 1579l256 250h102l191 -250h-82l-168 160l-211 -160h-88z" />
    <glyph glyph-name="caron.uc" horiz-adv-x="819" 
d="M885 1829l-258 -250h-101l-192 250h82l168 -160l213 160h88z" />
    <glyph glyph-name="breve.uc" horiz-adv-x="819" 
d="M598 1579q-109 0 -178.5 70t-69.5 180h90q5 -75 46 -117.5t112 -42.5q73 0 122.5 43t63.5 117h88q-12 -108 -91.5 -179t-182.5 -71z" />
    <glyph glyph-name="dotaccent.uc" horiz-adv-x="819" 
d="M590 1612q-32 0 -55 22.5t-23 53.5t23 54t55 23t54 -22t22 -53t-22 -54.5t-54 -23.5z" />
    <glyph glyph-name="ring.uc" horiz-adv-x="819" 
d="M596 1610q56 0 91.5 37.5t35.5 97.5q0 56 -33 91.5t-88 35.5q-54 0 -91.5 -38.5t-37.5 -96.5q0 -55 34 -91t89 -36zM596 1544q-84 0 -141.5 57t-57.5 136q0 83 60.5 140.5t144.5 57.5t140.5 -55t56.5 -135q0 -85 -59 -143t-144 -58z" />
    <glyph glyph-name="tilde.uc" horiz-adv-x="819" 
d="M721 1585q-42 0 -89 27.5t-89.5 54.5t-71.5 27q-35 0 -64.5 -29.5t-41.5 -81.5h-82q18 98 69 150.5t121 52.5q41 0 87.5 -27t89.5 -53.5t73 -26.5q34 0 63.5 28.5t40.5 80.5h82q-20 -97 -70 -150t-118 -53z" />
    <glyph glyph-name="hungarumlaut.uc" horiz-adv-x="819" 
d="M395 1579l111 250h125l-154 -250h-82zM666 1579l110 250h125l-153 -250h-82z" />
    <glyph glyph-name="idotaccent" horiz-adv-x="452" 
d="M354 1300q-32 0 -53.5 22.5t-21.5 53.5q0 32 22.5 55t54.5 23q31 0 53.5 -22t22.5 -54q0 -31 -23 -54.5t-55 -23.5zM86 0l170 1071h109l-170 -1071h-109z" />
    <glyph glyph-name="registered.alt" horiz-adv-x="1728" 
d="M629 324v835h252q139 0 218 -56.5t79 -176.5v-4q0 -97 -54.5 -153.5t-146.5 -70.5l250 -374h-117l-244 360h-131v-360h-106zM735 764h144q194 0 194 154v6q0 82 -49.5 116.5t-144.5 34.5h-144v-311zM885 47q137 0 261.5 52t216 142t146 219t54.5 275q0 145 -53 272
t-143 216.5t-214.5 141.5t-263.5 52t-264 -52t-216 -142.5t-144.5 -218.5t-53.5 -273q0 -146 54.5 -274.5t146.5 -217.5t215 -140.5t258 -51.5zM885 -18q-154 0 -292.5 58t-239 157t-159.5 238.5t-59 295.5q0 154 59 293.5t159.5 240t240.5 159.5t295 59q157 0 296.5 -58.5
t238.5 -159t156.5 -238.5t57.5 -292q0 -126 -37.5 -241.5t-106.5 -208t-161.5 -161t-207.5 -105.5t-240 -37z" />
    <glyph glyph-name="dollar.old" horiz-adv-x="1204" 
d="M578 -14h-25l-39 -254h-82l41 260q-190 25 -298.5 135t-113.5 281h109q9 -134 89 -220.5t228 -107.5l97 616q-192 57 -279.5 139t-87.5 218q0 170 132.5 276.5t336.5 106.5h14l29 180h82l-29 -186q157 -22 251.5 -112.5t101.5 -238.5h-101q-25 222 -266 260l-90 -565
q105 -31 174 -61.5t120.5 -73.5t75 -99t23.5 -132q0 -194 -135 -308t-358 -114zM961 397q0 109 -65 169t-232 110l-97 -602h13q176 0 278.5 85t102.5 238zM326 1057q0 -92 60 -150t214 -108l86 547h-10q-163 0 -256.5 -77t-93.5 -212z" />
    <glyph glyph-name="Euro.old" horiz-adv-x="1323" 
d="M102 805l15 78h135q51 258 196.5 405.5t376.5 147.5q197 0 311 -106t121 -304h-106q-8 148 -92 234t-240 86q-363 0 -457 -463h494l-22 -78h-484l-33 -193h451l-23 -75h-438q-6 -72 1 -135.5t31.5 -124.5t65.5 -104.5t110 -70t159 -26.5q157 0 264 88t149 264h103
q-30 -145 -105.5 -246t-180 -149.5t-232.5 -48.5q-129 0 -226 43t-153 119.5t-80 175.5t-14 215h-138l15 75h131l31 193h-136z" />
    <glyph glyph-name="sterling.old" horiz-adv-x="1185" 
d="M117 651l14 82h145q-12 136 -12 211q0 217 122 354.5t349 137.5q185 0 287.5 -96t105.5 -267h-108q-14 270 -289 270q-178 0 -267 -110t-89 -291q0 -73 12 -209h451l-13 -82h-432q6 -67 6 -141q0 -181 -75 -297q61 -11 206 -72t218 -61q86 0 143.5 51t71.5 154h96
q-19 -140 -102.5 -220.5t-213.5 -80.5q-60 0 -131.5 22.5t-126 50t-116.5 50t-107 22.5q-62 0 -104 -36t-56 -93h-96q16 77 72.5 139.5t138.5 75.5q78 115 78 287q0 47 -8 149h-170z" />
    <glyph glyph-name="yen.old" horiz-adv-x="1097" 
d="M150 606l12 78h340l-312 737h115l281 -676l469 676h114l-520 -737h340l-14 -78h-357l-30 -192h356l-12 -78h-357l-51 -336h-108l51 336h-361l13 78h360l29 192h-358z" />
    <glyph glyph-name="zero.old" horiz-adv-x="1282" 
d="M229 621q-10 -75 -10 -132q0 -185 97 -298t292 -113q186 0 304 125.5t155 361.5l12 84q11 62 11 129q2 190 -94.5 302t-284.5 112q-184 0 -307.5 -125.5t-161.5 -361.5zM602 -16q-240 0 -368 141t-128 369q0 54 11 133l12 86q44 271 201 421t383 150q161 0 274 -67.5
t165.5 -181t51.5 -261.5q0 -66 -12 -133l-12 -84q-43 -271 -193.5 -422t-384.5 -151z" />
    <glyph glyph-name="one.old" horiz-adv-x="739" 
d="M305 0l180 1145l-368 -230l16 109l387 244h94l-198 -1268h-111z" />
    <glyph glyph-name="two.old" horiz-adv-x="1079" 
d="M-47 0l4 27l596 454q41 32 52.5 41t51 40.5t54 45.5t47 46t46 52t35.5 52t31.5 59t17 60.5t7.5 66.5q1 122 -75.5 186t-203.5 64q-140 0 -237 -85t-133 -249h-105q35 199 166.5 311.5t315.5 112.5q164 0 276 -87.5t111 -252.5q-1 -66 -22 -126t-52 -106.5t-83.5 -97.5
t-98.5 -88.5t-114 -88.5l-36 -27l-416 -318h725l-14 -92h-946z" />
    <glyph glyph-name="three.old" horiz-adv-x="1157" 
d="M508 -213q-212 0 -347 114t-138 316h106q6 -161 106.5 -250.5t278.5 -89.5q170 0 273.5 91.5t103.5 264.5q0 132 -79 211.5t-230 79.5h-99l15 94h104q159 0 245.5 79t86.5 231q0 124 -78.5 194t-214.5 70q-145 0 -240.5 -81t-126.5 -228h-102q31 181 160.5 291t316.5 110
q174 0 284.5 -95t110.5 -257q0 -140 -72.5 -234t-207.5 -129q112 -32 177 -117.5t65 -213.5q0 -139 -66 -242.5t-178 -156t-254 -52.5z" />
    <glyph glyph-name="four.old" horiz-adv-x="1218" 
d="M705 -199l53 334h-762l4 35l887 1096h160l-166 -1041h204l-12 -90h-205l-53 -334h-110zM158 225h614l152 955z" />
    <glyph glyph-name="five.old" horiz-adv-x="1126" 
d="M14 170h105q12 -138 100.5 -215.5t243.5 -77.5q188 0 296.5 125t108.5 322q0 139 -81 231t-230 92q-116 1 -202 -40t-162 -115h-41l124 776h783l-15 -97h-692l-88 -553q58 52 140 85.5t178 33.5q180 0 290.5 -113t110.5 -292q0 -153 -62 -276t-182.5 -196t-279.5 -73
q-190 0 -311.5 99t-133.5 284z" />
    <glyph glyph-name="six.old" horiz-adv-x="1196" 
d="M571 -16q-224 0 -341 124.5t-117 327.5q0 75 16 189l25 145q58 364 216 537.5t392 173.5q169 0 270 -83.5t113 -242.5h-107q-29 234 -284 234q-385 0 -490 -609l-14 -86q61 104 170.5 159.5t238.5 55.5q191 0 306.5 -110t115.5 -297q0 -224 -143 -371t-367 -147zM221 424
q0 -160 92 -256t262 -96q175 0 284.5 119.5t109.5 304.5q0 147 -87 235t-249 88q-173 0 -292.5 -109.5t-119.5 -285.5z" />
    <glyph glyph-name="seven.old" horiz-adv-x="1021" 
d="M141 -199l793 1375h-780l14 90h922l-3 -19l-827 -1446h-119z" />
    <glyph glyph-name="eight.old" horiz-adv-x="1171" 
d="M543 -16q-128 0 -233 44t-170.5 133.5t-65.5 209.5q0 85 30.5 158.5t83 125.5t120.5 87t147 49q-97 35 -156 111t-59 179q0 118 63 210.5t166 141t225 48.5q107 0 196.5 -40t146.5 -122t57 -191q0 -140 -84 -230t-224 -124q120 -38 193.5 -127.5t73.5 -210.5
q0 -138 -70.5 -242.5t-185 -157t-254.5 -52.5zM188 377q0 -134 98 -216.5t263 -82.5q107 0 193.5 38.5t141 121t54.5 198.5q0 131 -95 214t-253 83q-170 0 -286 -95t-116 -261zM352 1081q0 -112 83.5 -185t219.5 -73q139 0 232.5 80t93.5 223q0 116 -81.5 190.5t-211.5 74.5
q-143 0 -239.5 -83.5t-96.5 -226.5z" />
    <glyph glyph-name="nine.old" horiz-adv-x="1196" 
d="M655 1284q221 0 338 -126t117 -329q0 -98 -14 -178l-25 -159q-112 -705 -600 -705q-181 0 -286.5 88.5t-118.5 257.5h106q31 -254 301 -254q189 0 308.5 137.5t174.5 456.5l17 100q-61 -104 -171 -159.5t-239 -55.5q-191 0 -306.5 109.5t-115.5 298.5q0 223 145 370.5
t369 147.5zM1001 848q0 158 -90 252t-260 94q-177 0 -286 -119.5t-109 -304.5q0 -145 87 -233t247 -88q173 0 292 111.5t119 287.5z" />
    <glyph glyph-name="dollar.tab" 
d="M592 -16h-27l-41 -260h-80l41 268q-194 25 -305 138.5t-117 289.5h111q11 -138 93 -227.5t233 -110.5l102 637q-199 59 -289 142t-90 224q0 176 135.5 286t346.5 110h16l31 184h79l-30 -190q163 -22 260 -115t104 -248h-102q-26 230 -277 268l-92 -581q108 -32 179 -63.5
t124 -75.5t77 -102t24 -136q0 -199 -139 -318.5t-367 -119.5zM987 412q0 112 -67.5 173t-241.5 113l-98 -622h14q182 0 287.5 89t105.5 247zM332 1090q0 -96 63 -156.5t223 -112.5l89 568h-13q-168 0 -265 -80t-97 -219z" />
    <glyph glyph-name="Euro.tab" 
d="M98 831l13 78h129q47 279 184.5 424.5t351.5 147.5q192 0 297.5 -107.5t108.5 -308.5h-107q-13 327 -299 324q-173 0 -278 -118.5t-146 -361.5h467l-28 -78h-451l-33 -200h414l-27 -78h-399q-7 -75 -6.5 -144.5t21.5 -129.5t58 -104t103.5 -69.5t157.5 -25.5
q150 0 246 84.5t145 267.5h104q-101 -448 -495 -448q-132 0 -226.5 42.5t-146 119.5t-69.5 179t-5 228h-127l13 78h127l30 200h-127z" />
    <glyph glyph-name="sterling.tab" 
d="M129 670l12 84h152q-12 140 -12 219q0 109 29.5 200t87 160.5t150.5 108.5t212 39q191 0 295.5 -98.5t107.5 -276.5h-110q-6 130 -78 204t-219 74q-183 0 -273 -112.5t-90 -300.5q0 -65 13 -217h464l-14 -84h-444q6 -68 6 -144q0 -185 -78 -307q63 -12 209.5 -74.5
t220.5 -62.5q88 0 147.5 53.5t73.5 159.5h101q-20 -147 -105.5 -229t-218.5 -82q-63 0 -136.5 23.5t-128 51t-118 51t-109.5 23.5q-65 0 -107 -37t-56 -96h-99q16 79 74 144t143 79q80 116 80 293q0 48 -8 154h-174z" />
    <glyph glyph-name="yen.tab" 
d="M213 625l12 80h353l-310 759h119l277 -696l475 696h114l-526 -759h350l-14 -80h-367l-30 -199h366l-14 -80h-365l-55 -346h-111l54 346h-373l12 80h373l31 199h-371z" />
    <glyph glyph-name="zero.tab" 
d="M240 608q-15 -99 -15 -157q2 -169 85 -270t259 -101q184 0 290.5 116.5t144.5 362.5l47 293q12 76 12 149q0 83 -19 150.5t-58 121.5t-106.5 83.5t-158.5 29.5q-178 0 -288 -122.5t-148 -360.5zM571 -16q-151 0 -255.5 61t-153 164t-49.5 240q0 73 14 169l47 293
q44 279 186 424.5t363 145.5q116 0 204 -36.5t141.5 -102t80 -151.5t25.5 -190q0 -71 -13 -157l-47 -293q-88 -567 -543 -567z" />
    <glyph glyph-name="one.tab" 
d="M592 0l211 1337l-518 -360l16 113l528 374h107l-231 -1464h-113z" />
    <glyph glyph-name="two.tab" 
d="M8 0l4 27l701 598q68 57 116 106.5t92 110.5t66.5 129t22.5 141q0 122 -75 198t-208 76q-305 3 -389 -348h-107q38 218 174 330.5t328 112.5q173 0 282 -100t109 -267q0 -86 -26 -163t-79 -147.5t-108 -125.5t-139 -125l-545 -459h768l-14 -94h-973z" />
    <glyph glyph-name="three.tab" 
d="M559 -16q-213 0 -342.5 115.5t-130.5 314.5h109q3 -155 97.5 -245.5t270.5 -90.5q175 0 281 92.5t106 271.5q0 123 -76.5 200t-228.5 77h-90l14 96h115q142 0 233 77.5t91 229.5q0 121 -76.5 191.5t-208.5 70.5q-143 0 -242.5 -79.5t-132.5 -225.5h-102q30 181 165 291.5
t318 110.5q106 0 193 -38.5t142.5 -120.5t55.5 -196q0 -136 -77 -232t-212 -130q110 -29 173 -114.5t63 -207.5q0 -143 -67.5 -248t-181.5 -157.5t-259 -52.5z" />
    <glyph glyph-name="four.tab" 
d="M737 0l51 330h-733l6 35l859 1099h161l-163 -1040h186l-17 -94h-186l-51 -330h-113zM223 424h582l149 948z" />
    <glyph glyph-name="five.tab" 
d="M543 -16q-194 0 -318 104.5t-133 288.5h109q11 -138 99.5 -218.5t244.5 -80.5q191 0 300 124t109 328q0 145 -85 236.5t-238 91.5q-210 0 -363 -160h-43l123 766h799l-17 -98h-702l-84 -530q54 50 137.5 83t182.5 33q182 0 294.5 -115.5t112.5 -301.5
q0 -157 -63.5 -281.5t-184.5 -197t-280 -72.5z" />
    <glyph glyph-name="six.tab" 
d="M592 -16q-224 0 -346 124.5t-121 356.5q0 81 18 194l17 105q55 341 209.5 529t414.5 188q179 0 282.5 -86.5t113.5 -247.5h-109q-25 237 -293 237q-400 0 -506 -612l-10 -70q65 109 176 169.5t240 60.5q189 0 312.5 -110t123.5 -300q0 -152 -64.5 -274t-184.5 -193
t-273 -71zM236 426q0 -157 94 -253.5t264 -96.5q183 0 294 125t111 315q0 147 -93 235.5t-257 88.5q-175 0 -294 -115t-119 -299z" />
    <glyph glyph-name="seven.tab" 
d="M279 0l768 1370h-797l14 94h946l-2 -18l-811 -1446h-118z" />
    <glyph glyph-name="eight.tab" 
d="M582 -16q-91 0 -175 25t-152 72t-108.5 124t-40.5 172q0 171 104 280.5t277 143.5q-97 33 -157 112t-60 185q0 113 63.5 201.5t166 135t223.5 46.5q165 0 285 -98.5t120 -256.5q0 -273 -305 -342q122 -39 195.5 -131.5t73.5 -218.5q0 -109 -41.5 -196t-112.5 -141.5
t-162 -83.5t-194 -29zM221 389q0 -146 105 -227.5t262 -81.5q171 0 279 91t108 263q0 137 -97.5 222t-252.5 85q-112 0 -201.5 -38t-146 -119t-56.5 -195zM383 1100q0 -114 86 -190t225 -76q87 0 157.5 28t117.5 95t47 165q0 116 -85.5 191.5t-215.5 75.5
q-87 0 -160.5 -30.5t-122 -98t-49.5 -160.5z" />
    <glyph glyph-name="nine.tab" 
d="M520 -14q-179 0 -294 88t-132 262h111q36 -256 323 -256q194 0 315 142t173 464l10 72q-63 -108 -173.5 -167t-240.5 -59q-121 0 -218.5 46.5t-157.5 142t-60 225.5q0 233 148 384t383 151q216 0 336 -124.5t120 -352.5q0 -78 -18 -197l-19 -119q-60 -374 -209.5 -538
t-396.5 -164zM291 950q0 -150 91.5 -237.5t244.5 -87.5q181 0 303.5 112.5t122.5 300.5q0 157 -90 255t-258 98q-187 0 -300.5 -124t-113.5 -317z" />
    <glyph glyph-name="cent.tab" 
d="M614 -16h-18l-41 -260h-82l41 268q-178 29 -278.5 156.5t-100.5 320.5q0 135 43.5 251t118.5 195.5t176 125t215 46.5l33 201h82l-33 -207q147 -19 241 -112t101 -244h-104q-4 112 -73 181t-179 85l-146 -915h8q137 0 235 73.5t134 217.5h105q-42 -185 -170.5 -284
t-307.5 -99zM246 469q0 -161 74.5 -261.5t207.5 -125.5l146 913q-189 -6 -308.5 -152t-119.5 -374z" />
    <glyph glyph-name="percent.tab" horiz-adv-x="1638" 
d="M291 1112q0 -91 52 -151t149 -60q105 0 171 75.5t64 194.5q0 91 -52.5 154.5t-148.5 63.5q-107 0 -171 -79.5t-64 -197.5zM487 815q-130 0 -214.5 85.5t-84.5 215.5q0 147 99 253t243 106q131 0 215 -88t84 -220q0 -150 -99.5 -251t-242.5 -101zM215 0l1159 1464h109
l-1161 -1464h-107zM967 283q2 -91 53 -151t147 -60q107 0 172.5 75.5t65.5 196.5q-2 92 -53.5 154.5t-147.5 62.5q-109 0 -173 -79t-64 -199zM1165 -14q-130 0 -214.5 86t-84.5 217q0 145 98.5 251.5t243.5 106.5q131 0 214 -87.5t83 -219.5q0 -150 -98.5 -252t-241.5 -102z
" />
    <glyph glyph-name="perthousand.tab" horiz-adv-x="2048" 
d="M285 1110q2 -80 47 -130t119 -50q67 0 116.5 41t72 102t22.5 131q-2 83 -44.5 136t-119.5 53q-67 0 -117 -43t-73 -106t-23 -134zM449 846q-113 0 -187.5 74t-73.5 196q0 94 36.5 175t109 133.5t166.5 52.5q112 0 185 -74.5t73 -198.5q0 -93 -35.5 -173.5t-107.5 -132.5
t-166 -52zM90 0l1161 1464h107l-1161 -1464h-107zM784 252q0 -82 45 -131t121 -49q98 0 153.5 81.5t55.5 190.5q-2 83 -44.5 137t-119.5 54q-66 0 -115.5 -43.5t-72.5 -106.5t-23 -133zM948 -14q-115 0 -189 74t-73 196q0 94 36 175.5t108.5 134t166.5 52.5
q113 0 186.5 -74.5t73.5 -199.5q0 -93 -36 -173.5t-108 -132.5t-165 -52zM1444 252q2 -82 46.5 -131t119.5 -49q99 0 155 81.5t56 190.5q-2 83 -44.5 137t-119.5 54q-99 0 -156 -86t-57 -197zM1608 -14q-113 0 -187 74t-73 196q0 94 36 175.5t108.5 134t166.5 52.5
q113 0 185.5 -74.5t72.5 -199.5q0 -93 -35.5 -173.5t-107.5 -132.5t-166 -52z" />
    <glyph glyph-name="plus.tab" 
d="M514 225l68 428h-400l17 95h399l68 428h98l-70 -428h400l-15 -95h-399l-68 -428h-98z" />
    <glyph glyph-name="minus.tab" 
d="M182 653l17 95h895l-15 -95h-897z" />
    <glyph glyph-name="multiply.tab" 
d="M254 293l-59 65l368 330l-282 328l67 63l285 -327l368 327l62 -67l-371 -330l287 -328l-70 -61l-286 328z" />
    <glyph glyph-name="divide.tab" 
d="M182 653l17 95h895l-15 -95h-897zM590 250q-35 0 -60.5 25.5t-25.5 62.5q0 35 25.5 60.5t60.5 25.5q37 0 62.5 -25.5t25.5 -60.5q0 -37 -25.5 -62.5t-62.5 -25.5zM688 977q-37 0 -62.5 25.5t-25.5 62.5q0 35 25.5 60.5t62.5 25.5q35 0 60.5 -25.5t25.5 -60.5
q0 -37 -25.5 -62.5t-60.5 -25.5z" />
    <glyph glyph-name="equal.tab" 
d="M182 436l17 94h827l-16 -94h-828zM236 778l16 94h827l-16 -94h-827z" />
    <glyph glyph-name="less.tab" 
d="M944 213l-719 444l4 27l854 418l-14 -111l-682 -325l574 -349z" />
    <glyph glyph-name="greater.tab" 
d="M319 1102l719 -445l-4 -26l-854 -418l17 111l682 325l-576 350z" />
    <glyph glyph-name="florin.tab" 
d="M260 735l14 90h240l59 305q35 180 136.5 266.5t238.5 86.5q104 0 176 -35l-12 -88q-68 31 -162 31q-98 0 -170 -63t-98 -202l-57 -301h352l-14 -90h-357l-211 -1108h-108l211 1108h-238z" />
    <glyph glyph-name="plusminus.tab" 
d="M522 268l64 408h-400l15 92h399l66 408h98l-66 -408h400l-17 -92h-397l-66 -408h-96zM80 0l14 92h897l-16 -92h-895z" />
    <glyph glyph-name="notequal.tab" 
d="M236 778l16 94h448l131 240h103l-131 -240h276l-16 -94h-311l-136 -248h410l-16 -94h-445l-129 -239h-102l129 239h-281l17 94h315l135 248h-413z" />
    <glyph glyph-name="approxequal.tab" 
d="M227 711q17 98 77 153.5t147 55.5q65 0 143.5 -28t152.5 -55.5t127 -27.5q52 0 88.5 32.5t45.5 82.5h86q-19 -99 -78 -154t-144 -55q-66 0 -146 27t-154.5 54t-127.5 27q-51 0 -85 -30.5t-46 -81.5h-86zM172 369q17 98 76.5 153.5t144.5 55.5q52 0 113.5 -17t109 -37.5
t104 -37.5t99.5 -17q52 0 87.5 31.5t43.5 81.5h88q-19 -99 -78 -154t-143 -55q-66 0 -146 27t-154.5 54t-127.5 27q-51 0 -85.5 -30.5t-45.5 -81.5h-86z" />
    <glyph glyph-name="lessequal.tab" 
d="M948 240l-721 430l4 26l852 406l-16 -111l-674 -313l572 -336zM125 0l14 92h787l-17 -92h-784z" />
    <glyph glyph-name="greaterequal.tab" 
d="M147 0l15 92h786l-14 -92h-787zM319 1102l721 -430l-4 -27l-852 -405l17 110l673 314l-571 335z" />
    <glyph glyph-name="parenleft.tab" horiz-adv-x="614" 
d="M309 -303q-186 331 -186 727q0 322 126.5 620.5t346.5 538.5h113q-223 -252 -347 -547.5t-124 -607.5q-3 -392 180 -731h-109z" />
    <glyph glyph-name="parenright.tab" horiz-adv-x="614" 
d="M336 1583q186 -331 186 -727q0 -321 -126 -619t-345 -540h-114q224 251 348.5 547t124.5 608q0 388 -181 731h107z" />
    <glyph glyph-name="bracketleft.tab" horiz-adv-x="614" 
d="M20 -303l299 1892h379l-14 -88h-268l-273 -1716h271l-15 -88h-379z" />
    <glyph glyph-name="bracketright.tab" horiz-adv-x="614" 
d="M-55 -303l16 88h268l273 1716h-271l15 88h377l-299 -1892h-379z" />
    <glyph glyph-name="braceleft.tab" horiz-adv-x="614" 
d="M399 -299q-194 12 -260.5 121t2.5 303l82 227q82 229 -155 273l14 84q128 13 184 74t51 167l-6 262q-6 207 91 291.5t298 87.5l-12 -84q-73 -2 -121 -15.5t-85 -46t-52.5 -90.5t-13.5 -147l4 -254q1 -130 -58.5 -196t-175.5 -96q221 -77 136 -320l-78 -225
q-55 -166 -14 -242.5t184 -87.5z" />
    <glyph glyph-name="braceright.tab" horiz-adv-x="614" 
d="M244 1591q194 -11 261.5 -119.5t-1.5 -302.5l-82 -227q-85 -230 153 -274l-12 -82q-128 -13 -184 -75t-53 -169l6 -260q4 -107 -20 -180.5t-76 -116.5t-123 -62.5t-170 -21.5l14 84q72 2 119.5 15.5t84.5 46t53 91.5t15 148l-4 254q-3 128 57 194t175 97
q-218 77 -135 321l79 226q55 164 13.5 241t-183.5 88z" />
    <glyph glyph-name="period.tab" horiz-adv-x="614" 
d="M231 -10q-35 0 -60.5 25.5t-25.5 60.5q0 37 24.5 62.5t61.5 25.5q36 0 62 -26t26 -62q0 -35 -25.5 -60.5t-62.5 -25.5z" />
    <glyph glyph-name="comma.tab" horiz-adv-x="614" 
d="M104 -240l-69 39l196 373l99 -49z" />
    <glyph glyph-name="colon.tab" horiz-adv-x="614" 
d="M231 -10q-35 0 -60.5 25.5t-25.5 60.5q0 37 24.5 62.5t61.5 25.5q36 0 62 -26t26 -62q0 -35 -25.5 -60.5t-62.5 -25.5zM338 655q-36 0 -61 25t-25 61q0 37 24.5 61.5t61.5 24.5q36 0 62 -25t26 -61q0 -37 -25.5 -61.5t-62.5 -24.5z" />
    <glyph glyph-name="semicolon.tab" horiz-adv-x="614" 
d="M82 -240l-70 39l197 373l100 -49zM348 655q-37 0 -62.5 24.5t-25.5 61.5q0 36 25 61t61 25q37 0 62.5 -24.5t25.5 -61.5q0 -36 -25 -61t-61 -25z" />
    <glyph glyph-name="space.tab" horiz-adv-x="614" 
 />
    <glyph glyph-name="dollar.oldtab" 
d="M596 -14h-27l-39 -254h-79l41 260q-190 25 -299 135t-115 281h108q9 -134 90.5 -221t229.5 -107l96 616q-192 59 -279 140t-87 217q0 171 131 277t335 106h17l29 180h79l-28 -186q157 -22 251 -112t103 -239h-102q-25 222 -267 260l-90 -565q105 -31 174.5 -61.5
t121 -73.5t74.5 -99t23 -132q0 -194 -135 -308t-356 -114zM977 397q0 109 -65 169t-232 110l-96 -602h12q176 0 278.5 85t102.5 238zM342 1057q0 -94 60 -151t216 -107l87 547h-11q-164 0 -258 -77t-94 -212z" />
    <glyph glyph-name="Euro.oldtab" 
d="M104 805l13 78h125q45 268 183 409.5t347 143.5q187 0 290.5 -105t106.5 -299h-104q-6 152 -77.5 233.5t-217.5 80.5q-337 0 -418 -463h463l-27 -78h-448l-29 -193h410l-27 -75h-395q-9 -60 -6.5 -117.5t11.5 -108.5t34.5 -94.5t63 -74.5t95.5 -48.5t132 -17.5
q293 0 383 344h102q-51 -223 -177.5 -329.5t-309.5 -106.5q-127 0 -219.5 41.5t-143.5 116.5t-70 174.5t-6 220.5h-127l15 75h125l30 193h-127z" />
    <glyph glyph-name="sterling.oldtab" 
d="M133 651l14 82h146q-12 136 -12 211q0 217 122 354.5t349 137.5q185 0 287.5 -96t105.5 -267h-109q-14 270 -288 270q-178 0 -268.5 -110t-90.5 -291q0 -73 12 -209h453l-14 -82h-430q6 -135 6 -141q0 -179 -76 -297q61 -11 206 -72t218 -61q86 0 143.5 51t71.5 154h96
q-19 -140 -102.5 -220.5t-212.5 -80.5q-60 0 -131.5 22.5t-126 50t-116.5 50t-107 22.5q-62 0 -104 -36t-56 -93h-96q16 77 72 139.5t138 75.5q78 115 78 287q0 47 -8 149h-170z" />
    <glyph glyph-name="yen.oldtab" 
d="M215 606l12 78h340l-301 737h115l270 -676l463 676h111l-510 -737h338l-13 -78h-356l-31 -192h357l-13 -78h-356l-51 -336h-109l51 336h-360l14 78h359l28 192h-358z" />
    <glyph glyph-name="zero.oldtab" 
d="M236 571q-11 -86 -11 -137q3 -165 87 -260.5t259 -95.5q180 0 284 110.5t138 329.5l29 178q10 72 10 123q-2 172 -89.5 272.5t-250.5 100.5q-175 0 -285 -115.5t-143 -326.5zM569 -16q-219 0 -335.5 124t-118.5 326q0 81 8 141l29 179q38 248 182.5 389t363.5 141
q213 0 329 -129.5t116 -333.5q0 -61 -10 -133l-27 -178q-40 -255 -177.5 -390.5t-359.5 -135.5z" />
    <glyph glyph-name="one.oldtab" 
d="M592 0l180 1145l-502 -334l17 109l518 348h96l-201 -1268h-108z" />
    <glyph glyph-name="two.oldtab" 
d="M29 0l4 27l596 454q143 110 199 166q145 147 145 297q0 122 -77 186t-204 64q-140 0 -237 -85t-133 -249h-105q35 199 166 311.5t315 112.5q164 0 276 -87.5t111 -252.5q0 -47 -12 -92.5t-27 -80.5t-47.5 -76t-55.5 -67t-71.5 -67t-74 -61t-83.5 -64q-7 -6 -11.5 -9
t-11 -8t-11.5 -9l-416 -318h725l-14 -92h-946z" />
    <glyph glyph-name="three.oldtab" 
d="M545 -213q-212 0 -347.5 114t-138.5 316h107q6 -161 106.5 -250.5t278.5 -89.5q172 0 275.5 91.5t103.5 264.5q0 132 -80.5 211.5t-231.5 79.5h-96l13 94h106q158 0 245 79t87 231q0 124 -79.5 194t-215.5 70q-144 0 -239.5 -81t-127.5 -228h-100q29 181 159.5 291
t317.5 110q174 0 284.5 -95t110.5 -257q0 -139 -73.5 -233.5t-208.5 -129.5q112 -31 176.5 -117t64.5 -214q0 -209 -139 -330t-358 -121z" />
    <glyph glyph-name="four.oldtab" 
d="M709 -199l55 334h-741l4 35l864 1096h160l-164 -1041h196l-14 -90h-197l-53 -334h-110zM180 225h596l154 955z" />
    <glyph glyph-name="five.oldtab" 
d="M76 170h104q12 -138 100.5 -215.5t243.5 -77.5q188 0 297 125t109 322q0 139 -81.5 231t-230.5 92q-116 1 -202 -40t-162 -115h-39l123 776h782l-14 -97h-692l-88 -553q58 52 140 85.5t177 33.5q180 0 290.5 -113t110.5 -292q0 -153 -62 -276t-182.5 -196t-279.5 -73
q-189 0 -310.5 99t-133.5 284z" />
    <glyph glyph-name="six.oldtab" 
d="M592 -16q-219 0 -333 124t-114 328q0 68 17 189l24 145q58 361 216 536t382 175q176 0 275.5 -83t111.5 -243h-108q-25 234 -281 234q-85 0 -158.5 -33.5t-137.5 -104.5t-112.5 -190t-76.5 -281l-14 -86q61 104 168.5 159.5t234.5 55.5q191 0 302.5 -109t111.5 -298
q0 -225 -142 -371.5t-366 -146.5zM254 424q0 -161 87 -256.5t255 -95.5q175 0 282 119.5t107 304.5q0 148 -82.5 235.5t-243.5 87.5q-171 0 -288 -109.5t-117 -285.5z" />
    <glyph glyph-name="seven.oldtab" 
d="M225 -199l793 1375h-780l14 90h922l-3 -19l-827 -1446h-119z" />
    <glyph glyph-name="eight.oldtab" 
d="M575 -16q-125 0 -228 44t-167.5 133.5t-64.5 209.5q0 168 106.5 278t270.5 139q-96 36 -153.5 113t-57.5 180q0 118 61.5 210.5t163 141t221.5 48.5q162 0 276.5 -95t114.5 -258q0 -141 -82.5 -231.5t-220.5 -124.5q120 -38 191 -126t71 -210q0 -104 -40.5 -190.5
t-109.5 -143t-159.5 -87.5t-192.5 -31zM227 377q0 -134 96.5 -216.5t258.5 -82.5q105 0 190 38.5t139 121t54 198.5q0 131 -93 214t-249 83q-108 0 -196.5 -40t-144 -122.5t-55.5 -193.5zM391 1081q0 -112 81.5 -185t215.5 -73q137 0 228.5 80t91.5 223q0 116 -79.5 190.5
t-207.5 74.5q-140 0 -235 -83.5t-95 -226.5z" />
    <glyph glyph-name="nine.oldtab" 
d="M662 1284q218 0 333 -127t115 -336q0 -79 -16 -170l-25 -159q-30 -189 -85 -326t-132 -219.5t-170 -121t-207 -38.5q-181 0 -286.5 88.5t-118.5 257.5h108q28 -254 299 -254q189 0 305.5 136.5t171.5 457.5l17 100q-61 -105 -168.5 -160t-235.5 -55q-187 0 -300 109.5
t-113 298.5q0 222 144.5 370t363.5 148zM1001 848q0 158 -88.5 252t-255.5 94q-172 0 -281.5 -120t-109.5 -304q0 -146 85 -233.5t243 -87.5q171 0 289 111.5t118 287.5z" />
    <glyph glyph-name="zero.num" horiz-adv-x="716" 
d="M242 1026q0 -86 44 -142.5t134 -56.5q61 0 107 30.5t72.5 84t39 117t12.5 137.5q0 87 -43.5 145t-130.5 58q-64 0 -112 -33.5t-73.5 -90t-37.5 -118.5t-12 -131zM418 754q-127 0 -196.5 74.5t-69.5 201.5q0 89 20 167t58.5 140.5t102 99t144.5 36.5q125 0 194.5 -75.5
t69.5 -205.5q0 -122 -32.5 -218t-107 -158t-183.5 -62z" />
    <glyph glyph-name="one.num" horiz-adv-x="448" 
d="M256 762l96 602l-198 -123l12 86l219 137h76l-113 -702h-92z" />
    <glyph glyph-name="two.num" horiz-adv-x="583" 
d="M61 762l2 18l306 260q61 51 90.5 80t53.5 72t24 90q0 54 -34.5 86.5t-90.5 32.5q-134 0 -174 -160h-84q20 109 92 170.5t172 61.5q90 0 149.5 -51t59.5 -140q0 -43 -12.5 -79t-45 -74t-59.5 -63t-84 -73l-195 -159h336l-12 -72h-494z" />
    <glyph glyph-name="three.num" horiz-adv-x="630" 
d="M375 754q-109 0 -181 53.5t-75 161.5h86q5 -67 49 -106.5t121 -39.5q71 0 118.5 38.5t47.5 109.5q0 56 -35.5 89.5t-99.5 33.5h-50l11 67h57q63 0 102 32t39 93q0 55 -34.5 86t-94.5 31q-67 0 -112 -36.5t-60 -98.5h-82q15 92 85.5 148.5t170.5 56.5q92 0 153.5 -45.5
t61.5 -135.5q0 -61 -36 -104.5t-101 -63.5q54 -13 86.5 -53.5t32.5 -103.5q0 -99 -75.5 -156t-184.5 -57z" />
    <glyph glyph-name="four.num" horiz-adv-x="634" 
d="M434 762l25 151h-367l6 31l418 520h119l-78 -481h98l-12 -70h-94l-25 -151h-90zM211 983h260l66 408z" />
    <glyph glyph-name="five.num" horiz-adv-x="604" 
d="M348 754q-99 0 -164 48.5t-71 149.5h86q6 -60 44.5 -93.5t104.5 -33.5q77 0 123.5 50t46.5 137q0 65 -38.5 104t-106.5 39q-92 0 -158 -70h-47l65 379h408l-10 -71h-336l-37 -224q60 56 150 56q88 0 146 -56t58 -151q-2 -120 -74 -192t-190 -72z" />
    <glyph glyph-name="six.num" horiz-adv-x="649" 
d="M389 754q-110 0 -173.5 65t-63.5 170q0 56 8 103l6 45q27 166 109 251t204 85q85 0 142 -44.5t61 -130.5h-82q-12 100 -127 103q-173 0 -217 -262l-4 -19q30 44 80.5 68t109.5 24q90 0 152.5 -52.5t62.5 -145.5q0 -116 -74 -188t-194 -72zM240 973q0 -65 40 -108.5
t111 -43.5q78 0 126 51t48 134q0 64 -38 102.5t-107 38.5q-77 0 -128.5 -46t-51.5 -128z" />
    <glyph glyph-name="seven.num" horiz-adv-x="550" 
d="M178 762l354 627h-372l12 75h494l-4 -12l-386 -690h-98z" />
    <glyph glyph-name="eight.num" horiz-adv-x="643" 
d="M381 754q-66 0 -121.5 20t-92 64.5t-36.5 107.5q0 78 48 127.5t130 69.5q-45 18 -73.5 54t-28.5 83q0 87 70 140t167 53q88 0 155 -47t67 -132q0 -61 -38 -102t-104 -59q123 -47 123 -166q0 -103 -75 -158t-191 -55zM223 954q2 -60 44.5 -95.5t117.5 -35.5q73 0 121.5 36
t48.5 110q0 62 -44 98.5t-114 36.5q-72 0 -123 -38.5t-51 -111.5zM295 1278q0 -51 39.5 -81t97.5 -30q63 0 104.5 31.5t41.5 91.5q0 51 -39 82t-99 31q-62 0 -103.5 -32t-41.5 -93z" />
    <glyph glyph-name="nine.num" horiz-adv-x="649" 
d="M440 1473q110 0 173 -63t65 -165q0 -49 -8 -119l-6 -43q-53 -329 -306 -329q-99 0 -158 45.5t-63 134.5h84q6 -54 39.5 -81.5t101.5 -27.5q86 0 138 63t75 199l3 19q-30 -44 -81 -68t-110 -24q-90 0 -152.5 52t-62.5 146q0 114 75.5 187.5t192.5 73.5zM590 1253
q0 64 -40.5 107t-111.5 43q-76 0 -125 -50t-49 -132q0 -65 39 -103.5t109 -38.5q76 0 127 46.5t51 127.5z" />
    <glyph glyph-name="zero.den" horiz-adv-x="716" 
d="M123 266q0 -87 43 -143.5t133 -56.5q61 0 107 30.5t72.5 83.5t39 117t12.5 139q0 87 -43 144t-131 57q-64 0 -111.5 -33t-73 -89.5t-37 -118t-11.5 -130.5zM299 -8q-127 0 -197.5 74.5t-70.5 201.5q0 120 33.5 217.5t109.5 161.5t184 64q124 0 194.5 -75.5t70.5 -203.5
q0 -123 -32.5 -219.5t-107.5 -158.5t-184 -62z" />
    <glyph glyph-name="one.den" horiz-adv-x="448" 
d="M137 0l94 604l-196 -125l12 86l217 137h76l-111 -702h-92z" />
    <glyph glyph-name="two.den" horiz-adv-x="583" 
d="M-59 0l4 20l305 261q59 50 89 79t53.5 71.5t23.5 88.5q0 54 -34.5 86.5t-88.5 32.5q-137 0 -174 -160h-84q18 110 90 171t172 61q92 0 151.5 -50t59.5 -139q0 -35 -11 -67t-24.5 -55.5t-45.5 -56t-53 -51.5t-69 -59l-194 -161h338l-13 -72h-495z" />
    <glyph glyph-name="three.den" horiz-adv-x="630" 
d="M256 -8q-110 0 -182 53.5t-76 161.5h86q5 -66 50 -106t120 -40q71 0 119.5 38.5t48.5 109.5q0 55 -36 89t-101 34h-49l10 67h57q63 0 102 32t39 93q0 55 -34.5 86t-94.5 31q-67 0 -110.5 -36.5t-59.5 -98.5h-82q15 92 84.5 148.5t169.5 56.5q94 0 156 -45.5t62 -135.5
q0 -60 -37 -103t-103 -62q53 -14 86 -55t33 -103q0 -100 -75 -157.5t-183 -57.5z" />
    <glyph glyph-name="four.den" horiz-adv-x="634" 
d="M315 0l25 152h-367l4 32l418 518h121l-78 -481h97l-11 -69h-96l-25 -152h-88zM92 221h260l64 408z" />
    <glyph glyph-name="five.den" horiz-adv-x="604" 
d="M229 -8q-100 0 -165.5 49t-71.5 149h88q5 -60 43.5 -93.5t105.5 -33.5q76 0 123 51t47 136q0 65 -39 104t-106 39q-98 0 -160 -69h-45l64 378h409l-12 -71h-336l-37 -221q60 53 150 53q89 0 147.5 -56.5t57.5 -150.5q0 -120 -72 -192t-191 -72z" />
    <glyph glyph-name="six.den" horiz-adv-x="649" 
d="M270 -8q-110 0 -173.5 65.5t-65.5 171.5q0 33 8 103l8 43q26 167 107.5 251.5t203.5 84.5q85 0 142 -43t63 -129h-82q-15 100 -127 100q-173 0 -219 -262l-2 -19q65 93 191 93q90 0 151.5 -52.5t61.5 -146.5q0 -116 -73.5 -188t-193.5 -72zM121 211q0 -64 40 -107
t111 -43q78 0 126 50t48 133q0 64 -39 103.5t-108 39.5q-75 0 -126.5 -47t-51.5 -129z" />
    <glyph glyph-name="seven.den" horiz-adv-x="550" 
d="M59 0l353 627h-371l12 75h492l-2 -12l-385 -690h-99z" />
    <glyph glyph-name="eight.den" horiz-adv-x="643" 
d="M262 -8q-104 0 -177 50t-73 144q0 77 47.5 126t128.5 69q-45 18 -72.5 54t-27.5 85q0 86 70 138.5t168 52.5q88 0 153.5 -45.5t65.5 -130.5q0 -123 -139 -164q120 -44 120 -164q0 -103 -75 -159t-189 -56zM104 193q0 -59 43 -95.5t119 -36.5q72 0 121 36.5t49 109.5
q0 63 -43.5 99t-113.5 36q-73 0 -124 -38t-51 -111zM176 518q0 -52 39.5 -82t97.5 -30q61 0 103.5 32t42.5 92q0 50 -39 81.5t-98 31.5q-61 0 -103.5 -32.5t-42.5 -92.5z" />
    <glyph glyph-name="nine.den" horiz-adv-x="649" 
d="M319 711q110 0 174 -63t64 -163q0 -74 -8 -118l-6 -45q-53 -330 -305 -330q-98 0 -157.5 46t-62.5 134h82q8 -54 42 -81.5t102 -27.5q84 0 136 63.5t75 199.5l2 18q-64 -92 -191 -92q-89 0 -151 53t-62 146q0 114 75 187t191 73zM471 492q0 65 -40.5 108t-111.5 43
q-77 0 -126.5 -51t-49.5 -133q0 -65 38.5 -103.5t109.5 -38.5q76 0 128 47t52 128z" />
    <glyph glyph-name="zero.sub" horiz-adv-x="716" 
d="M98 88q0 -87 43.5 -144t134.5 -57q81 0 135 55t75.5 135.5t21.5 180.5q0 86 -43.5 143.5t-130.5 57.5q-64 0 -112 -33.5t-74 -89t-38 -118t-12 -130.5zM274 -186q-127 0 -196.5 75.5t-69.5 202.5q0 120 33.5 217t109 160t183.5 63q124 0 194 -74t70 -204
q0 -71 -11.5 -135t-37 -120.5t-63 -97t-92 -64t-120.5 -23.5z" />
    <glyph glyph-name="one.sub" horiz-adv-x="448" 
d="M113 -178l96 604l-199 -123l13 86l217 137h75l-110 -704h-92z" />
    <glyph glyph-name="two.sub" horiz-adv-x="583" 
d="M-84 -178l4 20l305 260q60 50 90 80t53 72.5t23 89.5q0 54 -33.5 85.5t-89.5 31.5q-134 0 -174 -160h-84q18 110 90 170.5t172 60.5q92 0 151.5 -49.5t59.5 -138.5q0 -43 -12.5 -79t-45.5 -74t-59.5 -62.5t-84.5 -73.5l-193 -161h336l-12 -72h-496z" />
    <glyph glyph-name="three.sub" horiz-adv-x="630" 
d="M231 -186q-109 0 -181.5 54t-76.5 161h88q5 -66 49.5 -105t120.5 -39q70 0 118 38t48 110q0 56 -35.5 89.5t-101.5 33.5h-49l12 65h56q64 0 103.5 32.5t39.5 92.5q0 56 -34.5 86.5t-96.5 30.5q-66 0 -110.5 -36t-59.5 -99h-82q15 93 84.5 148.5t169.5 55.5
q94 0 155.5 -44t61.5 -134q0 -61 -36.5 -105t-100.5 -63q52 -13 84 -53.5t32 -103.5q0 -99 -75 -157t-183 -58z" />
    <glyph glyph-name="four.sub" horiz-adv-x="634" 
d="M291 -178l24 153h-366l6 31l416 520h121l-78 -483h98l-12 -68h-97l-22 -153h-90zM68 43h260l63 410z" />
    <glyph glyph-name="five.sub" horiz-adv-x="604" 
d="M205 -186q-99 0 -165.5 49t-70.5 149h86q6 -59 44.5 -92t105.5 -33q77 0 123.5 50t46.5 137q0 65 -39 104t-107 39q-93 0 -159 -70h-45l65 379h408l-13 -73h-335l-35 -222q56 56 149 56q89 0 146.5 -56.5t56.5 -150.5q0 -120 -71.5 -192t-190.5 -74z" />
    <glyph glyph-name="six.sub" horiz-adv-x="649" 
d="M246 -186q-111 0 -174.5 65.5t-65.5 171.5q0 33 8 103l9 43q27 167 108.5 251t202.5 84q86 0 143.5 -43t61.5 -129h-82q-15 101 -127 101q-84 2 -139.5 -61t-79.5 -199l-2 -19q30 44 80.5 68t109.5 24q90 0 151.5 -52.5t61.5 -145.5q0 -116 -73.5 -189t-192.5 -73zM96 35
q0 -66 40.5 -109t111.5 -43q78 0 126 51t48 134q0 64 -39.5 102.5t-108.5 38.5q-76 0 -127 -46.5t-51 -127.5z" />
    <glyph glyph-name="seven.sub" horiz-adv-x="550" 
d="M35 -178l352 629h-371l13 75h493l-4 -12l-385 -692h-98z" />
    <glyph glyph-name="eight.sub" horiz-adv-x="643" 
d="M238 -186q-103 0 -176.5 50.5t-73.5 143.5q0 79 48 128t130 67q-46 20 -74.5 56t-28.5 83q0 87 70.5 138.5t167.5 51.5q88 0 154.5 -45.5t66.5 -130.5q0 -61 -38 -102t-103 -59q123 -47 123 -166q0 -103 -75 -159t-191 -56zM80 16q2 -60 44.5 -95.5t117.5 -35.5
q73 0 121.5 36t48.5 110q0 62 -44 98.5t-114 36.5q-72 0 -123 -39t-51 -111zM152 340q0 -51 40 -82t97 -31q61 0 103 32.5t42 92.5q0 52 -38.5 82.5t-98.5 30.5q-62 0 -103.5 -32t-41.5 -93z" />
    <glyph glyph-name="nine.sub" horiz-adv-x="649" 
d="M297 535q110 0 173 -63t65 -165q0 -40 -9 -119l-8 -43q-53 -331 -303 -331q-99 0 -158 46.5t-63 135.5h82q8 -56 41 -82.5t102 -26.5q86 0 138 63.5t73 199.5l4 16q-63 -90 -190 -90q-90 0 -152.5 52t-62.5 146q0 113 75.5 187t192.5 74zM446 315q0 64 -40 107t-111 43
q-77 0 -125.5 -50t-48.5 -134q0 -64 37.5 -103t107.5 -39q77 0 128.5 46.5t51.5 129.5z" />
    <glyph glyph-name="plus.sub" horiz-adv-x="661" 
d="M195 -90l34 221h-215l15 74h213l37 225h77l-37 -225h218l-15 -74h-215l-35 -221h-77z" />
    <glyph glyph-name="minus.sub" horiz-adv-x="661" 
d="M14 131l15 74h508l-15 -74h-508z" />
    <glyph glyph-name="zero.sup" horiz-adv-x="716" 
d="M260 1145q0 -86 44 -142.5t134 -56.5q81 0 135 54.5t75.5 134.5t21.5 180q0 87 -43.5 145t-130.5 58q-64 0 -112 -33.5t-74 -90t-38 -119t-12 -130.5zM436 872q-127 0 -196.5 75t-69.5 202q0 120 34 217.5t109.5 161t182.5 63.5q125 0 194.5 -75t69.5 -205
q0 -90 -19 -167.5t-57.5 -139t-102 -97t-145.5 -35.5z" />
    <glyph glyph-name="one.sup" horiz-adv-x="448" 
d="M274 881l97 602l-199 -123l12 86l219 137h76l-112 -702h-93z" />
    <glyph glyph-name="two.sup" horiz-adv-x="583" 
d="M80 881l2 18l305 260q61 51 90.5 80t53.5 72t24 90q0 54 -34.5 86.5t-90.5 32.5q-134 0 -174 -160h-84q20 108 92 169.5t172 61.5q90 0 149.5 -50.5t59.5 -139.5q0 -43 -12.5 -79t-45 -74t-59.5 -63t-84 -73l-194 -160h336l-13 -71h-493z" />
    <glyph glyph-name="three.sup" horiz-adv-x="630" 
d="M393 872q-109 0 -181 53.5t-75 161.5h86q5 -67 49 -106t121 -39q71 0 118.5 38.5t47.5 109.5q0 55 -35 88.5t-100 33.5h-49l10 68h57q63 0 102.5 32t39.5 93q0 55 -34.5 86t-94.5 31q-67 0 -112 -37t-60 -99h-82q15 92 85.5 148.5t170.5 56.5q92 0 153.5 -45t61.5 -135
q0 -61 -36 -104.5t-101 -63.5q53 -13 85.5 -53.5t32.5 -104.5q0 -99 -75.5 -156t-184.5 -57z" />
    <glyph glyph-name="four.sup" horiz-adv-x="634" 
d="M453 881l24 151h-366l6 31l418 520h118l-78 -481h99l-12 -70h-95l-24 -151h-90zM229 1102h260l66 407z" />
    <glyph glyph-name="five.sup" horiz-adv-x="604" 
d="M367 872q-99 0 -164.5 49t-71.5 150h86q6 -60 45 -93.5t105 -33.5q77 0 123.5 49.5t46.5 136.5q0 65 -39 104.5t-107 39.5q-92 0 -158 -70h-47l66 379h407l-10 -72h-336l-37 -223q59 55 150 55q89 0 147 -56t58 -150q-2 -120 -74 -192.5t-190 -72.5z" />
    <glyph glyph-name="six.sup" horiz-adv-x="649" 
d="M408 872q-110 0 -174 65.5t-64 170.5q0 55 8 102l6 45q27 166 109.5 251t204.5 85q85 0 141.5 -44t60.5 -130h-82q-12 100 -126 103q-174 0 -218 -263l-4 -18q30 44 81 68t110 24q90 0 152.5 -52.5t62.5 -145.5q0 -116 -74 -188.5t-194 -72.5zM258 1092q0 -64 40.5 -108
t111.5 -44q78 0 126 50.5t48 133.5q0 64 -38.5 103t-107.5 39q-77 0 -128.5 -46t-51.5 -128z" />
    <glyph glyph-name="seven.sup" horiz-adv-x="550" 
d="M197 881l354 626h-373l12 76h494l-4 -12l-385 -690h-98z" />
    <glyph glyph-name="eight.sup" horiz-adv-x="643" 
d="M399 872q-103 0 -176 50t-73 143q0 78 48 127.5t130 69.5q-45 18 -74 54t-29 83q0 87 70.5 139.5t167.5 52.5q88 0 154.5 -46.5t66.5 -131.5q0 -61 -38 -102.5t-103 -59.5q123 -47 123 -166q0 -103 -75.5 -158t-191.5 -55zM242 1073q2 -60 44 -95.5t117 -35.5
q73 0 121.5 35.5t48.5 109.5q0 62 -43.5 99t-113.5 37q-72 0 -123 -38.5t-51 -111.5zM313 1397q0 -51 40 -81t98 -30q62 0 103.5 31.5t41.5 91.5q0 52 -38.5 82.5t-98.5 30.5q-62 0 -104 -32t-42 -93z" />
    <glyph glyph-name="nine.sup" horiz-adv-x="649" 
d="M459 1591q110 0 172.5 -62.5t64.5 -164.5q0 -49 -8 -119l-6 -43q-53 -330 -305 -330q-99 0 -158 46t-63 135h84q6 -54 39.5 -81.5t101.5 -27.5q86 0 138 63t75 199l2 19q-30 -44 -80.5 -68t-109.5 -24q-90 0 -153 52t-63 146q0 114 76 187t193 73zM608 1372q0 64 -40 107
t-111 43q-76 0 -125 -50.5t-49 -132.5q0 -65 38.5 -103t108.5 -38q76 0 127 46.5t51 127.5z" />
    <glyph glyph-name="plus.sup" horiz-adv-x="661" 
d="M358 971l35 221h-215l12 74h216l36 225h78l-37 -225h215l-12 -74h-215l-35 -221h-78z" />
    <glyph glyph-name="minus.sup" horiz-adv-x="661" 
d="M178 1192l12 74h508l-12 -74h-508z" />
    <glyph glyph-name="a.alt" horiz-adv-x="1214" 
d="M618 995q-130 0 -227.5 -71t-147.5 -191t-50 -270q0 -181 91 -284t244 -103q123 0 221 73.5t151 195t54 265.5q1 173 -92.5 279t-243.5 106zM510 -16q-191 0 -311.5 129.5t-120.5 345.5q0 127 38 241.5t106 200t170.5 136t223.5 50.5q82 0 148.5 -25.5t110 -68.5
t70.5 -89t42 -97l41 264h109l-117 -735q-29 -193 -29 -336h-104q-3 109 18 244q-61 -119 -160.5 -189.5t-234.5 -70.5z" />
    <glyph glyph-name="t.alt" horiz-adv-x="653" 
d="M143 0l154 979h-180l16 92h178l39 244h109l-39 -244h260l-14 -92h-260l-154 -979h-109z" />
    <glyph glyph-name="germandbls.alt" horiz-adv-x="1218" 
d="M745 -14q-148 0 -239 76t-98 219h106q9 -95 69.5 -149t164.5 -54q105 0 175 57.5t70 155.5q0 81 -48.5 136.5t-149.5 121.5q-53 34 -84.5 57t-64 54.5t-47.5 65.5t-15 73q0 45 23 85.5t59.5 72.5t81 63t88.5 62.5t80.5 64.5t59.5 75t23 89q0 91 -67.5 139.5t-177.5 48.5
q-155 0 -254.5 -90t-126.5 -262l-183 -1147h-108l182 1155q33 208 168 321t330 113q91 0 166.5 -28.5t125.5 -92t50 -153.5q0 -56 -23 -106t-59.5 -86.5t-81 -70t-89 -62t-81 -56t-59.5 -58.5t-23 -63q0 -39 35 -72t125 -95q24 -16 37 -25q53 -37 88 -66.5t67.5 -69t48 -87
t15.5 -103.5q0 -135 -102.5 -222t-256.5 -87z" />
    <glyph glyph-name="aacute.alt" horiz-adv-x="1214" 
d="M618 1239l181 301h139l-229 -301h-91zM618 995q-130 0 -227.5 -71t-147.5 -191t-50 -270q0 -181 91 -284t244 -103q123 0 221 73.5t151 195t54 265.5q1 173 -92.5 279t-243.5 106zM510 -16q-191 0 -311.5 129.5t-120.5 345.5q0 127 38 241.5t106 200t170.5 136
t223.5 50.5q82 0 148.5 -25.5t110 -68.5t70.5 -89t42 -97l41 264h109l-117 -735q-29 -193 -29 -336h-104q-3 109 18 244q-61 -119 -160.5 -189.5t-234.5 -70.5z" />
    <glyph glyph-name="abreve.alt" horiz-adv-x="1214" 
d="M618 995q-130 0 -227.5 -71t-147.5 -191t-50 -270q0 -181 91 -284t244 -103q123 0 221 73.5t151 195t54 265.5q1 173 -92.5 279t-243.5 106zM510 -16q-191 0 -311.5 129.5t-120.5 345.5q0 127 38 241.5t106 200t170.5 136t223.5 50.5q82 0 148.5 -25.5t110 -68.5
t70.5 -89t42 -97l41 264h109l-117 -735q-29 -193 -29 -336h-104q-3 109 18 244q-61 -119 -160.5 -189.5t-234.5 -70.5zM686 1262q-107 0 -173.5 68.5t-66.5 178.5h91q3 -75 41 -116t108 -41q72 0 118.5 41t61.5 116h86q-12 -110 -88 -178.5t-178 -68.5z" />
    <glyph glyph-name="acircumflex.alt" horiz-adv-x="1214" 
d="M395 1239l262 277h101l186 -277h-82l-166 186l-213 -186h-88zM618 995q-130 0 -227.5 -71t-147.5 -191t-50 -270q0 -181 91 -284t244 -103q123 0 221 73.5t151 195t54 265.5q1 173 -92.5 279t-243.5 106zM510 -16q-191 0 -311.5 129.5t-120.5 345.5q0 127 38 241.5
t106 200t170.5 136t223.5 50.5q82 0 148.5 -25.5t110 -68.5t70.5 -89t42 -97l41 264h109l-117 -735q-29 -193 -29 -336h-104q-3 109 18 244q-61 -119 -160.5 -189.5t-234.5 -70.5z" />
    <glyph glyph-name="adieresis.alt" horiz-adv-x="1214" 
d="M524 1303q-31 0 -52 21t-21 52t22 53.5t53 22.5t52.5 -21.5t21.5 -52.5t-22 -53t-54 -22zM866 1303q-31 0 -52 21t-21 52t21.5 53.5t53.5 22.5q31 0 52.5 -21.5t21.5 -52.5t-22.5 -53t-53.5 -22zM618 995q-130 0 -227.5 -71t-147.5 -191t-50 -270q0 -181 91 -284
t244 -103q123 0 221 73.5t151 195t54 265.5q1 173 -92.5 279t-243.5 106zM510 -16q-191 0 -311.5 129.5t-120.5 345.5q0 127 38 241.5t106 200t170.5 136t223.5 50.5q82 0 148.5 -25.5t110 -68.5t70.5 -89t42 -97l41 264h109l-117 -735q-29 -193 -29 -336h-104
q-3 109 18 244q-61 -119 -160.5 -189.5t-234.5 -70.5z" />
    <glyph glyph-name="agrave.alt" horiz-adv-x="1214" 
d="M618 995q-130 0 -227.5 -71t-147.5 -191t-50 -270q0 -181 91 -284t244 -103q123 0 221 73.5t151 195t54 265.5q1 173 -92.5 279t-243.5 106zM510 -16q-191 0 -311.5 129.5t-120.5 345.5q0 127 38 241.5t106 200t170.5 136t223.5 50.5q82 0 148.5 -25.5t110 -68.5
t70.5 -89t42 -97l41 264h109l-117 -735q-29 -193 -29 -336h-104q-3 109 18 244q-61 -119 -160.5 -189.5t-234.5 -70.5zM639 1239l-150 301h132l102 -301h-84z" />
    <glyph glyph-name="amacron.alt" horiz-adv-x="1214" 
d="M618 995q-130 0 -227.5 -71t-147.5 -191t-50 -270q0 -181 91 -284t244 -103q123 0 221 73.5t151 195t54 265.5q1 173 -92.5 279t-243.5 106zM510 -16q-191 0 -311.5 129.5t-120.5 345.5q0 127 38 241.5t106 200t170.5 136t223.5 50.5q82 0 148.5 -25.5t110 -68.5
t70.5 -89t42 -97l41 264h109l-117 -735q-29 -193 -29 -336h-104q-3 109 18 244q-61 -119 -160.5 -189.5t-234.5 -70.5zM446 1325l13 86h497l-14 -86h-496z" />
    <glyph glyph-name="aogonek.alt" horiz-adv-x="1214" 
d="M991 0q-38 -22 -61 -37.5t-58 -44t-53 -60.5t-18 -67q0 -82 98 -82q41 0 94 17l-12 -80q-64 -19 -104 -19q-85 0 -134 40t-49 114q0 119 193 223q-3 105 18 240q-61 -119 -160.5 -189.5t-234.5 -70.5q-191 0 -311.5 129.5t-120.5 345.5q0 127 38 241.5t106 200t170.5 136
t223.5 50.5q82 0 148.5 -25.5t110 -68.5t70.5 -89t42 -97l41 264h109l-117 -735q-29 -193 -29 -336zM618 995q-130 0 -227.5 -71t-147.5 -191t-50 -270q0 -181 91 -284t244 -103q123 0 221 73.5t151 195t54 265.5q1 173 -92.5 279t-243.5 106z" />
    <glyph glyph-name="aring.alt" horiz-adv-x="1214" 
d="M711 1296q55 0 91 37.5t36 96.5q0 56 -33 91t-88 35q-54 0 -91.5 -38.5t-37.5 -96.5q0 -55 34 -90t89 -35zM711 1231q-84 0 -141.5 55.5t-57.5 134.5q0 83 60.5 142t144.5 59t140 -56t56 -136q0 -83 -58.5 -141t-143.5 -58zM618 995q-130 0 -227.5 -71t-147.5 -191
t-50 -270q0 -181 91 -284t244 -103q123 0 221 73.5t151 195t54 265.5q1 173 -92.5 279t-243.5 106zM510 -16q-191 0 -311.5 129.5t-120.5 345.5q0 127 38 241.5t106 200t170.5 136t223.5 50.5q82 0 148.5 -25.5t110 -68.5t70.5 -89t42 -97l41 264h109l-117 -735
q-29 -193 -29 -336h-104q-3 109 18 244q-61 -119 -160.5 -189.5t-234.5 -70.5z" />
    <glyph glyph-name="aringacute.alt" horiz-adv-x="1214" 
d="M698 1276q56 0 91.5 37.5t35.5 95.5q0 56 -32.5 91.5t-87.5 35.5t-92.5 -38.5t-37.5 -96.5q0 -55 34 -90t89 -35zM698 1210q-84 0 -141 56t-57 135q0 83 60.5 142t144.5 59t140 -56.5t56 -136.5q0 -83 -59 -141t-144 -58zM618 995q-130 0 -227.5 -71t-147.5 -191
t-50 -270q0 -181 91 -284t244 -103q123 0 221 73.5t151 195t54 265.5q1 173 -92.5 279t-243.5 106zM510 -16q-191 0 -311.5 129.5t-120.5 345.5q0 127 38 241.5t106 200t170.5 136t223.5 50.5q82 0 148.5 -25.5t110 -68.5t70.5 -89t42 -97l41 264h109l-117 -735
q-29 -193 -29 -336h-104q-3 109 18 244q-61 -119 -160.5 -189.5t-234.5 -70.5zM698 1698l152 250h139l-198 -250h-93z" />
    <glyph glyph-name="atilde.alt" horiz-adv-x="1214" 
d="M618 995q-130 0 -227.5 -71t-147.5 -191t-50 -270q0 -181 91 -284t244 -103q123 0 221 73.5t151 195t54 265.5q1 173 -92.5 279t-243.5 106zM510 -16q-191 0 -311.5 129.5t-120.5 345.5q0 127 38 241.5t106 200t170.5 136t223.5 50.5q82 0 148.5 -25.5t110 -68.5
t70.5 -89t42 -97l41 264h109l-117 -735q-29 -193 -29 -336h-104q-3 109 18 244q-61 -119 -160.5 -189.5t-234.5 -70.5zM817 1262q-42 0 -89 27t-89.5 54t-71.5 27q-36 0 -65 -28t-41 -80h-82q18 97 69 149.5t121 52.5q41 0 87.5 -27t89.5 -54t73 -27q34 0 64 28t41 80h82
q-20 -97 -70 -149.5t-119 -52.5z" />
    <glyph glyph-name="tbar.alt" horiz-adv-x="653" 
d="M59 616l15 82h178l45 281h-180l16 92h178l39 244h109l-39 -244h260l-14 -92h-260l-46 -281h261l-13 -82h-260l-96 -616h-109l97 616h-181z" />
    <glyph glyph-name="tcaron.alt" horiz-adv-x="653" 
d="M143 0l154 979h-180l16 92h178l39 244h109l-39 -244h260l-14 -92h-260l-154 -979h-109zM612 1251l78 332h119l-115 -332h-82z" />
    <glyph glyph-name="tcommaaccent.alt" horiz-adv-x="653" 
d="M55 -418l-67 35l141 299l104 -31zM143 0l154 979h-180l16 92h178l39 244h109l-39 -244h260l-14 -92h-260l-154 -979h-109z" />
    <glyph glyph-name="f.short" horiz-adv-x="661" 
d="M115 979l14 92h162l33 199q26 168 113 243.5t216 75.5q63 0 125 -20l-14 -88q-43 16 -109 16q-90 0 -146 -52.5t-77 -178.5l-31 -195h297l-14 -92h-297l-156 -979h-108l153 979h-161z" />
    <glyph glyph-name="f_f.short" horiz-adv-x="1226" 
d="M115 979l14 92h162l31 191q25 159 114 233t221 74q69 0 127 -21l-12 -88q-52 19 -110 19q-95 0 -154 -51t-78 -168l-31 -189h457l33 199q53 319 330 319q66 0 124 -20l-14 -88q-43 16 -106 16q-92 0 -148.5 -52.5t-77.5 -178.5l-30 -195h297l-15 -92h-297l-155 -979h-109
l154 979h-457l-154 -979h-108l153 979h-161z" />
    <glyph glyph-name="questiondown.uc" horiz-adv-x="976" 
d="M678 1098l-19 -125q-10 -63 -32.5 -113.5t-60.5 -93t-71.5 -72.5t-88.5 -73q-11 -9 -17 -13q-50 -38 -70 -54t-55.5 -50t-50 -60.5t-27 -66.5t-12.5 -86q0 -104 71.5 -159.5t184.5 -55.5q132 0 222 79t116 228h104q-27 -188 -151 -293.5t-301 -105.5q-163 0 -261 84
t-98 223q0 34 4 63.5t15 57t20 48t30 45t32 38t40 37.5t40.5 33t46 35t45.5 34q54 41 84 67t64 63t52.5 78.5t26.5 92.5l19 115h98zM670 1475q35 0 60.5 -25.5t25.5 -60.5q0 -37 -25 -63t-61 -26t-62 26t-26 63q0 35 25.5 60.5t62.5 25.5z" />
    <glyph glyph-name="exclamdown.uc" horiz-adv-x="557" 
d="M410 1098l-158 -1098h-121l193 1098h86zM412 1475q35 0 60.5 -25.5t25.5 -60.5q0 -37 -25 -63t-61 -26t-62 26t-26 63q0 35 25.5 60.5t62.5 25.5z" />
    <glyph glyph-name="hyphen.uc" horiz-adv-x="733" 
d="M139 631l17 102h481l-16 -102h-482z" />
    <glyph glyph-name="endash.uc" horiz-adv-x="1030" 
d="M109 633l14 94h842l-17 -94h-839z" />
    <glyph glyph-name="emdash.uc" horiz-adv-x="1779" 
d="M109 633l14 94h1591l-16 -94h-1589z" />
    <glyph glyph-name="guilsinglleft.uc" horiz-adv-x="593" 
d="M334 242l-219 376l334 373h114l-334 -379l211 -370h-106z" />
    <glyph glyph-name="guilsinglright.uc" horiz-adv-x="593" 
d="M287 991l221 -377l-336 -372h-115l336 379l-213 370h107z" />
    <glyph glyph-name="guillemotleft.uc" horiz-adv-x="917" 
d="M334 242l-219 376l334 373h114l-334 -379l211 -370h-106zM657 242l-221 376l336 373h115l-336 -379l213 -370h-107z" />
    <glyph glyph-name="guillemotright.uc" horiz-adv-x="917" 
d="M610 991l221 -377l-335 -372h-115l336 379l-213 370h106zM287 991l221 -377l-336 -372h-115l336 379l-213 370h107z" />
    <glyph glyph-name="parenleft.uc" horiz-adv-x="608" 
d="M330 -201q-203 311 -203 701q0 319 127 598t356 506h117q-239 -250 -363 -519.5t-124 -582.5q0 -379 196 -703h-106z" />
    <glyph glyph-name="parenright.uc" horiz-adv-x="608" 
d="M328 1604q204 -312 204 -701q0 -319 -128 -597.5t-357 -506.5h-117q239 250 363.5 519.5t124.5 582.5q0 378 -197 703h107z" />
    <glyph glyph-name="bracketleft.uc" horiz-adv-x="696" 
d="M76 -172l280 1765h422l-16 -88h-311l-252 -1589h313l-14 -88h-422z" />
    <glyph glyph-name="bracketright.uc" horiz-adv-x="696" 
d="M-29 -172l15 88h313l250 1589h-313l16 88h420l-281 -1765h-420z" />
    <glyph glyph-name="braceleft.uc" horiz-adv-x="743" 
d="M543 -180q-212 12 -287 120t-8 306l55 160q89 265 -199 276l15 84q157 -1 222.5 58.5t59.5 189.5l-12 194q-7 108 18 183.5t83 119.5t138.5 63.5t194.5 20.5l-14 -84q-89 -2 -147.5 -16.5t-100 -49t-58 -93.5t-11.5 -148l12 -190q4 -92 -27.5 -155t-82.5 -93.5
t-126 -46.5q105 -28 140.5 -112t-7.5 -212l-53 -155q-56 -169 -5.5 -247t214.5 -89z" />
    <glyph glyph-name="braceright.uc" horiz-adv-x="745" 
d="M252 1595q213 -12 287.5 -119.5t7.5 -306.5l-55 -157q-91 -266 196 -279l-12 -82q-157 1 -223 -58.5t-60 -189.5l13 -196q6 -108 -19.5 -182.5t-83 -118.5t-138 -63.5t-194.5 -20.5l13 82q179 6 253 70.5t64 238.5l-10 190q-7 135 55.5 204t177.5 93q-104 28 -139 110.5
t8 211.5l53 156q56 167 5.5 244.5t-213.5 88.5z" />
    <glyph glyph-name="slash.uc" horiz-adv-x="800" 
d="M-47 -172l831 1765h107l-834 -1765h-104z" />
    <glyph glyph-name="backslash.uc" horiz-adv-x="800" 
d="M518 -172l-278 1765h100l278 -1765h-100z" />
    <glyph glyph-name="bar.uc" horiz-adv-x="493" 
d="M227 -172l-2 1765h92v-1765h-90z" />
    <glyph glyph-name="at.uc" horiz-adv-x="1839" 
d="M942 -119q-155 0 -287.5 43t-227 118t-161 174.5t-99 213.5t-32.5 236q0 185 72 349t191.5 277.5t277 179.5t325.5 66q173 0 318.5 -55.5t242.5 -151t151 -224.5t54 -276q0 -111 -23.5 -201.5t-60.5 -148.5t-86.5 -97.5t-99.5 -56t-100 -16.5q-213 0 -219 197
q-42 -85 -128 -148t-186 -63q-138 0 -221 86.5t-84 232.5q-1 99 30.5 189t85 155t128.5 103.5t158 38.5q103 0 170 -52.5t83 -131.5l27 167h107l-74 -477q-38 -217 125 -217q112 0 190 109.5t78 328.5q0 133 -44.5 245.5t-128 196t-211.5 130.5t-286 47q-154 0 -292.5 -58
t-241 -159t-163 -249t-60.5 -318q1 -109 28 -209.5t84.5 -189t139 -153.5t198.5 -103t256 -38q352 0 541 199h104q-80 -127 -252.5 -208t-396.5 -81zM887 381q77 0 146 47.5t112.5 136t44.5 197.5q0 119 -59.5 186.5t-165.5 67.5q-124 0 -210 -113.5t-83 -281.5
q0 -109 58 -174.5t157 -65.5z" />
    </font>
</defs>
</svg>
